<svg width="181" height="54" viewBox="0 0 181 54" fill="none" xmlns="http://www.w3.org/2000/svg">
<rect y="0.0688477" width="180.959" height="53.4952" rx="10" fill="white"/>
<path d="M44.514 34.1778C42.1714 33.8122 40.353 31.0962 40.353 27.7997C40.353 24.9131 41.7484 22.4714 43.6687 21.6627C43.8872 21.5704 43.9725 21.3032 43.8393 21.1073C42.4239 19.0277 40.2337 17.695 37.2236 17.695C34.72 17.695 33.9087 19.2862 31.1736 19.3794C28.4394 19.2862 27.6281 17.695 25.1228 17.695C12.9803 17.695 14.1981 39.3764 25.6199 44.2947C27.2146 44.8405 28.1304 42.8697 31.1736 42.7704C34.2169 42.8697 35.1318 44.8405 36.7283 44.2947C40.709 42.5806 43.4519 38.8297 44.8186 34.6687C44.8917 34.4459 44.7455 34.2143 44.514 34.1778Z" fill="black"/>
<path d="M31.0489 17.2397C31.8271 17.1491 34.376 16.7235 35.8924 14.9346C37.4088 13.1449 37.4114 10.5612 37.3731 9.7778C37.3661 9.64897 37.2521 9.55235 37.1241 9.56715C36.345 9.65768 33.7962 10.0833 32.2798 11.8722C30.7634 13.6619 30.7617 16.2456 30.8 17.029C30.8061 17.1578 30.9201 17.2553 31.0489 17.2397Z" fill="black"/>
<path d="M62.056 35.1231H66.9003L64.5256 27.8458H64.4429L62.056 35.1231ZM67.6202 37.4743H61.3474L59.8946 41.8807H56.7521L62.8002 24.8338H66.2387L72.2869 41.8807H69.0739L67.6202 37.4743Z" fill="black"/>
<path d="M82.3404 38.4546C82.9315 37.6981 83.2265 36.6901 83.2265 35.4305C83.2265 34.17 82.9315 33.1619 82.3404 32.4064C81.7572 31.6499 80.978 31.2721 80.0013 31.2721C79.0403 31.2721 78.2647 31.6543 77.6737 32.4177C77.0835 33.182 76.7884 34.1856 76.7884 35.4305C76.7884 36.6744 77.0835 37.6789 77.6737 38.4424C78.2647 39.1988 79.0403 39.5766 80.0013 39.5766C80.978 39.5766 81.7572 39.2032 82.3404 38.4546ZM84.7856 30.6105C85.7545 31.7996 86.2384 33.4066 86.2384 35.4305C86.2384 37.4465 85.7588 39.0491 84.7978 40.2382C83.8367 41.4273 82.5414 42.0218 80.911 42.0218C78.9968 42.0218 77.6467 41.2619 76.8589 39.742H76.7997V46.027H73.8583V28.9679H76.7292V31.1415H76.7884C77.1427 30.4329 77.6858 29.8706 78.4179 29.4528C79.1509 29.0349 79.9657 28.826 80.864 28.826C82.5101 28.826 83.8167 29.4214 84.7856 30.6105Z" fill="black"/>
<path d="M96.6939 38.4546C97.2841 37.6981 97.58 36.6901 97.58 35.4305C97.58 34.17 97.2841 33.1619 96.6939 32.4064C96.1106 31.6499 95.3316 31.2721 94.3549 31.2721C93.3938 31.2721 92.6182 31.6543 92.0271 32.4177C91.4369 33.182 91.1419 34.1856 91.1419 35.4305C91.1419 36.6744 91.4369 37.6789 92.0271 38.4424C92.6182 39.1988 93.3938 39.5766 94.3549 39.5766C95.3316 39.5766 96.1106 39.2032 96.6939 38.4546ZM99.1391 30.6105C100.108 31.7996 100.592 33.4066 100.592 35.4305C100.592 37.4465 100.111 39.0491 99.1513 40.2382C98.1903 41.4273 96.895 42.0218 95.2645 42.0218C93.3503 42.0218 92.0002 41.2619 91.2124 39.742H91.1532V46.027H88.2118V28.9679H91.0827V31.1415H91.1419C91.4961 30.4329 92.0393 29.8706 92.7714 29.4528C93.5044 29.0349 94.3192 28.826 95.2175 28.826C96.8636 28.826 98.1702 29.4214 99.1391 30.6105Z" fill="black"/>
<path d="M110.48 37.0844C110.575 37.8635 110.98 38.4937 111.697 38.9742C112.397 39.4469 113.272 39.6828 114.32 39.6828C115.343 39.6828 116.182 39.4547 116.836 38.9977C117.481 38.5416 117.804 37.9583 117.804 37.2498C117.804 36.6352 117.568 36.139 117.096 35.7612C116.623 35.3756 115.852 35.0561 114.78 34.8037L112.571 34.284C109.484 33.5754 107.941 32.0198 107.941 29.6181C107.941 28.1139 108.535 26.8891 109.724 25.9438C110.898 25.015 112.417 24.5501 114.284 24.5501C116.159 24.5501 117.671 25.015 118.821 25.9438C119.962 26.8656 120.553 28.0782 120.592 29.5824H117.687C117.615 28.7868 117.269 28.1609 116.647 27.7039C116.04 27.2547 115.245 27.031 114.26 27.031C113.299 27.031 112.52 27.2478 111.921 27.6804C111.331 28.1139 111.035 28.685 111.035 29.3935C111.035 29.9602 111.268 30.4216 111.732 30.7759C112.189 31.1302 112.942 31.4331 113.989 31.6856L115.95 32.1339C117.674 32.5282 118.927 33.1027 119.706 33.8592C120.486 34.6148 120.876 35.6272 120.876 36.8955C120.876 38.5094 120.269 39.7933 119.057 40.7465C117.852 41.6919 116.217 42.1637 114.154 42.1637C112.185 42.1637 110.606 41.711 109.417 40.8057C108.22 39.8917 107.59 38.6513 107.527 37.0844H110.48Z" fill="black"/>
<path d="M126.688 26.0856V28.9678H129.134V31.2485H126.688V38.0532C126.688 39.1004 127.208 39.6236 128.247 39.6236C128.516 39.6236 128.807 39.6044 129.122 39.5652V41.8216C128.767 41.8999 128.252 41.9391 127.575 41.9391C126.204 41.9391 125.223 41.6718 124.633 41.1365C124.042 40.5924 123.747 39.6993 123.747 38.4545V31.2485H121.987V28.9678H123.747V26.0856H126.688Z" fill="black"/>
<path d="M139.034 38.5842C139.601 37.8365 139.885 36.7849 139.885 35.4304C139.885 34.0838 139.598 33.0322 139.022 32.2758C138.455 31.5202 137.664 31.1415 136.648 31.1415C135.639 31.1415 134.852 31.5202 134.285 32.2758C133.71 33.0322 133.423 34.0838 133.423 35.4304C133.423 36.7771 133.71 37.8287 134.285 38.5842C134.852 39.3407 135.639 39.7185 136.648 39.7185C137.664 39.7185 138.459 39.3407 139.034 38.5842ZM132.111 40.2861C130.993 39.0961 130.434 37.4744 130.434 35.4183C130.434 33.3865 130.997 31.7718 132.123 30.5748C133.241 29.3857 134.75 28.7912 136.648 28.7912C138.554 28.7912 140.066 29.3857 141.184 30.5748C142.31 31.7639 142.873 33.3787 142.873 35.4183C142.873 37.4744 142.314 39.0961 141.196 40.2861C140.078 41.4752 138.562 42.0697 136.648 42.0697C134.742 42.0697 133.23 41.4752 132.111 40.2861Z" fill="black"/>
<path d="M144.834 28.9678H147.658V31.2128H147.717C147.922 30.4564 148.299 29.8705 148.85 29.4527C149.394 29.0349 150.047 28.8259 150.812 28.8259C151.174 28.8259 151.473 28.866 151.71 28.9443V31.6263C151.45 31.5079 151.06 31.4487 150.54 31.4487C149.682 31.4487 149.004 31.7125 148.508 32.2409C148.02 32.7606 147.775 33.477 147.775 34.3901V41.8807H144.834V28.9678Z" fill="black"/>
<path d="M156.234 31.9337C155.659 32.5082 155.34 33.2568 155.277 34.1778H161.397C161.366 33.249 161.074 32.5004 160.523 31.9337C159.971 31.3661 159.259 31.0832 158.384 31.0832C157.526 31.0832 156.809 31.3661 156.234 31.9337ZM164.173 38.0411C163.984 39.238 163.366 40.2068 162.318 40.9468C161.271 41.6954 159.995 42.0697 158.49 42.0697C156.585 42.0697 155.076 41.4786 153.966 40.2974C152.863 39.1161 152.312 37.5092 152.312 35.4775C152.312 33.4457 152.863 31.8231 153.966 30.6105C155.061 29.3979 156.533 28.7912 158.384 28.7912C160.196 28.7912 161.633 29.3657 162.697 30.5156C163.759 31.6656 164.291 33.2176 164.291 35.1702V36.139H155.254V36.3166C155.254 37.356 155.557 38.1908 156.163 38.821C156.769 39.4582 157.565 39.7777 158.549 39.7777C159.259 39.7777 159.869 39.6201 160.381 39.305C160.893 38.9977 161.235 38.5764 161.409 38.0411H164.173Z" fill="black"/>
<path d="M63.9545 16.0297C63.3904 16.653 62.5817 16.9646 61.5275 16.9646H59.6569V9.70294H61.5275C62.5817 9.70294 63.3904 10.0146 63.9545 10.6379C64.5186 11.2664 64.8006 12.1647 64.8006 13.3338C64.8006 14.5028 64.5186 15.4012 63.9545 16.0297ZM61.6712 8.37544H58.1161V18.2991H61.6712C63.1519 18.2991 64.3053 17.8612 65.1305 16.9855C65.9558 16.1098 66.3684 14.8876 66.3684 13.3198C66.3684 11.7564 65.9558 10.5421 65.1305 9.67508C64.3053 8.80894 63.1519 8.37544 61.6712 8.37544Z" fill="black"/>
<path d="M72.3655 16.4694C72.0078 16.9238 71.5125 17.151 70.8796 17.151C70.2476 17.151 69.7523 16.9238 69.3945 16.4694C69.0368 16.0115 68.8583 15.376 68.8583 14.5647C68.8583 13.7534 69.0368 13.118 69.3945 12.6601C69.7523 12.2013 70.2476 11.9724 70.8796 11.9724C71.5125 11.9724 72.0078 12.2013 72.3655 12.6601C72.7181 13.1136 72.8948 13.7491 72.8948 14.5647C72.8948 15.3813 72.7181 16.0158 72.3655 16.4694ZM70.8796 10.7346C69.8028 10.7346 68.9454 11.0801 68.3082 11.7731C67.6666 12.4651 67.3454 13.3957 67.3454 14.5647C67.3454 15.7382 67.664 16.6687 68.3012 17.3564C68.9384 18.0441 69.7985 18.3879 70.8796 18.3879C71.9616 18.3879 72.8191 18.0441 73.4519 17.3564C74.0891 16.6687 74.4077 15.7382 74.4077 14.5647C74.4077 13.3913 74.0891 12.4581 73.4519 11.7661C72.8147 11.0784 71.9573 10.7346 70.8796 10.7346Z" fill="black"/>
<path d="M82.522 16.7444H82.495L80.9063 10.8311H79.4761L77.8944 16.7444H77.8666L76.4773 10.8311H74.9922L77.0553 18.2991H78.5882L80.1638 12.6739H80.1977L81.7864 18.2991H83.3272L85.3833 10.8311H83.9113L82.522 16.7444Z" fill="black"/>
<path d="M90.2037 10.7484C89.0485 10.7484 88.2399 11.195 87.7768 12.089H87.7489V10.8311H86.3256V18.2991H87.8177V13.9866C87.8177 13.3999 87.99 12.9255 88.3339 12.5634C88.6725 12.2056 89.1243 12.0272 89.6883 12.0272C90.2341 12.0272 90.6511 12.1804 90.9401 12.4877C91.2291 12.7906 91.3728 13.2258 91.3728 13.7943V18.2991H92.8657V13.5122C92.8657 12.6557 92.6289 11.9793 92.1571 11.484C91.6801 10.993 91.0289 10.7484 90.2037 10.7484Z" fill="black"/>
<path d="M94.4192 18.2991H95.9112V7.92888H94.4192V18.2991Z" fill="black"/>
<path d="M102.183 16.4694C101.825 16.9238 101.331 17.151 100.698 17.151C100.065 17.151 99.5698 16.9238 99.2121 16.4694C98.8552 16.0115 98.6758 15.376 98.6758 14.5647C98.6758 13.7534 98.8552 13.118 99.2121 12.6601C99.5698 12.2013 100.065 11.9724 100.698 11.9724C101.331 11.9724 101.825 12.2013 102.183 12.6601C102.536 13.1136 102.712 13.7491 102.712 14.5647C102.712 15.3813 102.536 16.0158 102.183 16.4694ZM100.698 10.7346C99.6203 10.7346 98.7629 11.0801 98.1257 11.7731C97.4841 12.4651 97.1629 13.3957 97.1629 14.5647C97.1629 15.7382 97.4815 16.6687 98.1187 17.3564C98.7559 18.0441 99.616 18.3879 100.698 18.3879C101.78 18.3879 102.637 18.0441 103.269 17.3564C103.907 16.6687 104.226 15.7382 104.226 14.5647C104.226 13.3913 103.907 12.4581 103.269 11.7661C102.632 11.0784 101.775 10.7346 100.698 10.7346Z" fill="black"/>
<path d="M109.962 15.4935C109.962 15.9836 109.776 16.3892 109.404 16.7104C109.034 17.0264 108.57 17.1848 108.015 17.1848C107.584 17.1848 107.24 17.0882 106.984 16.8958C106.727 16.7078 106.599 16.4536 106.599 16.1324C106.599 15.463 107.115 15.0965 108.147 15.0321L109.962 14.9085V15.4935ZM110.615 11.4013C110.074 10.9565 109.347 10.7345 108.435 10.7345C107.596 10.7345 106.896 10.9521 106.338 11.3874C105.778 11.8235 105.487 12.371 105.465 13.0308H106.86C106.924 12.7053 107.094 12.4467 107.369 12.2544C107.649 12.0611 107.99 11.9654 108.394 11.9654C108.893 11.9654 109.278 12.0777 109.549 12.3022C109.824 12.5312 109.962 12.8594 109.962 13.2859V13.863L107.946 13.9806C107.021 14.0398 106.314 14.2556 105.828 14.6265C105.338 14.9982 105.093 15.5091 105.093 16.1603C105.093 16.8253 105.327 17.3616 105.794 17.7689C106.262 18.1729 106.87 18.3748 107.616 18.3748C108.13 18.3748 108.6 18.2556 109.027 18.017C109.453 17.7785 109.769 17.4573 109.975 17.0543H110.009V18.2991H111.434V13.1754C111.434 12.4372 111.16 11.8461 110.615 11.4013Z" fill="black"/>
<path d="M117.574 16.4075C117.207 16.875 116.723 17.1091 116.123 17.1091C115.518 17.1091 115.034 16.8776 114.672 16.4145C114.305 15.9566 114.122 15.3394 114.122 14.5647C114.122 13.7943 114.305 13.178 114.672 12.7149C115.039 12.2518 115.523 12.0202 116.123 12.0202C116.719 12.0202 117.203 12.2544 117.574 12.7218C117.941 13.1893 118.124 13.8038 118.124 14.5647C118.124 15.3255 117.941 15.94 117.574 16.4075ZM118.118 12.0681H118.083C117.629 11.1924 116.845 10.7545 115.731 10.7545C114.8 10.7545 114.046 11.101 113.468 11.793C112.886 12.4946 112.595 13.4165 112.595 14.5577C112.595 15.7085 112.886 16.6321 113.468 17.3293C114.046 18.0257 114.805 18.3748 115.745 18.3748C116.873 18.3748 117.668 17.9274 118.131 17.0334H118.159V18.2991H119.603V7.92889H118.118V12.0681Z" fill="black"/>
<path d="M129.114 16.4694C128.756 16.9238 128.261 17.151 127.628 17.151C126.995 17.151 126.501 16.9238 126.143 16.4694C125.785 16.0115 125.607 15.376 125.607 14.5647C125.607 13.7534 125.785 13.118 126.143 12.6601C126.501 12.2013 126.995 11.9724 127.628 11.9724C128.261 11.9724 128.756 12.2013 129.114 12.6601C129.466 13.1136 129.643 13.7491 129.643 14.5647C129.643 15.3813 129.466 16.0158 129.114 16.4694ZM127.628 10.7346C126.551 10.7346 125.694 11.0801 125.056 11.7731C124.414 12.4651 124.094 13.3957 124.094 14.5647C124.094 15.7382 124.412 16.6687 125.05 17.3564C125.687 18.0441 126.546 18.3879 127.628 18.3879C128.71 18.3879 129.567 18.0441 130.2 17.3564C130.837 16.6687 131.156 15.7382 131.156 14.5647C131.156 13.3913 130.837 12.4581 130.2 11.7661C129.563 11.0784 128.706 10.7346 127.628 10.7346Z" fill="black"/>
<path d="M136.231 10.7484C135.076 10.7484 134.266 11.195 133.803 12.089H133.776V10.8311H132.352V18.2991H133.845V13.9866C133.845 13.3999 134.016 12.9255 134.36 12.5634C134.7 12.2056 135.152 12.0272 135.716 12.0272C136.261 12.0272 136.678 12.1804 136.967 12.4877C137.256 12.7906 137.4 13.2258 137.4 13.7943V18.2991H138.892V13.5122C138.892 12.6557 138.656 11.9793 138.184 11.484C137.707 10.993 137.056 10.7484 136.231 10.7484Z" fill="black"/>
<path d="M145.563 9.15276H144.078V10.8311H143.046V12.0062H144.078V16.3317C144.078 17.0569 144.236 17.5722 144.552 17.8795C144.868 18.1911 145.4 18.3469 146.148 18.3469C146.505 18.3469 146.785 18.3217 146.987 18.2712V17.0952C146.826 17.1187 146.656 17.13 146.478 17.13C145.868 17.13 145.563 16.8131 145.563 16.1811V12.0062H146.994V10.8311H145.563V9.15276Z" fill="black"/>
<path d="M152.254 10.7484C151.089 10.7484 150.281 11.195 149.826 12.089H149.792V7.92888H148.313V18.2991H149.806V14.0215C149.806 13.4252 149.985 12.9438 150.342 12.5773C150.695 12.2108 151.161 12.0272 151.739 12.0272C152.284 12.0272 152.713 12.1856 153.024 12.5016C153.336 12.8184 153.492 13.2554 153.492 13.8152V18.2991H154.978V13.5262C154.978 12.6826 154.73 12.0089 154.234 11.5049C153.735 11 153.075 10.7484 152.254 10.7484Z" fill="black"/>
<path d="M158.244 12.4877C158.597 12.13 159.041 11.9515 159.579 11.9515C160.119 11.9515 160.56 12.1282 160.898 12.4808C161.238 12.8342 161.416 13.3016 161.435 13.884H157.646C157.687 13.3112 157.886 12.8455 158.244 12.4877ZM162.927 14.9434V14.4202C162.927 13.2877 162.627 12.392 162.026 11.7313C161.426 11.0671 160.612 10.7346 159.585 10.7346C158.54 10.7346 157.703 11.0854 157.075 11.7861C156.447 12.4877 156.133 13.4235 156.133 14.5926C156.133 15.7617 156.447 16.6853 157.075 17.3634C157.708 18.0467 158.565 18.3879 159.647 18.3879C160.486 18.3879 161.203 18.1773 161.799 17.756C162.396 17.3294 162.746 16.7819 162.852 16.1125H161.428C161.327 16.438 161.118 16.6966 160.802 16.8889C160.486 17.0822 160.11 17.178 159.674 17.178C159.06 17.178 158.567 16.9812 158.196 16.5869C157.825 16.1969 157.639 15.679 157.639 15.0322V14.9434H162.927Z" fill="black"/>
</svg>
