<svg width="166" height="48" viewBox="0 0 166 48" fill="none" xmlns="http://www.w3.org/2000/svg">
<path d="M156.163 47.8115H8.90644C3.99943 47.8115 0.0214844 43.8337 0.0214844 38.927V9.38462C0.0214844 4.47793 3.99943 0.500141 8.90644 0.500141H156.163C161.069 0.500141 165.048 4.47793 165.048 9.38462V38.927C165.048 43.8337 161.069 47.8115 156.163 47.8115Z" fill="#181717"/>
<path d="M40.3902 30.7674C38.2389 30.4316 36.5688 27.9375 36.5688 24.9102C36.5688 22.2594 37.8504 20.0179 39.6136 19.2745C39.8144 19.1897 39.8933 18.9443 39.7707 18.7645C38.4707 16.8547 36.4598 15.6308 33.6954 15.6308C31.3963 15.6308 30.6511 17.0921 28.1393 17.1777C25.6285 17.0921 24.8834 15.6308 22.5832 15.6308C11.4323 15.6308 12.5504 35.5414 23.0391 40.0579C24.504 40.5592 25.3445 38.7493 28.1393 38.6582C30.9341 38.7493 31.7745 40.5592 33.2406 40.0579C36.8964 38.4839 39.4147 35.0393 40.67 31.2182C40.7372 31.0136 40.6031 30.8009 40.3902 30.7674Z" fill="white"/>
<path d="M28.0247 15.2128C28.7398 15.1297 31.0803 14.7388 32.4729 13.096C33.8654 11.4525 33.8674 9.07987 33.8321 8.36041C33.8263 8.2421 33.7216 8.15337 33.6034 8.16696C32.8883 8.2501 30.5479 8.641 29.1552 10.2846C27.7626 11.9273 27.7608 14.2999 27.796 15.0194C27.8018 15.1385 27.9065 15.2272 28.0247 15.2128Z" fill="white"/>
<path d="M56.5004 31.6356H60.9482L58.7675 24.9527H58.6916L56.5004 31.6356ZM61.6102 33.7948H55.8497L54.5147 37.8413H51.6289L57.1839 22.1868H60.3407L65.8949 37.8413H62.9443L61.6102 33.7948Z" fill="white"/>
<path d="M75.1272 34.695C75.67 34.0011 75.941 33.0754 75.941 31.9179C75.941 30.7612 75.67 29.8347 75.1272 29.1408C74.5924 28.4461 73.8761 28.0992 72.9792 28.0992C72.0967 28.0992 71.3844 28.4501 70.8424 29.1512C70.2996 29.8531 70.0287 30.7748 70.0287 31.9179C70.0287 33.061 70.2996 33.9827 70.8424 34.6846C71.3844 35.3785 72.0967 35.7254 72.9792 35.7254C73.8761 35.7254 74.5924 35.3825 75.1272 34.695ZM77.3735 27.4916C78.2624 28.5836 78.7077 30.0593 78.7077 31.9179C78.7077 33.7693 78.2664 35.241 77.3839 36.333C76.5013 37.4257 75.3118 37.9717 73.8146 37.9717C72.0575 37.9717 70.8169 37.2738 70.0934 35.8773H70.0398V41.6489H67.3379V25.984H69.9743V27.9801H70.0287C70.354 27.3286 70.8528 26.8122 71.5259 26.4285C72.1982 26.0455 72.9472 25.8537 73.7714 25.8537C75.2831 25.8537 76.4838 26.3997 77.3735 27.4916Z" fill="white"/>
<path d="M88.3069 34.695C88.8497 34.0011 89.1207 33.0754 89.1207 31.9179C89.1207 30.7612 88.8497 29.8347 88.3069 29.1408C87.7721 28.4461 87.0558 28.0992 86.1589 28.0992C85.2764 28.0992 84.5641 28.4501 84.0221 29.1512C83.4793 29.8531 83.2083 30.7748 83.2083 31.9179C83.2083 33.061 83.4793 33.9827 84.0221 34.6846C84.5641 35.3785 85.2764 35.7254 86.1589 35.7254C87.0558 35.7254 87.7721 35.3825 88.3069 34.695ZM90.5532 27.4916C91.4421 28.5836 91.8874 30.0593 91.8874 31.9179C91.8874 33.7693 91.4461 35.241 90.5636 36.333C89.681 37.4257 88.4915 37.9717 86.9943 37.9717C85.2372 37.9717 83.9965 37.2738 83.2731 35.8773H83.2187V41.6489H80.5176V25.984H83.154V27.9801H83.2083C83.5337 27.3286 84.0325 26.8122 84.7056 26.4285C85.3779 26.0455 86.1269 25.8537 86.9511 25.8537C88.4628 25.8537 89.6635 26.3997 90.5532 27.4916Z" fill="white"/>
<path d="M100.968 33.4368C101.055 34.153 101.427 34.7318 102.086 35.1723C102.729 35.6063 103.532 35.8238 104.494 35.8238C105.434 35.8238 106.204 35.6135 106.805 35.1939C107.398 34.775 107.694 34.2394 107.694 33.5887C107.694 33.0243 107.477 32.5686 107.044 32.2217C106.61 31.8676 105.9 31.5742 104.917 31.3432L102.888 30.8659C100.053 30.2144 98.6356 28.7867 98.6356 26.5804C98.6356 25.199 99.1816 24.0743 100.274 23.2061C101.351 22.3532 102.747 21.9263 104.462 21.9263C106.183 21.9263 107.571 22.3532 108.627 23.2061C109.676 24.0527 110.218 25.1662 110.255 26.5476H107.586C107.521 25.817 107.202 25.2422 106.631 24.8225C106.074 24.4108 105.343 24.2046 104.44 24.2046C103.557 24.2046 102.841 24.4036 102.291 24.8009C101.749 25.199 101.477 25.7234 101.477 26.3741C101.477 26.8953 101.691 27.3182 102.118 27.6436C102.537 27.9689 103.228 28.2471 104.19 28.4789L105.991 28.8914C107.575 29.2528 108.725 29.7804 109.441 30.475C110.156 31.1697 110.515 32.0986 110.515 33.2633C110.515 34.7462 109.958 35.9245 108.844 36.7998C107.737 37.668 106.237 38.1021 104.342 38.1021C102.534 38.1021 101.083 37.6856 99.9914 36.8542C98.8922 36.0148 98.3134 34.8757 98.2559 33.4368H100.968Z" fill="white"/>
<path d="M115.853 23.3361V25.9837H118.099V28.0773H115.853V34.3262C115.853 35.2879 116.33 35.7691 117.285 35.7691C117.531 35.7691 117.798 35.7507 118.088 35.7148V37.7868C117.762 37.8587 117.288 37.8955 116.666 37.8955C115.408 37.8955 114.507 37.6493 113.965 37.1577C113.423 36.6588 113.152 35.8379 113.152 34.6947V28.0773H111.535V25.9837H113.152V23.3361H115.853Z" fill="white"/>
<path d="M127.189 34.8139C127.71 34.1272 127.97 33.1615 127.97 31.9177C127.97 30.681 127.706 29.7153 127.179 29.0215C126.657 28.3268 125.931 27.9798 124.998 27.9798C124.071 27.9798 123.349 28.3268 122.828 29.0215C122.3 29.7153 122.036 30.681 122.036 31.9177C122.036 33.1543 122.3 34.12 122.828 34.8139C123.349 35.5085 124.071 35.8555 124.998 35.8555C125.931 35.8555 126.661 35.5085 127.189 34.8139ZM120.831 36.3767C119.805 35.2847 119.291 33.7946 119.291 31.9065C119.291 30.0407 119.808 28.5586 120.843 27.4586C121.87 26.3667 123.254 25.8207 124.998 25.8207C126.748 25.8207 128.136 26.3667 129.164 27.4586C130.198 28.5514 130.715 30.0335 130.715 31.9065C130.715 33.7946 130.201 35.2847 129.175 36.3767C128.148 37.4687 126.755 38.0146 124.998 38.0146C123.247 38.0146 121.859 37.4687 120.831 36.3767Z" fill="white"/>
<path d="M132.516 25.9839H135.109V28.0447H135.163C135.351 27.35 135.698 26.8121 136.205 26.4283C136.704 26.0454 137.304 25.8536 138.006 25.8536C138.338 25.8536 138.613 25.8896 138.83 25.9615V28.4244C138.591 28.3157 138.233 28.2614 137.756 28.2614C136.967 28.2614 136.346 28.5044 135.89 28.9888C135.441 29.466 135.218 30.1239 135.218 30.9633V37.8413H132.516V25.9839Z" fill="white"/>
<path d="M142.985 28.7065C142.456 29.2341 142.164 29.9216 142.106 30.7673H147.725C147.697 29.9144 147.429 29.2269 146.923 28.7065C146.417 28.1853 145.762 27.9255 144.959 27.9255C144.17 27.9255 143.512 28.1853 142.985 28.7065ZM150.275 34.3151C150.101 35.415 149.534 36.3039 148.572 36.9842C147.609 37.6709 146.438 38.0146 145.057 38.0146C143.306 38.0146 141.922 37.4719 140.902 36.3871C139.889 35.3023 139.383 33.8274 139.383 31.9608C139.383 30.095 139.889 28.605 140.902 27.4914C141.907 26.3779 143.259 25.8207 144.959 25.8207C146.622 25.8207 147.943 26.3483 148.919 27.4043C149.895 28.4603 150.383 29.8856 150.383 31.6786V32.5684H142.084V32.7314C142.084 33.6859 142.362 34.4525 142.919 35.0313C143.477 35.6173 144.207 35.9098 145.111 35.9098C145.762 35.9098 146.322 35.7651 146.792 35.4758C147.262 35.1936 147.577 34.8067 147.736 34.3151H150.275Z" fill="white"/>
<path d="M58.2424 14.1015C57.7252 14.6739 56.9818 14.9601 56.0137 14.9601H54.2958V8.29152H56.0137C56.9818 8.29152 57.7252 8.57771 58.2424 9.15008C58.7604 9.72724 59.0194 10.5522 59.0194 11.6258C59.0194 12.6994 58.7604 13.5244 58.2424 14.1015ZM56.1464 7.07245H52.8809V16.1855H56.1464C57.5062 16.1855 58.5646 15.7834 59.3224 14.9793C60.0802 14.1751 60.4591 13.0527 60.4591 11.613C60.4591 10.1773 60.0802 9.06214 59.3224 8.26594C58.5646 7.47054 57.5062 7.07245 56.1464 7.07245Z" fill="white"/>
<path d="M65.9656 14.5054C65.637 14.9227 65.183 15.1313 64.6018 15.1313C64.0206 15.1313 63.5658 14.9227 63.2372 14.5054C62.9095 14.0849 62.7448 13.5014 62.7448 12.7563C62.7448 12.0113 62.9095 11.4285 63.2372 11.0073C63.5658 10.586 64.0206 10.3757 64.6018 10.3757C65.183 10.3757 65.637 10.586 65.9656 11.0073C66.2901 11.4237 66.4516 12.0073 66.4516 12.7563C66.4516 13.5062 66.2901 14.0889 65.9656 14.5054ZM64.6018 9.23899C63.6122 9.23899 62.8248 9.55715 62.2396 10.1927C61.6504 10.8282 61.3555 11.6827 61.3555 12.7563C61.3555 13.8339 61.648 14.6893 62.2332 15.3208C62.8184 15.9523 63.6082 16.2681 64.6018 16.2681C65.5955 16.2681 66.3829 15.9523 66.9632 15.3208C67.5484 14.6893 67.8418 13.8339 67.8418 12.7563C67.8418 11.6787 67.5484 10.8218 66.9632 10.1863C66.3781 9.55475 65.5907 9.23899 64.6018 9.23899Z" fill="white"/>
<path d="M75.2945 14.7586H75.2689L73.81 9.32754H72.4966L71.0441 14.7586H71.0185L69.7427 9.32754H68.3789L70.2735 16.1855H71.682L73.1281 11.0199H73.1593L74.6182 16.1855H76.0331L77.9213 9.32754H76.5695L75.2945 14.7586Z" fill="white"/>
<path d="M82.3473 9.25159C81.2857 9.25159 80.543 9.66168 80.1177 10.4827H80.0922V9.32754H78.7852V16.1855H80.1553V12.2261C80.1553 11.6874 80.3136 11.2509 80.6294 10.9183C80.9411 10.5906 81.3552 10.4259 81.8732 10.4259C82.3744 10.4259 82.7574 10.5674 83.0228 10.8488C83.2882 11.127 83.4208 11.5267 83.4208 12.0495V16.1855H84.791V11.7905C84.791 11.0031 84.5744 10.3819 84.1403 9.92708C83.7022 9.47622 83.1051 9.25159 82.3473 9.25159Z" fill="white"/>
<path d="M86.2188 16.1855H87.5897V6.66236H86.2188V16.1855Z" fill="white"/>
<path d="M93.3495 14.5054C93.0218 14.9227 92.5669 15.1313 91.9858 15.1313C91.4046 15.1313 90.9498 14.9227 90.622 14.5054C90.2935 14.0849 90.1288 13.5014 90.1288 12.7563C90.1288 12.0113 90.2935 11.4285 90.622 11.0073C90.9498 10.586 91.4046 10.3757 91.9858 10.3757C92.5669 10.3757 93.0218 10.586 93.3495 11.0073C93.6741 11.4237 93.8364 12.0073 93.8364 12.7563C93.8364 13.5062 93.6741 14.0889 93.3495 14.5054ZM91.9858 9.23899C90.9961 9.23899 90.2087 9.55715 89.6236 10.1927C89.0344 10.8282 88.7402 11.6827 88.7402 12.7563C88.7402 13.8339 89.0328 14.6893 89.618 15.3208C90.2031 15.9523 90.9921 16.2681 91.9858 16.2681C92.9794 16.2681 93.7668 15.9523 94.348 15.3208C94.9331 14.6893 95.2257 13.8339 95.2257 12.7563C95.2257 11.6787 94.9331 10.8218 94.348 10.1863C93.7628 9.55475 92.9754 9.23899 91.9858 9.23899Z" fill="white"/>
<path d="M100.491 13.6094C100.491 14.0594 100.32 14.432 99.9789 14.7269C99.6384 15.0171 99.2131 15.1626 98.7039 15.1626C98.3082 15.1626 97.9924 15.0747 97.7566 14.8972C97.5208 14.7245 97.4025 14.4911 97.4025 14.1961C97.4025 13.5814 97.8765 13.2449 98.8238 13.1857L100.491 13.0722V13.6094ZM101.091 9.85141C100.594 9.44372 99.927 9.23908 99.0892 9.23908C98.3186 9.23908 97.6767 9.43893 97.1627 9.83863C96.6495 10.2391 96.3817 10.7419 96.3609 11.3479H97.6431C97.7015 11.0497 97.8573 10.8115 98.1099 10.6348C98.3666 10.4582 98.6807 10.3694 99.0508 10.3694C99.5097 10.3694 99.8638 10.4725 100.112 10.6788C100.364 10.8898 100.491 11.1904 100.491 11.5821V12.1121L98.6407 12.22C97.7902 12.2744 97.1419 12.4726 96.695 12.8132C96.245 13.1545 96.0195 13.6238 96.0195 14.2217C96.0195 14.8324 96.2346 15.3249 96.6638 15.6998C97.0931 16.0699 97.6511 16.2554 98.3378 16.2554C98.8086 16.2554 99.2403 16.1458 99.632 15.9268C100.024 15.7078 100.314 15.4136 100.503 15.0427H100.535V16.1858H101.842V11.4806C101.842 10.8027 101.592 10.2599 101.091 9.85141Z" fill="white"/>
<path d="M107.483 14.4487C107.145 14.8788 106.702 15.093 106.15 15.093C105.595 15.093 105.15 14.8804 104.818 14.4551C104.48 14.0347 104.312 13.4679 104.312 12.7564C104.312 12.0498 104.48 11.483 104.818 11.0577C105.154 10.6324 105.599 10.4198 106.15 10.4198C106.697 10.4198 107.141 10.6348 107.483 11.0641C107.819 11.4934 107.988 12.0577 107.988 12.7564C107.988 13.4551 107.819 14.0195 107.483 14.4487ZM107.982 10.4646H107.95C107.533 9.66036 106.813 9.25827 105.79 9.25827C104.935 9.25827 104.243 9.57563 103.712 10.2119C103.177 10.8555 102.91 11.702 102.91 12.75C102.91 13.8068 103.177 14.6558 103.712 15.2953C104.243 15.9356 104.94 16.2554 105.802 16.2554C106.838 16.2554 107.569 15.8445 107.994 15.0235H108.019V16.1858H109.345V6.66263H107.982V10.4646Z" fill="white"/>
<path d="M118.079 14.5054C117.75 14.9227 117.295 15.1313 116.714 15.1313C116.134 15.1313 115.679 14.9227 115.351 14.5054C115.022 14.0849 114.858 13.5014 114.858 12.7563C114.858 12.0113 115.022 11.4285 115.351 11.0073C115.679 10.586 116.134 10.3757 116.714 10.3757C117.295 10.3757 117.75 10.586 118.079 11.0073C118.403 11.4237 118.565 12.0073 118.565 12.7563C118.565 13.5062 118.403 14.0889 118.079 14.5054ZM116.714 9.23899C115.725 9.23899 114.938 9.55715 114.353 10.1927C113.764 10.8282 113.469 11.6827 113.469 12.7563C113.469 13.8339 113.761 14.6893 114.346 15.3208C114.932 15.9523 115.721 16.2681 116.714 16.2681C117.708 16.2681 118.495 15.9523 119.077 15.3208C119.662 14.6893 119.954 13.8339 119.954 12.7563C119.954 11.6787 119.662 10.8218 119.077 10.1863C118.491 9.55475 117.704 9.23899 116.714 9.23899Z" fill="white"/>
<path d="M124.616 9.25159C123.555 9.25159 122.813 9.66168 122.387 10.4827H122.362V9.32754H121.055V16.1855H122.425V12.2261C122.425 11.6874 122.583 11.2509 122.899 10.9183C123.21 10.5906 123.625 10.4259 124.143 10.4259C124.643 10.4259 125.027 10.5674 125.292 10.8488C125.557 11.127 125.69 11.5267 125.69 12.0495V16.1855H127.061V11.7905C127.061 11.0031 126.843 10.3819 126.41 9.92708C125.972 9.47622 125.374 9.25159 124.616 9.25159Z" fill="white"/>
<path d="M133.185 7.78628H131.82V9.32751H130.873V10.4067H131.82V14.3797C131.82 15.0448 131.966 15.518 132.256 15.8002C132.547 16.0864 133.035 16.2295 133.721 16.2295C134.05 16.2295 134.306 16.2063 134.492 16.1599V15.08C134.344 15.1015 134.189 15.1119 134.024 15.1119C133.465 15.1119 133.185 14.8218 133.185 14.2406V10.4067H134.498V9.32751H133.185V7.78628Z" fill="white"/>
<path d="M139.329 9.25159C138.26 9.25159 137.517 9.66168 137.1 10.4827H137.068V6.66236H135.711V16.1855H137.081V12.2573C137.081 11.7097 137.245 11.2685 137.574 10.9311C137.898 10.5946 138.325 10.4259 138.856 10.4259C139.357 10.4259 139.75 10.5714 140.036 10.8616C140.323 11.1526 140.466 11.5547 140.466 12.0679V16.1855H141.83V11.8025C141.83 11.0279 141.602 10.4091 141.148 9.94627C140.69 9.48342 140.083 9.25159 139.329 9.25159Z" fill="white"/>
<path d="M144.831 10.849C145.156 10.5212 145.564 10.3565 146.057 10.3565C146.553 10.3565 146.958 10.5188 147.269 10.8434C147.58 11.1671 147.745 11.5964 147.762 12.1312H144.282C144.319 11.6052 144.503 11.1775 144.831 10.849ZM149.132 13.1041V12.6236C149.132 11.5836 148.856 10.761 148.304 10.1551C147.753 9.54436 147.005 9.23899 146.063 9.23899C145.103 9.23899 144.335 9.56115 143.758 10.2055C143.181 10.849 142.893 11.7083 142.893 12.7819C142.893 13.8555 143.181 14.7036 143.758 15.3272C144.339 15.9539 145.126 16.2681 146.12 16.2681C146.89 16.2681 147.549 16.0746 148.096 15.6869C148.643 15.2952 148.966 14.7924 149.062 14.1776H147.755C147.663 14.4766 147.471 14.714 147.181 14.8907C146.89 15.0682 146.545 15.1561 146.145 15.1561C145.581 15.1561 145.128 14.9754 144.787 14.6133C144.446 14.2552 144.276 13.7796 144.276 13.1856V13.1041H149.132Z" fill="white"/>
</svg>
