<svg width="166" height="49" viewBox="0 0 166 49" fill="none" xmlns="http://www.w3.org/2000/svg">
<path d="M156.163 48.123H8.90676C3.99927 48.123 0.0214844 44.1453 0.0214844 39.2386V9.69614C0.0214844 4.78946 3.99927 0.811665 8.90676 0.811665H156.163C161.07 0.811665 165.048 4.78946 165.048 9.69614V39.2386C165.048 44.1453 161.07 48.123 156.163 48.123Z" fill="#181717"/>
<path d="M31.345 31.527L16.5905 39.995C14.3426 41.2844 11.6303 40.1325 10.8125 37.9046L24.2671 24.45L31.345 31.527Z" fill="#EA4335"/>
<path d="M24.2687 24.4507L10.8141 37.9053C10.6566 37.4768 10.5703 37.0084 10.5703 36.5087V12.427C10.5703 11.9177 10.6607 11.4405 10.8237 11.0056L24.2687 24.4507Z" fill="#4285F4"/>
<path d="M31.3347 17.3827L24.2673 24.4502L10.8223 11.0052C11.6496 8.79404 14.3484 7.65491 16.5875 8.93713L31.3347 17.3827Z" fill="#34A853"/>
<path d="M37.5935 27.9413L31.3454 31.5273L24.2676 24.4503L31.335 17.3828L37.5903 20.9649C40.2851 22.5094 40.2866 26.396 37.5935 27.9413Z" fill="#FBBC04"/>
<path d="M58.3141 30.2976H62.1784C62.0712 31.3888 61.5596 32.3257 60.6427 33.1083C59.7258 33.8845 58.6922 34.273 57.5411 34.273C56.1893 34.273 54.9342 33.7542 53.7767 32.7174C52.5385 31.599 51.9197 30.1777 51.9197 28.451C51.9197 26.7779 52.4745 25.3861 53.5857 24.275C54.6968 23.1438 56.0718 22.5786 57.7113 22.5786C59.5388 22.5786 61.088 23.4252 62.359 25.1183L64.0258 23.5219C63.0553 22.4108 62.0681 21.6082 61.064 21.1126C60.0136 20.6177 58.8825 20.3699 57.6714 20.3699C55.4163 20.3699 53.5017 21.1565 51.9293 22.7289C50.3569 24.2949 49.5703 26.2023 49.5703 28.451C49.5703 30.6525 50.3433 32.5399 51.8893 34.1123C53.4354 35.6783 55.2924 36.4609 57.4603 36.4609C59.6827 36.4609 61.5125 35.6519 62.9514 34.0324C63.5877 33.3089 64.0393 32.5327 64.3063 31.7029C64.5813 30.8068 64.718 29.7756 64.718 28.6117V28.0993H58.3141V30.2976Z" fill="white"/>
<path d="M73.33 33.5815C72.8008 34.1499 72.0949 34.4345 71.2116 34.4345C70.3347 34.4345 69.6288 34.1467 69.094 33.5711C68.572 33.002 68.3106 32.2297 68.3106 31.2521C68.3106 30.3424 68.5784 29.5997 69.114 29.0234C69.6488 28.4478 70.3483 28.16 71.2116 28.16C72.0885 28.16 72.7944 28.4478 73.33 29.0234C73.8584 29.5925 74.123 30.352 74.123 31.3024C74.123 32.2529 73.8584 33.0123 73.33 33.5815ZM71.2116 26.1224C69.7591 26.1224 68.5281 26.618 67.5176 27.6084C66.5072 28.5989 66.002 29.8004 66.002 31.2121C66.002 32.711 66.4968 33.9556 67.4872 34.9461C68.4777 35.9501 69.7055 36.4521 71.1716 36.4521C72.6505 36.4521 73.8984 35.9605 74.916 34.9765C75.9265 33.986 76.4317 32.7581 76.4317 31.2921C76.4317 29.8404 75.9296 28.6157 74.9256 27.618C73.9088 26.6212 72.6705 26.1224 71.2116 26.1224Z" fill="white"/>
<path d="M85.0449 33.5815C84.5165 34.1499 83.8106 34.4345 82.9273 34.4345C82.0503 34.4345 81.3445 34.1467 80.8089 33.5711C80.2869 33.002 80.0263 32.2297 80.0263 31.2521C80.0263 30.3424 80.2933 29.5997 80.8288 29.0234C81.3644 28.4478 82.0639 28.16 82.9273 28.16C83.8034 28.16 84.5093 28.4478 85.0449 29.0234C85.5733 29.5925 85.8379 30.352 85.8379 31.3024C85.8379 32.2529 85.5733 33.0123 85.0449 33.5815ZM82.9273 26.1224C81.4748 26.1224 80.2429 26.618 79.2325 27.6084C78.222 28.5989 77.7168 29.8004 77.7168 31.2121C77.7168 32.711 78.2124 33.9556 79.2029 34.9461C80.1933 35.9501 81.4212 36.4521 82.8865 36.4521C84.3654 36.4521 85.614 35.9605 86.6309 34.9765C87.6413 33.986 88.1465 32.7581 88.1465 31.2921C88.1465 29.8404 87.6453 28.6157 86.6413 27.618C85.6236 26.6212 84.3862 26.1224 82.9273 26.1224Z" fill="white"/>
<path d="M96.4887 33.4896C95.9867 34.1187 95.304 34.4337 94.4407 34.4337C93.5773 34.4337 92.901 34.1227 92.4126 33.5C91.9641 32.9316 91.7403 32.2018 91.7403 31.3113C91.7403 30.4079 91.9641 29.6717 92.4126 29.1033C92.9082 28.4678 93.5837 28.1497 94.4407 28.1497C95.2433 28.1497 95.9027 28.4406 96.4184 29.0226C96.9268 29.5918 97.181 30.3512 97.181 31.3017C97.181 32.1914 96.95 32.9212 96.4887 33.4896ZM97.0907 27.4973C96.2745 26.5804 95.2505 26.1216 94.0194 26.1216C92.6133 26.1216 91.4829 26.6508 90.626 27.7076C89.8298 28.7052 89.4316 29.9163 89.4316 31.3416C89.4316 32.8069 89.8593 34.0284 90.7163 35.0061C91.566 35.9693 92.6572 36.4514 93.989 36.4514C95.1601 36.4514 96.1937 35.9933 97.0907 35.0764V36.441C97.0907 38.469 96.2641 39.4827 94.6109 39.4827C93.714 39.4827 93.0321 39.1781 92.5637 38.5698C92.3622 38.3084 92.2183 37.9366 92.132 37.4554H89.8633C89.9968 38.7328 90.4988 39.7337 91.3686 40.4563C92.2119 41.159 93.2863 41.5107 94.591 41.5107C96.137 41.5107 97.3513 41.0023 98.2354 39.9847C98.703 39.4563 99.018 38.824 99.1787 38.0877C99.2322 37.8199 99.2738 37.5106 99.3042 37.1588C99.3345 36.8079 99.3489 36.401 99.3489 35.939V26.3926H97.0907V27.4973Z" fill="white"/>
<path d="M100.635 36.1699H102.893V20.3699H100.635V36.1699Z" fill="white"/>
<path d="M107.01 29.2144C107.151 28.9938 107.32 28.8043 107.517 28.6477C107.715 28.4902 107.934 28.3695 108.174 28.2855C108.416 28.2024 108.673 28.16 108.947 28.16C110.152 28.16 110.911 28.7628 111.226 29.9675H106.689C106.763 29.6861 106.87 29.4351 107.01 29.2144ZM110.493 34.0332C110.126 34.301 109.66 34.4345 109.098 34.4345C108.376 34.4345 107.783 34.2003 107.321 33.7318C106.859 33.257 106.599 32.6175 106.539 31.8141H113.545L113.555 31.2825C113.555 29.6693 113.14 28.4078 112.31 27.4981C111.473 26.5812 110.336 26.1224 108.898 26.1224C107.472 26.1224 106.328 26.5948 105.464 27.5381C104.607 28.495 104.18 29.7468 104.18 31.2921C104.18 32.8517 104.621 34.1035 105.504 35.0468C106.388 35.9837 107.559 36.4521 109.018 36.4521C109.526 36.4521 109.998 36.3986 110.433 36.2915C110.868 36.1843 111.273 36.0157 111.648 35.7847C112.023 35.5536 112.374 35.2595 112.702 34.9013C113.03 34.5432 113.341 34.1131 113.636 33.6111L111.728 32.5471C111.266 33.2698 110.855 33.7654 110.493 34.0332Z" fill="white"/>
<path d="M122.54 27.7075H121.667V22.8288H122.439C124.654 22.8288 125.762 23.629 125.762 25.2286C125.762 26.8818 124.688 27.7075 122.54 27.7075ZM124.919 20.9422C124.256 20.7616 123.276 20.6713 121.978 20.6713H119.328V36.1699H121.667V29.8763H122.751C124.364 29.8763 125.645 29.4614 126.595 28.6316C127.546 27.8019 128.021 26.6771 128.021 25.2582C128.021 23.9336 127.575 22.836 126.686 21.9663C126.177 21.4643 125.588 21.1229 124.919 20.9422Z" fill="white"/>
<path d="M129.131 36.1699H131.389V20.6713H129.131V36.1699Z" fill="white"/>
<path d="M139.536 33.5711C139.021 34.1467 138.345 34.4345 137.509 34.4345C136.726 34.4345 136.076 34.1371 135.561 33.5408C135.06 32.9524 134.809 32.189 134.809 31.2521C134.809 30.3759 135.066 29.6397 135.582 29.0442C136.104 28.455 136.752 28.16 137.529 28.16C138.352 28.16 139.021 28.4518 139.536 29.0338C140.052 29.6293 140.309 30.3855 140.309 31.3024C140.309 32.2194 140.052 32.9756 139.536 33.5711ZM140.169 27.5277C139.265 26.5908 138.244 26.1224 137.107 26.1224C135.789 26.1224 134.691 26.6108 133.814 27.5885C132.938 28.5653 132.5 29.7868 132.5 31.2521C132.5 32.7446 132.938 33.9892 133.814 34.9861C134.698 35.9637 135.816 36.4521 137.168 36.4521C138.238 36.4521 139.239 36.0173 140.169 35.1467V36.1708H142.437V26.3934H140.169V27.5277Z" fill="white"/>
<path d="M151.95 26.393L149.16 32.0152L146.168 26.393H143.549L147.945 34.3534L144.131 41.4912H146.71L154.501 26.393H151.95Z" fill="white"/>
<path d="M54.003 11.3419H57.2501V11.6017C57.2501 12.1916 57.1805 12.7144 57.0414 13.1693C56.9055 13.5898 56.6761 13.9831 56.354 14.3492C55.6249 15.171 54.6968 15.5811 53.5705 15.5811C52.4713 15.5811 51.5296 15.1838 50.7462 14.39C49.962 13.593 49.5703 12.6361 49.5703 11.5201C49.5703 10.3802 49.9692 9.41292 50.7662 8.61912C51.5632 7.82213 52.5337 7.42323 53.6776 7.42323C54.2915 7.42323 54.8647 7.54873 55.3971 7.79974C55.9063 8.05075 56.4067 8.45844 56.8984 9.02122L56.0542 9.83021C55.4091 8.97246 54.6241 8.54318 53.6976 8.54318C52.8662 8.54318 52.1691 8.82936 51.6064 9.40333C51.0428 9.9661 50.7614 10.672 50.7614 11.5201C50.7614 12.3955 51.0748 13.1165 51.7031 13.6833C52.2899 14.2085 52.9262 14.4715 53.6113 14.4715C54.1948 14.4715 54.7192 14.2748 55.1837 13.8815C55.6481 13.4842 55.9079 13.0094 55.9623 12.4562H54.003V11.3419Z" fill="white"/>
<path d="M62.8086 8.68777H59.6582V10.5759H62.7166V11.6903H59.6582V14.3163H62.8086V15.4307H58.4727V7.57342H62.8086V8.68777Z" fill="white"/>
<path d="M67.0234 8.68777V15.4307H65.8379V8.68777H64.0312V7.57342H68.8252V8.68777H67.0234Z" fill="white"/>
<path d="M73.9433 7.57439V15.4316H72.7578V7.57439H73.9433Z" fill="white"/>
<path d="M78.1191 8.68875V15.4316H76.9336V8.68875H75.127V7.57439H79.9209V8.68875H78.1191Z" fill="white"/>
<path d="M83.9713 11.4831C83.9713 12.352 84.2631 13.0659 84.8466 13.6255C85.4262 14.1859 86.0961 14.4656 86.8563 14.4656C87.6805 14.4656 88.3767 14.1803 88.9427 13.6103C89.5095 13.0339 89.7925 12.3313 89.7925 11.5039C89.7925 10.6653 89.5127 9.96345 88.9531 9.39668C88.3967 8.82671 87.7077 8.54212 86.8867 8.54212C86.0697 8.54212 85.379 8.82671 84.8154 9.39668C84.2527 9.96025 83.9713 10.6557 83.9713 11.4831ZM82.7754 11.4679C82.7754 10.3623 83.1807 9.41186 83.9913 8.61806C84.7987 7.82427 85.7691 7.42697 86.9019 7.42697C88.0218 7.42697 88.9819 7.82746 89.7829 8.62845C90.5871 9.42865 90.9884 10.3911 90.9884 11.5143C90.9884 12.6438 90.5847 13.6023 89.7773 14.3889C88.9667 15.1795 87.9883 15.5752 86.8411 15.5752C85.8267 15.5752 84.9162 15.2235 84.108 14.5216C83.2198 13.7446 82.7754 12.727 82.7754 11.4679Z" fill="white"/>
<path d="M96.7584 13.0351V7.57439H97.9439V15.4316H96.7584L93.1523 9.931V15.4316H91.9668V7.57439H93.1523L96.7584 13.0351Z" fill="white"/>
</svg>
