<svg width="182" height="54" viewBox="0 0 182 54" fill="none" xmlns="http://www.w3.org/2000/svg">
<rect x="0.0742188" y="0.0688477" width="180.959" height="53.4952" rx="10" fill="white"/>
<path d="M34.478 34.6653L18.4114 43.8873C15.9635 45.2914 13.0099 44.037 12.1194 41.6109L26.7707 26.9596L34.478 34.6653Z" fill="#EA4335"/>
<path d="M26.7708 26.9595L12.1195 41.6108C11.948 41.1442 11.854 40.6332 11.854 40.09V13.8664C11.854 13.3119 11.9524 12.7922 12.13 12.3178L26.7708 26.9595Z" fill="#4285F4"/>
<path d="M34.4671 19.2635L26.7711 26.9596L12.1302 12.3179C13.0312 9.91096 15.97 8.67051 18.4074 10.0668L34.4671 19.2635Z" fill="#34A853"/>
<path d="M41.2821 30.761L34.4783 34.6652L26.771 26.9596L34.467 19.2635L41.2778 23.1642C44.2131 24.846 44.2148 29.0783 41.2821 30.761Z" fill="#FBBC04"/>
<path d="M63.8438 33.3273H68.0519C67.9352 34.5155 67.3781 35.5357 66.3796 36.388C65.3812 37.2332 64.2547 37.6563 63.0021 37.6563C61.5292 37.6563 60.1634 37.0913 58.903 35.9614C57.5546 34.7445 56.8799 33.1959 56.8799 31.3156C56.8799 29.4945 57.4849 27.9781 58.6949 26.769C59.9048 25.5373 61.4021 24.9209 63.1875 24.9209C65.1774 24.9209 66.8644 25.8428 68.2485 27.6865L70.0635 25.949C69.0067 24.739 67.9317 23.8642 66.8383 23.3253C65.6945 22.7865 64.4628 22.5166 63.144 22.5166C60.6883 22.5166 58.6035 23.3732 56.8912 25.0855C55.179 26.7908 54.3224 28.8678 54.3224 31.3156C54.3224 33.7138 55.1642 35.769 56.8477 37.4813C58.5312 39.1866 60.5534 40.0388 62.9142 40.0388C65.3333 40.0388 67.3267 39.157 68.8936 37.3934C69.5856 36.6065 70.0775 35.7612 70.3691 34.8576C70.6685 33.8809 70.8174 32.7589 70.8174 31.4906V30.9334H63.8438V33.3273Z" fill="black"/>
<path d="M80.1973 36.9014C79.621 37.5212 78.8524 37.8311 77.8905 37.8311C76.9356 37.8311 76.1669 37.5178 75.5837 36.891C75.0153 36.2712 74.7315 35.4294 74.7315 34.3657C74.7315 33.3751 75.0231 32.5655 75.6055 31.9388C76.1887 31.312 76.9504 30.9986 77.8905 30.9986C78.8454 30.9986 79.6141 31.312 80.1973 31.9388C80.7727 32.5585 81.0609 33.3855 81.0609 34.4205C81.0609 35.4556 80.7727 36.2825 80.1973 36.9014ZM77.8905 28.7797C76.3088 28.7797 74.9682 29.3194 73.8679 30.398C72.7676 31.4765 72.2175 32.7849 72.2175 34.3222C72.2175 35.9543 72.7563 37.3097 73.8349 38.3882C74.9134 39.4816 76.2505 40.0283 77.847 40.0283C79.4574 40.0283 80.8162 39.492 81.9244 38.4213C83.0247 37.3428 83.5748 36.0057 83.5748 34.4092C83.5748 32.8284 83.0282 31.4948 81.9348 30.4084C80.8276 29.3229 79.4792 28.7797 77.8905 28.7797Z" fill="black"/>
<path d="M92.953 36.9014C92.3777 37.5212 91.609 37.8311 90.6462 37.8311C89.6913 37.8311 88.9227 37.5178 88.3403 36.891C87.7719 36.2712 87.4872 35.4294 87.4872 34.3657C87.4872 33.3751 87.7788 32.5655 88.3621 31.9388C88.9453 31.312 89.7061 30.9986 90.6462 30.9986C91.6012 30.9986 92.3698 31.312 92.953 31.9388C93.5284 32.5585 93.8166 33.3855 93.8166 34.4205C93.8166 35.4556 93.5284 36.2825 92.953 36.9014ZM90.6462 28.7797C89.0654 28.7797 87.724 29.3194 86.6237 30.398C85.5234 31.4765 84.9733 32.7849 84.9733 34.3222C84.9733 35.9543 85.5121 37.3097 86.5915 38.3882C87.67 39.4816 89.0071 40.0283 90.6027 40.0283C92.2131 40.0283 93.572 39.492 94.6802 38.4213C95.7805 37.3428 96.3306 36.0057 96.3306 34.4092C96.3306 32.8284 95.7839 31.4948 94.6915 30.4084C93.5833 29.3229 92.2349 28.7797 90.6462 28.7797Z" fill="black"/>
<path d="M105.414 36.8031C104.868 37.4881 104.125 37.8311 103.185 37.8311C102.245 37.8311 101.508 37.4916 100.977 36.8144C100.488 36.1946 100.244 35.4007 100.244 34.431C100.244 33.4473 100.488 32.6456 100.977 32.0267C101.516 31.3337 102.252 30.9882 103.185 30.9882C104.059 30.9882 104.777 31.305 105.339 31.9387C105.892 32.5585 106.169 33.3855 106.169 34.4205C106.169 35.3894 105.917 36.1841 105.414 36.8031ZM106.071 30.277C105.182 29.2794 104.067 28.7797 102.725 28.7797C101.195 28.7797 99.9633 29.356 99.031 30.5068C98.164 31.5932 97.7305 32.9119 97.7305 34.464C97.7305 36.0597 98.1961 37.3898 99.1293 38.4535C100.055 39.5033 101.243 40.0282 102.693 40.0282C103.968 40.0282 105.094 39.5286 106.071 38.5301V40.0169C106.071 42.2254 105.171 43.3292 103.37 43.3292C102.394 43.3292 101.65 42.9975 101.141 42.3342C100.922 42.0504 100.765 41.6456 100.67 41.1207H98.2005C98.3459 42.5126 98.8926 43.6025 99.8396 44.3894C100.758 45.1546 101.928 45.5376 103.349 45.5376C105.032 45.5376 106.354 44.9831 107.317 43.8758C107.826 43.2996 108.169 42.611 108.344 41.8101C108.403 41.5185 108.448 41.1816 108.481 40.7986C108.514 40.4165 108.53 39.9734 108.53 39.4702V29.0748H106.071V30.277Z" fill="black"/>
<path d="M109.929 39.722H112.388V22.5167H109.929V39.722Z" fill="black"/>
<path d="M116.871 32.1468C117.024 31.9065 117.208 31.7002 117.423 31.5287C117.638 31.3581 117.876 31.2267 118.138 31.1353C118.401 31.0448 118.681 30.9986 118.98 30.9986C120.292 30.9986 121.119 31.655 121.462 32.9668H116.521C116.601 32.6604 116.717 32.3871 116.871 32.1468ZM120.663 37.3933C120.263 37.6849 119.756 37.8311 119.144 37.8311C118.357 37.8311 117.712 37.5761 117.209 37.066C116.706 36.548 116.422 35.8525 116.356 34.9776H123.986L123.997 34.3988C123.997 32.6421 123.546 31.2685 122.642 30.277C121.731 29.2794 120.492 28.7797 118.925 28.7797C117.373 28.7797 116.127 29.2933 115.187 30.3214C114.254 31.3634 113.788 32.7257 113.788 34.4092C113.788 36.1076 114.269 37.4699 115.231 38.4979C116.193 39.5182 117.468 40.0283 119.056 40.0283C119.61 40.0283 120.124 39.9699 120.598 39.8533C121.072 39.7366 121.512 39.5521 121.92 39.3014C122.329 39.0498 122.711 38.7295 123.069 38.3395C123.425 37.9495 123.764 37.4812 124.085 36.9345L122.008 35.7759C121.505 36.5628 121.057 37.1025 120.663 37.3933Z" fill="black"/>
<path d="M133.782 30.5069H132.83V25.1943H133.672C136.084 25.1943 137.291 26.0657 137.291 27.8075C137.291 29.6068 136.121 30.5069 133.782 30.5069ZM136.373 23.1391C135.651 22.9423 134.584 22.844 133.17 22.844H130.284V39.722H132.83V32.8686H134.012C135.768 32.8686 137.163 32.4168 138.198 31.5124C139.233 30.6097 139.75 29.3849 139.75 27.8397C139.75 26.3973 139.265 25.2021 138.296 24.2542C137.743 23.7075 137.101 23.3358 136.373 23.1391Z" fill="black"/>
<path d="M140.961 39.722H143.42V22.844H140.961V39.722Z" fill="black"/>
<path d="M152.291 36.891C151.73 37.5178 150.994 37.8311 150.083 37.8311C149.231 37.8311 148.524 37.5064 147.962 36.8579C147.416 36.2172 147.143 35.3859 147.143 34.3657C147.143 33.4108 147.423 32.609 147.984 31.9605C148.552 31.3198 149.259 30.9986 150.105 30.9986C151.001 30.9986 151.73 31.3155 152.291 31.9501C152.852 32.5986 153.133 33.4221 153.133 34.4205C153.133 35.419 152.852 36.2425 152.291 36.891ZM152.98 30.3101C151.996 29.2898 150.885 28.7797 149.646 28.7797C148.21 28.7797 147.015 29.3116 146.06 30.3753C145.105 31.44 144.628 32.7701 144.628 34.3657C144.628 35.9909 145.105 37.3463 146.06 38.4318C147.022 39.4964 148.239 40.0283 149.711 40.0283C150.878 40.0283 151.967 39.5547 152.98 38.6067V39.7218H155.45V29.0748H152.98V30.3101Z" fill="black"/>
<path d="M165.81 29.075L162.771 35.1963L159.513 29.075H156.66L161.448 37.7433L157.294 45.516H160.103L168.586 29.075H165.81Z" fill="black"/>
<path d="M59.1493 12.6853H62.6853V12.9682C62.6853 13.6107 62.6095 14.18 62.4572 14.6744C62.31 15.1332 62.0602 15.5615 61.7094 15.9601C60.9155 16.855 59.9049 17.3016 58.6783 17.3016C57.4814 17.3016 56.456 16.8689 55.6029 16.0045C54.7489 15.1367 54.3224 14.0947 54.3224 12.8795C54.3224 11.6381 54.7568 10.5848 55.6247 9.72044C56.4925 8.85256 57.5493 8.41818 58.7941 8.41818C59.4636 8.41818 60.0877 8.55485 60.6674 8.82818C61.2219 9.10152 61.7669 9.54547 62.3022 10.1583L61.3821 11.0392C60.6805 10.1043 59.8256 9.63774 58.8167 9.63774C57.9114 9.63774 57.1524 9.94937 56.5387 10.5744C55.9259 11.1872 55.6194 11.9559 55.6194 12.8795C55.6194 13.8327 55.9607 14.6178 56.644 15.2342C57.2838 15.8069 57.9759 16.0933 58.7227 16.0933C59.3582 16.0933 59.9284 15.8792 60.435 15.4509C60.9408 15.0183 61.2237 14.5012 61.2829 13.8988H59.1493V12.6853Z" fill="black"/>
<path d="M68.7374 9.79532H65.3076V11.8514H68.6382V13.0649H65.3076V15.9245H68.7374V17.1379H64.0167V8.58186H68.7374V9.79532Z" fill="black"/>
<path d="M73.3292 9.79532V17.1379H72.0383V9.79532H70.0701V8.58186H75.2905V9.79532H73.3292Z" fill="black"/>
<path d="M80.8652 8.5827V17.1388H79.5742V8.5827H80.8652Z" fill="black"/>
<path d="M85.4112 9.79618V17.1388H84.1203V9.79618H82.153V8.5827H87.3733V9.79618H85.4112Z" fill="black"/>
<path d="M91.7835 12.8385C91.7835 13.7838 92.1012 14.562 92.7367 15.1714C93.3686 15.7807 94.0981 16.0863 94.926 16.0863C95.8234 16.0863 96.5808 15.7755 97.1979 15.1548C97.8151 14.5272 98.1233 13.762 98.1233 12.8602C98.1233 11.9479 97.8187 11.1836 97.2093 10.5665C96.6034 9.9458 95.8531 9.63503 94.9591 9.63503C94.0686 9.63503 93.3173 9.9458 92.7036 10.5665C92.0908 11.1793 91.7835 11.9366 91.7835 12.8385ZM90.4812 12.8219C90.4812 11.6171 90.9234 10.583 91.8061 9.7186C92.6853 8.85419 93.7421 8.42156 94.9756 8.42156C96.1952 8.42156 97.2406 8.85767 98.1129 9.72991C98.9877 10.6013 99.4255 11.6494 99.4255 12.8715C99.4255 14.1024 98.9859 15.1461 98.1067 16.0027C97.2241 16.8636 96.1577 17.2936 94.9094 17.2936C93.8048 17.2936 92.8124 16.9115 91.9332 16.1472C90.9652 15.3011 90.4812 14.1929 90.4812 12.8219Z" fill="black"/>
<path d="M105.708 14.5291V8.5827H106.999V17.1388H105.708L101.781 11.1481V17.1388H100.489V8.5827H101.781L105.708 14.5291Z" fill="black"/>
</svg>
