<svg width="1334" height="320" viewBox="0 0 1334 320" fill="none" xmlns="http://www.w3.org/2000/svg">
<path d="M137.643 268.009C119.25 267.807 105.91 263.663 97.6231 255.579C89.5384 247.494 85.496 235.569 85.496 219.804V217.378H83.677C80.6452 230.112 75.9965 239.106 69.7308 244.361C63.6673 249.414 54.8751 251.94 43.3544 251.94C29.2061 251.94 18.3927 248.201 10.9144 240.723C3.6381 233.042 -2.5689e-05 222.229 -2.5689e-05 208.283C-2.5689e-05 193.124 4.34552 180.593 13.0366 170.689C21.9298 160.785 34.5622 151.589 50.9338 143.1L83.9801 126.122V109.75H115.814V210.405C115.814 217.075 117.33 221.724 120.361 224.351C123.595 226.979 128.951 228.293 136.43 228.293H145.828V259.823L137.643 268.009ZM51.8433 212.224C63.7683 212.224 72.0552 210.91 76.7039 208.283C81.5547 205.655 83.9801 201.007 83.9801 194.337V155.53L59.1196 167.96C48.2052 173.215 40.2215 177.864 35.1686 181.906C30.1156 185.949 27.5891 191.002 27.5891 197.065C27.5891 202.522 29.3071 206.464 32.7431 208.889C36.3813 211.112 42.748 212.224 51.8433 212.224ZM97.6231 85.1927C92.7723 85.1927 88.7299 83.7779 85.496 80.9483C82.4643 77.9165 80.9484 73.1667 80.9484 66.6989C80.9484 60.029 82.4643 55.2792 85.496 52.4496C88.7299 49.4178 92.7723 47.9019 97.6231 47.9019H102.777C107.628 47.9019 111.569 49.4178 114.601 52.4496C117.835 55.2792 119.452 60.029 119.452 66.6989C119.452 73.1667 117.835 77.9165 114.601 80.9483C111.569 83.7779 107.628 85.1927 102.777 85.1927H97.6231ZM52.4497 85.1927C47.5988 85.1927 43.5565 83.7779 40.3226 80.9483C37.2908 77.9165 35.7749 73.1667 35.7749 66.6989C35.7749 60.029 37.2908 55.2792 40.3226 52.4496C43.5565 49.4178 47.5988 47.9019 52.4497 47.9019H57.6037C62.4545 47.9019 66.3958 49.4178 69.4276 52.4496C72.6615 55.2792 74.2785 60.029 74.2785 66.6989C74.2785 73.1667 72.6615 77.9165 69.4276 80.9483C66.3958 83.7779 62.4545 85.1927 57.6037 85.1927H52.4497ZM137.543 236.478L145.729 228.293H178.169V259.823L169.983 268.009H137.543V236.478ZM170.111 236.478L178.297 228.293H210.737V259.823L202.551 268.009H170.111V236.478ZM202.679 236.478L210.865 228.293H243.305V259.823L235.119 268.009H202.679V236.478ZM235.247 236.478L243.433 228.293H275.873V259.823L267.687 268.009H235.247V236.478ZM267.815 236.478L276 228.293H308.44V259.823L300.255 268.009H267.815V236.478ZM300.383 236.478L308.568 228.293H341.008V259.823L332.823 268.009H300.383V236.478ZM332.95 236.478L341.136 228.293H373.576V259.823L365.39 268.009H332.95V236.478ZM408.873 250.728C404.224 257.195 398.565 261.743 391.895 264.371C385.225 266.796 376.433 268.009 365.518 268.009V236.478L373.704 228.293C381.385 228.293 386.943 226.878 390.379 224.048C393.815 221.218 396.847 216.368 399.474 209.496L407.963 188.273C410.389 182.007 413.218 176.146 416.452 170.689C419.686 165.232 423.425 160.583 427.67 156.743C431.914 152.7 436.765 149.567 442.222 147.344C447.679 145.121 453.945 144.009 461.019 144.009C478.604 144.009 492.044 151.285 501.342 165.838C510.639 180.39 515.288 200.501 515.288 226.17V236.782L489.821 274.679L408.873 250.728ZM424.032 214.043L486.486 232.537V226.17C486.486 212.83 483.555 202.522 477.694 195.246C472.035 187.768 464.354 184.029 454.653 184.029C447.578 184.029 441.818 185.949 437.371 189.789C432.925 193.629 429.388 199.187 426.76 206.464L424.032 214.043ZM541.326 228.596L594.988 179.178L522.226 106.415L545.873 82.161L619.849 156.136C624.902 151.083 628.338 146.03 630.157 140.977C632.178 135.722 633.189 128.648 633.189 119.755V43.6574H665.325V119.755C665.325 125.819 664.82 131.276 663.809 136.127C663.001 140.775 661.586 145.323 659.565 149.77C657.544 154.014 654.815 158.157 651.379 162.2C647.943 166.242 643.699 170.487 638.646 174.933L651.986 187.97C656.028 192.012 659.363 195.751 661.99 199.187C664.82 202.624 667.043 206.06 668.66 209.496C670.479 212.729 671.692 216.064 672.298 219.5C673.107 222.936 673.511 226.575 673.511 230.415C673.511 235.67 672.602 240.622 670.783 245.27C668.964 249.717 666.336 253.658 662.9 257.094C659.666 260.53 655.725 263.259 651.076 265.28C646.427 267.099 641.273 268.009 635.614 268.009H541.326V228.596ZM613.179 197.065L578.92 227.08L579.223 228.293H644.709L613.179 197.065ZM537.081 46.0829H549.208L549.512 44.8701C545.671 40.4235 543.751 35.0674 543.751 28.8017C543.751 20.5149 546.682 13.6429 552.543 8.18566C558.607 2.72847 566.186 -0.000131387 575.282 -0.000131387C580.739 -0.000131387 586.095 1.21258 591.35 3.63801C596.807 6.06343 601.254 9.29732 604.69 13.3397L591.047 31.8335C586.398 26.9827 581.143 24.5573 575.282 24.5573C571.846 24.5573 569.016 25.4668 566.793 27.2859C564.569 28.9028 563.458 30.924 563.458 33.3494C563.458 40.6257 570.532 44.2638 584.68 44.2638H606.206V68.8212H537.081V46.0829ZM704.575 43.6574H737.015V268.009H704.575V43.6574ZM875.47 268.009C863.343 268.009 853.944 264.876 847.274 258.61C840.605 252.143 837.27 242.239 837.27 228.899V207.676H868.194V228.293H915.489C923.978 228.293 929.84 226.676 933.074 223.442C936.51 220.208 938.228 215.761 938.228 210.102C938.228 204.645 935.802 198.682 930.951 192.214C926.101 185.545 917.915 176.651 906.394 165.535L875.773 135.52L903.362 106.415L929.739 133.701C936.813 140.977 942.775 147.849 947.626 154.317C952.477 160.583 956.418 166.748 959.45 172.811C962.482 178.875 964.604 185.039 965.817 191.305C967.232 197.368 967.939 203.836 967.939 210.708C967.939 228.697 963.088 242.744 953.387 252.85C943.887 262.956 930.244 268.009 912.458 268.009H875.47ZM998.574 43.6574H1031.01V268.009H998.574V43.6574ZM1097.82 268.009C1085.69 268.009 1076.29 264.876 1069.62 258.61C1062.95 252.143 1059.62 242.239 1059.62 228.899V207.676H1090.54V228.293H1137.84C1146.33 228.293 1152.19 226.676 1155.42 223.442C1158.86 220.208 1160.58 215.761 1160.58 210.102C1160.58 204.645 1158.15 198.682 1153.3 192.214C1148.45 185.545 1140.26 176.651 1128.74 165.535L1098.12 135.52L1125.71 106.415L1152.09 133.701C1159.16 140.977 1165.13 147.849 1169.98 154.317C1174.83 160.583 1178.77 166.748 1181.8 172.811C1184.83 178.875 1186.95 185.039 1188.17 191.305C1189.58 197.368 1190.29 203.836 1190.29 210.708C1190.29 228.697 1185.44 242.744 1175.74 252.85C1166.24 262.956 1152.59 268.009 1134.81 268.009H1097.82ZM1210.92 301.055H1230.93C1256.8 301.055 1275.8 296.204 1287.93 286.503C1300.05 277.003 1306.12 264.27 1306.12 248.302V240.723H1304.3C1301.47 250.02 1296.62 256.993 1289.75 261.642C1283.08 266.089 1274.79 268.312 1264.88 268.312C1248.51 268.312 1235.78 263.663 1226.68 254.366C1217.59 245.068 1213.04 232.032 1213.04 215.256C1213.04 205.15 1214.56 195.751 1217.59 187.06C1220.62 178.369 1224.76 170.79 1230.02 164.322C1235.48 157.854 1241.84 152.801 1249.12 149.163C1256.6 145.525 1264.68 143.706 1273.37 143.706C1292.37 143.706 1307.23 151.589 1317.94 167.354C1328.65 183.119 1334.01 205.049 1334.01 233.143C1334.01 250.121 1331.89 265.179 1327.64 278.317C1323.4 291.657 1317.03 302.975 1308.54 312.273C1300.05 321.57 1289.44 328.644 1276.71 333.495C1264.18 338.346 1249.62 340.771 1233.05 340.771H1210.92V301.055ZM1273.37 228.293C1281.66 228.293 1288.33 227.888 1293.38 227.08C1298.64 226.069 1302.78 224.452 1305.81 222.229C1305.41 210.506 1301.87 201.108 1295.2 194.033C1288.53 186.959 1280.14 183.422 1270.04 183.422C1261.35 183.422 1254.27 185.949 1248.82 191.002C1243.56 196.055 1240.93 202.421 1240.93 210.102C1240.93 216.57 1243.16 221.218 1247.6 224.048C1252.05 226.878 1258.52 228.293 1267.01 228.293H1273.37Z" fill="url(#paint0_linear_1973_9893)"/>
<defs>
<linearGradient id="paint0_linear_1973_9893" x1="695.461" y1="371.866" x2="695.461" y2="6.72418" gradientUnits="userSpaceOnUse">
<stop stop-color="#180707"/>
<stop offset="1" stop-color="#D81B1B"/>
</linearGradient>
</defs>
</svg>
