<svg width="1314" height="295" viewBox="0 0 1314 295" fill="none" xmlns="http://www.w3.org/2000/svg">
<path d="M131.28 45.8859H93.1333V10.2008H131.28V45.8859ZM73.445 45.8859H35.2988V10.2008H73.445V45.8859ZM200.189 244H156.813C132.202 244 114.975 231.387 105.131 206.161C97.4402 218.159 82.6739 224.619 61.4474 224.619C24.5317 224.619 0.844177 192.626 0.844177 150.173C0.844177 104.336 23.9165 74.8032 64.5237 74.8032C64.5237 74.4956 91.9028 74.4956 146.661 74.4956V171.399C146.661 191.703 157.12 202.778 178.039 202.778H200.189V244ZM102.362 146.789V106.182H74.0602C56.5253 106.182 43.6048 125.562 43.6048 149.557C43.6048 171.092 55.91 188.934 73.1374 188.934C91.2876 188.934 102.362 172.014 102.362 146.789ZM372.803 200.316C372.803 241.539 345.116 270.456 302.048 270.456C275.9 270.456 256.211 261.535 243.598 244H188.225V202.778H230.985C230.985 158.786 256.211 130.792 300.51 130.792C344.809 130.792 372.803 158.171 372.803 200.316ZM330.042 201.855C330.042 177.552 320.814 165.247 302.663 165.247H299.587C283.898 165.247 273.131 179.705 273.131 200.009C273.131 220.928 283.59 235.386 302.048 235.386C318.968 235.386 330.042 221.851 330.042 201.855ZM559.636 193.549C559.636 208.622 554.714 220.62 544.562 230.157C534.41 239.386 521.797 244 506.723 244H404.59V202.778H450.427L411.666 66.4972H457.195L495.341 202.778C509.8 202.47 517.183 192.01 517.183 171.399V45.8859H559.636V193.549ZM459.348 48.347H404.282V32.6578H416.28C415.357 29.8891 415.049 27.1205 415.049 24.6594C415.049 10.8161 424.894 0.0489817 438.122 0.0489817C447.966 0.0489817 454.734 4.97108 458.733 14.5076L444.89 20.9679C443.659 16.661 441.506 14.5076 438.122 14.5076C433.507 14.5076 431.046 17.5839 431.046 23.7365C431.046 28.351 432.584 31.4273 435.353 32.3502H459.348V48.347ZM634.212 244H591.144V45.5783H634.212V244ZM885.219 244H730.481V202.778H842.151C842.151 159.709 818.771 140.636 764.013 140.636V104.643C791.085 104.643 810.158 106.489 821.54 110.488C863.378 125.255 885.219 156.018 885.219 202.47V244ZM959.568 244H916.499V45.5783H959.568V244ZM1147.49 244H992.748V202.778H1104.42C1104.42 159.709 1081.04 140.636 1026.28 140.636V104.643C1053.35 104.643 1072.42 106.489 1083.81 110.488C1125.64 125.255 1147.49 156.018 1147.49 202.47V244ZM1313.82 237.847C1313.82 275.686 1290.44 294.759 1243.37 294.759H1239.06V260.304H1241.83C1259.06 260.304 1275.98 248.307 1275.98 231.695C1270.13 241.231 1259.98 245.846 1245.52 245.846C1205.84 245.846 1176.31 215.698 1176.31 174.475C1176.31 132.33 1205.22 104.028 1245.52 104.028C1285.21 104.028 1313.82 134.484 1313.82 175.091V237.847ZM1270.75 175.091C1270.75 156.325 1259.98 143.097 1244.6 143.097C1229.53 143.097 1219.37 156.018 1219.37 174.168C1219.37 191.395 1229.22 205.854 1246.14 205.854C1261.52 205.854 1270.75 193.856 1270.75 175.091Z" fill="url(#paint0_linear_1016_5347)"/>
<defs>
<linearGradient id="paint0_linear_1016_5347" x1="684.5" y1="244" x2="684.5" y2="20" gradientUnits="userSpaceOnUse">
<stop stop-color="#180707"/>
<stop offset="1" stop-color="#D81B1B"/>
</linearGradient>
</defs>
</svg>
