<svg width="29" height="29" viewBox="0 0 29 29" fill="none" xmlns="http://www.w3.org/2000/svg">
<path d="M14.0734 6.91914C10.0868 6.91914 6.87115 10.1355 6.87115 14.123C6.87115 18.1105 10.0868 21.3269 14.0734 21.3269C18.06 21.3269 21.2757 18.1105 21.2757 14.123C21.2757 10.1355 18.06 6.91914 14.0734 6.91914ZM14.0734 18.8064C11.4971 18.8064 9.39099 16.7061 9.39099 14.123C9.39099 11.5399 11.4909 9.43955 14.0734 9.43955C16.6559 9.43955 18.7558 11.5399 18.7558 14.123C18.7558 16.7061 16.6497 18.8064 14.0734 18.8064ZM23.2502 6.62446C23.2502 7.55865 22.498 8.30474 21.5703 8.30474C20.6363 8.30474 19.8904 7.55238 19.8904 6.62446C19.8904 5.69655 20.6426 4.94419 21.5703 4.94419C22.498 4.94419 23.2502 5.69655 23.2502 6.62446ZM28.0203 8.32982C27.9138 6.079 27.3998 4.08525 25.7512 2.44259C24.1089 0.799934 22.1156 0.28582 19.8653 0.172966C17.546 0.0413029 10.5945 0.0413029 8.27524 0.172966C6.0312 0.279551 4.03788 0.793664 2.38933 2.43632C0.74077 4.07898 0.233039 6.07273 0.12021 8.32355C-0.0114241 10.6433 -0.0114241 17.5964 0.12021 19.9162C0.226771 22.167 0.74077 24.1608 2.38933 25.8034C4.03788 27.4461 6.02493 27.9602 8.27524 28.073C10.5945 28.2047 17.546 28.2047 19.8653 28.073C22.1156 27.9664 24.1089 27.4523 25.7512 25.8034C27.3935 24.1608 27.9075 22.167 28.0203 19.9162C28.152 17.5964 28.152 10.6496 28.0203 8.32982ZM25.0241 22.4052C24.5352 23.6341 23.5886 24.5808 22.3538 25.0761C20.5047 25.8097 16.1169 25.6404 14.0734 25.6404C12.0299 25.6404 7.63588 25.8034 5.793 25.0761C4.56442 24.5871 3.61791 23.6404 3.12272 22.4052C2.38933 20.5557 2.55857 16.1669 2.55857 14.123C2.55857 12.0791 2.3956 7.68404 3.12272 5.84075C3.61164 4.6119 4.55815 3.66518 5.793 3.16987C7.64214 2.43632 12.0299 2.6056 14.0734 2.6056C16.1169 2.6056 20.5109 2.44259 22.3538 3.16987C23.5824 3.65891 24.5289 4.60563 25.0241 5.84075C25.7575 7.69031 25.5882 12.0791 25.5882 14.123C25.5882 16.1669 25.7575 20.562 25.0241 22.4052Z" fill="#E6E6E6"/>
</svg>
