<svg width="29" height="36" viewBox="0 0 29 36" fill="none" xmlns="http://www.w3.org/2000/svg">
<path d="M6.61048 11.6077C6.76154 11.9473 7.56668 12.4459 7.92418 12.9155C8.0697 13.1021 8.12559 13.2948 8.12559 13.459C8.12559 13.8837 7.7847 13.9572 7.4549 14.0479C6.90706 14.2121 6.31441 14.2799 6.00122 14.2289C5.72176 14.1841 5.29679 13.9403 5.33606 13.3739C4.98964 13.5268 4.79931 13.9852 4.87181 14.3987C4.99467 15.0728 5.66587 15.0952 6.23032 15.0728C6.83405 15.0498 7.54452 14.9142 8.03596 14.7271C8.82448 14.4217 9.13214 13.7532 9.0702 13.2265C9.01431 12.7906 8.67896 12.5413 8.29276 12.1563C8.05258 11.907 8.3265 11.7713 8.16436 11.6128C8.02438 11.4654 7.76154 11.2676 7.57725 11.1427C7.43727 11.0407 7.25298 10.9505 7.07423 10.9617C6.9126 10.9734 6.52086 11.4093 6.61048 11.6077Z" fill="white"/>
<path d="M22.5535 7.31141C24.8248 9.40702 26.2541 12.4004 26.2541 15.7213C26.2541 22.0245 21.1131 27.1648 14.808 27.1648C8.50793 27.1648 3.36696 22.025 3.36696 15.7213C3.36696 12.4004 4.7906 9.40753 7.0675 7.31141C3.40665 9.80274 0.999489 13.9935 0.999489 18.732C0.999489 26.3347 7.20285 32.5356 14.8075 32.5356C22.4116 32.5356 28.621 26.3342 28.621 18.732C28.6215 13.9935 26.2093 9.79664 22.5535 7.31141ZM9.77384 30.7965C9.54233 30.7965 9.35001 30.6043 9.35001 30.3728C9.35001 30.1414 9.54233 29.9491 9.77384 29.9491C10.0053 29.9491 10.1977 30.1414 10.1977 30.3728C10.1972 30.6043 10.0053 30.7965 9.77384 30.7965ZM11.1863 27.7294L10.8245 27.7182L7.89787 29.1587L8.01134 29.4583L7.77373 29.7798L6.35009 28.7009L6.5648 28.4242L6.89247 28.3622L7.07361 26.6394L5.40676 27.1536L5.41236 27.4303L5.14117 27.645L3.96074 26.233L4.19784 25.9675L4.49193 26.0687L5.29991 23.8154L5.24903 23.3413L5.46884 23.0758L6.67216 24.3973L6.48034 24.6399L6.13028 24.6455L5.62148 26.0351L7.72386 25.3739L8.36801 25.8032L8.136 27.9441L9.79165 27.1587L9.74586 26.9212L9.8985 26.6557L11.3618 27.3444L11.1863 27.7294ZM16.8244 31.971L16.7338 31.6658L16.892 31.4685L16.0444 30.4685L14.8354 31.1012L13.7054 30.4181L12.9656 31.3215L13.1009 31.4685L13.0215 31.8072L11.4229 31.4176L11.5297 31.0275L11.8742 31.0219L14.1684 28.294L13.9593 28.0458L13.9649 27.7121L15.9589 27.7177L15.9645 27.9664L15.7894 28.1582L18.2973 31.1063H18.5853L18.6871 31.4908L16.8244 31.971ZM20.0563 30.8642C19.8248 30.8642 19.6386 30.6719 19.6386 30.4405C19.6386 30.2085 19.8248 30.0168 20.0563 30.0168C20.2939 30.0168 20.4801 30.209 20.4801 30.4405C20.4801 30.6719 20.2934 30.8642 20.0563 30.8642ZM26.1187 25.7864C25.7687 26.4476 25.2827 27.3174 24.7398 27.9049C24.0392 28.6556 22.9036 29.2599 21.831 29.1134C21.2489 29.0341 20.8587 28.9659 20.328 29.0738C20.503 28.6785 20.4633 27.9781 20.5086 27.4863C20.588 26.645 20.8872 26.0743 21.3675 25.555C22.0966 24.7696 22.7179 24.3403 23.6836 23.911L23.5986 23.617L23.7797 23.38L24.7912 24.1475L24.5709 24.3907C24.0229 24.5377 23.0343 25.0911 22.6212 25.4695C22.0167 26.0285 21.514 26.9771 22.0284 27.5473C22.3108 27.8698 22.7117 27.8362 23.13 27.6887C23.7461 27.4746 24.5938 26.7345 25.0004 26.0285C25.1978 25.6786 25.3051 25.3225 25.2598 24.9944L25.4573 24.707L26.5593 25.4863L26.3782 25.763L26.1187 25.7864Z" fill="white"/>
<path d="M14.1857 29.8507L14.8721 30.2961L15.5928 29.9078L14.8487 29.0453L14.1857 29.8507Z" fill="white"/>
<path d="M14.8325 19.0736C14.7081 18.7637 14.4984 18.4543 14.3285 18.291C14.0229 17.9922 13.598 17.9978 13.2409 18.1444C12.465 18.4599 11.6773 19.0852 11.06 19.6371C10.8447 19.4286 10.5162 19.0345 10.2953 18.8149C9.92699 18.432 9.69487 18.4827 9.42297 18.6851C9.08882 18.9442 8.8113 19.1583 8.48277 19.4454C8.23382 19.665 7.95018 19.986 7.88233 20.2843C7.83692 20.4983 7.90477 20.7402 8.38635 20.9096C9.46837 21.287 9.38879 21.7095 9.01536 21.9966C8.77151 22.1878 7.76907 22.1147 7.12884 21.8221C6.59064 21.5741 6.18864 21.1293 6.29628 20.4425C6.43759 19.5245 6.55697 19.0685 6.60237 18.6065C6.12641 18.5725 5.84889 18.6176 5.62799 18.471C5.32191 18.2682 5.23161 17.7894 5.29385 16.6406C5.24845 16.956 5.06734 17.2771 4.89747 17.5926C4.77299 17.8289 4.69341 18.184 4.80666 18.5273C5.06173 19.282 5.59994 19.3662 6.00193 19.5017C5.96214 20.0986 5.7642 20.8026 5.84889 21.4447C5.91674 21.9403 6.27384 22.5038 6.85132 22.729C7.75224 23.0896 8.88476 23.3538 9.45153 22.7178C9.81986 22.3009 9.95556 21.9519 9.94433 21.6588C9.92189 21.0111 9.28727 20.6677 8.89649 20.2787C8.65265 20.0312 8.76641 19.699 9.12861 19.4565C9.45714 19.2313 9.68365 19.2481 9.98413 19.4788C10.177 19.631 10.4091 19.9181 10.6585 20.2675C10.5902 20.442 10.5565 20.6728 10.5397 20.8138C10.7381 20.6672 10.8396 20.5997 10.9815 20.5379C11.2365 20.6449 11.5763 20.6616 11.9558 20.656C12.5165 20.6505 13.1511 20.5713 13.5592 20.4871C14.3168 20.3238 15.1891 19.9972 14.8325 19.0736ZM11.5523 19.8679C11.9206 19.4793 13.4557 18.2291 13.9143 18.7246C14.2428 19.068 14.2882 19.2541 14.1974 19.4286C14.1127 19.5864 13.801 19.7157 13.5118 19.7948C12.8328 19.9805 11.9319 19.9576 11.5523 19.8679Z" fill="white"/>
<path d="M9.21041 10.6999L8.8691 11.0494C8.91951 11.2211 9.10403 11.4372 9.35056 11.4817L9.70296 11.1048C9.51289 11.0324 9.28905 10.8327 9.21041 10.6999Z" fill="white"/>
<path d="M9.69265 17.4996C9.69265 18.0395 9.98461 17.7189 10.4331 17.3532L10.2988 12.3705C10.2988 11.9598 9.91743 12.2297 9.54718 12.4774L9.69265 17.4996Z" fill="white"/>
<path d="M8.70125 15.9073C8.57491 15.7896 8.31601 15.7557 8.30462 15.7557C8.44236 16.2606 8.29893 17.0238 7.87899 17.5798C8.32171 17.3776 8.97154 16.7266 8.70125 15.9073Z" fill="white"/>
<path d="M10.3286 22.6866C10.3342 22.7035 10.4126 22.9489 10.5464 23.0516C11.3168 22.8919 11.8921 22.2934 12.0485 21.9571C11.3279 22.4756 10.7249 22.7436 10.3286 22.6866Z" fill="white"/>
<path d="M10.8654 15.0045C11.0873 16.173 13.3864 15.6988 14.0696 15.4106C14.7584 15.1174 15.3047 14.632 15.2191 13.9265C15.1679 13.4919 14.9972 13.187 14.7241 12.9049C14.4847 12.6508 14.7353 12.4424 14.5703 12.2838C14.3827 12.0922 13.8533 11.5616 13.5858 11.646C13.432 11.6968 13.0507 12.1542 13.1476 12.295C13.3413 12.5771 14.0353 13.0116 14.4109 13.4803C14.5529 13.6663 14.6385 13.9148 14.6385 14.0841C14.6385 14.6482 13.2896 14.8627 12.8288 14.9135C12.3737 14.97 11.8786 14.9471 11.5937 14.6935C11.4287 14.5527 11.3318 14.2874 11.3831 13.864C11.0304 14.0221 10.7855 14.5923 10.8654 15.0045Z" fill="white"/>
<path d="M15.0705 9.73826C14.4572 10.0127 13.1508 10.3487 13.1334 9.46938C12.6618 9.67671 12.4346 10.4501 12.8096 10.8304C13.1559 11.1836 14.1329 10.9646 14.8941 10.6846C15.5304 10.4496 16.8875 9.78265 16.7857 8.96491C16.7345 8.53359 16.4562 8.3767 16.0076 7.98473C15.7125 7.7214 16.002 7.65431 15.8373 7.49187C15.6726 7.32943 15.2808 7.0888 15.048 7.10545C14.8889 7.111 14.4685 7.6992 14.6219 7.8112C14.9738 8.05233 15.3263 8.25361 15.667 8.50585C16.2803 8.95432 15.5877 9.50872 15.0705 9.73826Z" fill="white"/>
<path d="M16.6074 6.73872C16.613 6.72769 16.8642 6.48794 16.8411 6.32092C16.3618 5.63026 15.5804 5.75315 15.227 5.97584C15.8311 5.97584 16.2991 6.33245 16.6074 6.73872Z" fill="white"/>
<path d="M10.7452 11.0031C10.5504 10.9258 10.328 10.728 10.2504 10.5956L9.91136 10.9426C9.95594 11.1131 10.1447 11.3332 10.3952 11.3773L10.7452 11.0031Z" fill="white"/>
<path d="M19.1362 10.0057C19.1757 10.1775 19.3556 10.3969 19.5861 10.4385L19.9179 10.0655C19.7381 9.98864 19.5243 9.78693 19.4508 9.65673L19.1362 10.0057Z" fill="white"/>
<path d="M9.64758 10.2785C10.5588 10.2277 11.3558 9.84912 11.9711 9.15972C12.2157 8.88854 12.3865 8.58327 12.3865 8.2897C12.3865 8.10908 12.2614 7.93355 12.0963 7.85469C11.7947 7.70765 11.3388 7.67967 11.265 7.48735C11.1168 7.10322 11.8173 6.89411 12.0732 6.8997C12.6255 6.92209 12.8988 7.32912 13.1039 7.31792C13.1778 7.31233 13.2747 7.27824 13.406 7.09202C13.8557 6.42552 12.6942 6.09226 12.2157 6.11465C11.5322 6.14314 11.1055 6.41381 10.7578 6.75877C10.3876 7.12611 9.89219 7.88878 10.5471 8.20524C10.7353 8.29581 11.2245 8.31819 11.2245 8.59497C11.2245 8.71352 11.1332 8.85496 10.9911 8.97351C10.7747 9.14293 10.1542 9.31236 9.60758 9.31236C9.08964 9.31795 8.6394 9.17651 8.64504 8.7476C8.65632 8.19965 8.83888 7.94525 9.20297 7.3917C8.58247 7.66848 7.643 8.47642 7.93325 9.35204C8.1271 9.92798 8.84503 10.3294 9.64758 10.2785Z" fill="white"/>
<path d="M18.8456 12.5992C19.7401 12.7403 20.9982 12.3739 21.4428 11.4442C21.6193 11.0722 21.6193 10.582 21.6362 10.3282C21.6819 9.61271 20.8674 10.2496 20.8561 10.379C20.8335 10.6606 20.9418 11.0549 20.7079 11.3427C20.4458 11.6695 19.8652 11.7147 19.3867 11.7035C18.9425 11.6979 18.2307 11.6472 18.0881 11.1006C18.0086 10.8022 18.0768 10.4018 18.1055 9.93445L18.2707 6.76224C18.3045 6.35068 17.8716 6.57041 17.4731 6.79015L17.2736 10.6221C17.1936 11.3706 17.4444 12.385 18.8456 12.5992Z" fill="white"/>
<path d="M9.86013 24.5111C10.1034 24.8524 10.8775 25.4557 11.7702 25.5013C11.9005 25.3588 11.8099 25.0518 11.8099 25.0344C11.3691 25.1313 10.7528 24.8975 9.86013 24.5111Z" fill="white"/>
<path d="M11.4231 17.5844C11.4728 17.7722 11.6602 18.0011 11.9034 18.0482L12.2569 17.649C12.0635 17.5723 11.8373 17.3555 11.7602 17.2143L11.4231 17.5844Z" fill="white"/>
<path d="M23.6706 16.0326C23.4861 15.9609 23.28 15.7783 23.2071 15.6514L22.8889 15.9774C22.9336 16.1376 23.1121 16.3422 23.3409 16.381L23.6706 16.0326Z" fill="white"/>
<path d="M18.0942 22.023C17.9097 21.9563 17.7036 21.7666 17.6307 21.6442L17.3125 21.9673C17.3572 22.1289 17.5357 22.3352 17.7649 22.3738L18.0942 22.023Z" fill="white"/>
<path d="M19.0843 21.8666C18.8998 21.7998 18.6937 21.6101 18.6208 21.4877L18.3026 21.8109C18.3473 21.9724 18.5202 22.1787 18.7545 22.2173L19.0843 21.8666Z" fill="white"/>
<path d="M19.2369 9.24062C19.5796 8.89485 20.1304 8.66757 20.8559 8.44694C20.5015 8.35041 19.5518 8.40148 18.9276 8.89485C18.9226 9.07054 19.2258 9.22938 19.2369 9.24062Z" fill="white"/>
<path d="M22.2341 14.5437C21.7491 15.0808 20.7226 15.1485 19.9384 15.1597C19.9496 15.0125 19.944 14.8715 19.9105 14.73C19.7469 13.95 19.1491 13.3508 18.85 13.4129C18.3142 13.526 17.7504 14.2606 17.5193 14.7753C17.339 15.1709 17.9139 15.68 18.145 15.793C18.4046 15.9228 18.7261 16.0246 19.0755 16.0924C18.5574 16.9497 17.5198 17.3341 16.4969 17.4038L16.5822 11.5471C16.6559 10.8572 16.0464 11.4452 15.6629 11.7731L15.7183 17.3962C15.0179 17.3386 14.3414 17.1594 13.8188 16.9909C14.2134 17.5413 14.9417 18.0045 15.7254 18.139L15.7422 19.8231C15.7478 20.3546 15.8605 21.2139 16.9997 21.1966C17.9698 21.1854 18.7875 20.8856 19.0923 20.292C19.2837 19.9132 19.267 19.4158 18.9399 18.8054C18.7875 18.5116 18.4152 18.9072 18.4772 19.0487C18.5676 19.2804 18.5844 19.4331 18.5564 19.6479C18.5001 20.0043 18.3081 20.2757 17.4228 20.2757C16.4695 20.2757 16.4756 19.9422 16.4695 19.2636L16.4857 18.1619C17.722 18.0341 19.0085 17.1661 19.6052 16.1652C20.7333 16.267 22.0076 16.0297 22.6282 15.3002C22.933 14.9443 23.192 14.062 23.1417 13.1294C23.5704 13.7566 23.9594 14.5258 24.1174 15.2605C24.3206 16.1876 24.1794 17.1823 23.4465 17.8442C23.2743 17.9969 23.0762 18.1792 22.8273 18.3899C22.6968 17.9613 22.5455 17.5357 22.3804 17.1095C22.0645 16.2899 21.9461 16.3408 21.5063 16.5948C21.2808 16.7303 21.0436 16.9339 20.745 17.1885C20.4971 17.4033 20.4798 17.7765 20.5083 18.1608C20.5459 18.7697 20.588 19.3608 20.6205 19.9661C20.1101 20.3011 19.9059 20.463 20.1136 20.49C20.327 20.5165 20.489 20.5348 20.6474 20.5195C20.6525 20.6443 20.6571 20.77 20.6612 20.8973C20.6779 21.5698 20.8303 22.418 19.9902 22.5987C19.3701 22.7285 18.7215 22.7738 17.9485 22.8701C17.3451 22.949 16.8093 23.3165 16.4029 23.6617C15.3597 24.5323 14.6888 25.8157 13.8762 25.8437C13.3403 25.8661 12.7821 25.3575 12.7821 24.1988C12.128 25.1656 12.5846 26.1889 13.2672 26.528C14.412 27.0819 15.3145 25.5668 16.0307 24.6962C16.7641 23.8032 17.8692 23.8542 19.3355 23.6673C20.3788 23.5314 20.6835 23.2264 20.971 22.7911C21.2417 22.39 21.3204 21.7454 21.3377 21.078C21.3443 20.8016 21.3372 20.5236 21.3255 20.2451C21.7608 19.9824 22.16 19.7294 22.5211 19.4845C22.6095 19.7864 22.6877 20.0975 22.7481 20.3938C22.9172 21.2526 22.8949 21.8972 22.3423 22.6038C21.6602 23.4688 20.4529 24.0339 19.2121 24.571C20.4981 24.8138 22.1843 23.9662 22.9122 22.7789C23.2164 22.2871 23.3012 21.6767 23.29 21.0546C23.2738 20.3892 23.1783 19.7513 23.029 19.1256C24.1113 18.3283 24.765 17.5998 24.9422 16.8316C25.3424 15.0731 24.1976 12.7954 23.6166 11.1556C23.3236 10.3303 23.1092 9.7988 22.8441 9.87211C22.6806 9.91742 22.4439 10.2056 22.0599 10.7259C21.9248 10.9066 21.9583 11.1388 22.0487 11.3419C22.3357 11.9487 22.8096 13.9103 22.2341 14.5437ZM18.3878 14.4871C18.5006 14.3176 18.7037 14.1481 18.8505 14.1649C19.0933 14.1817 19.3752 14.6511 19.3696 15.1485C18.7885 15.1032 18.1455 14.8715 18.3878 14.4871ZM21.2884 19.5339C21.264 19.0828 21.2427 18.6333 21.2584 18.1899C21.2696 17.9638 21.326 17.8111 21.5236 17.6981C21.7328 17.5764 22.035 18.0982 22.3006 18.8166C22.0193 19.0329 21.6871 19.2722 21.2884 19.5339Z" fill="white"/>
<path d="M12.8525 0.0461598L13.3378 1.02938C13.35 1.05379 13.3728 1.07058 13.3998 1.07465L14.4848 1.23233C14.5524 1.24199 14.5794 1.32541 14.5305 1.37322L13.7457 2.13874C13.7264 2.15756 13.7172 2.18502 13.7218 2.21198L13.9069 3.29235C13.9186 3.36 13.8474 3.41137 13.7869 3.37933L12.8164 2.86915C12.7925 2.85644 12.7635 2.85644 12.7396 2.86915L11.7691 3.37933C11.7086 3.41137 11.6378 3.35949 11.649 3.29235L11.8342 2.21198C11.8388 2.18502 11.8301 2.15807 11.8103 2.13874L11.0254 1.37322C10.9766 1.32541 11.0036 1.24199 11.0712 1.23233L12.1562 1.07465C12.1831 1.07058 12.2065 1.05379 12.2182 1.02938L12.7035 0.0461598C12.735 -0.0153866 12.8225 -0.0153866 12.8525 0.0461598Z" fill="white"/>
<path d="M17.0735 0.0461598L17.5588 1.02938C17.571 1.05379 17.5939 1.07058 17.6208 1.07465L18.7058 1.23233C18.7734 1.24199 18.8004 1.32541 18.7515 1.37322L17.9667 2.13874C17.9474 2.15756 17.9382 2.18502 17.9428 2.21198L18.1279 3.29235C18.1396 3.36 18.0684 3.41137 18.0079 3.37933L17.0374 2.86915C17.0135 2.85644 16.9845 2.85644 16.9606 2.86915L15.9901 3.37933C15.9296 3.41137 15.8589 3.35949 15.8701 3.29235L16.0552 2.21198C16.0598 2.18502 16.0511 2.15807 16.0313 2.13874L15.2464 1.37322C15.1976 1.32541 15.2246 1.24199 15.2922 1.23233L16.3772 1.07465C16.4041 1.07058 16.4275 1.05379 16.4392 1.02938L16.9245 0.0461598C16.9555 -0.0153866 17.0435 -0.0153866 17.0735 0.0461598Z" fill="white"/>
<path d="M14.8765 34.2095L15.0611 34.5833C15.0688 34.5986 15.083 34.6087 15.0993 34.6113L15.5118 34.6713C15.5535 34.6774 15.5703 34.7288 15.5403 34.7583L15.2417 35.0492C15.2295 35.0609 15.2244 35.0777 15.2269 35.0945L15.2977 35.5055C15.3048 35.5472 15.261 35.5787 15.2239 35.5594L14.8551 35.3656C14.8404 35.358 14.8226 35.358 14.8078 35.3656L14.4391 35.5594C14.4014 35.5792 14.3582 35.5472 14.3653 35.5055L14.436 35.0945C14.4391 35.0777 14.4335 35.0609 14.4212 35.0492L14.1227 34.7583C14.0927 34.7288 14.1089 34.6774 14.1512 34.6713L14.5637 34.6113C14.5805 34.6087 14.5947 34.5986 14.6018 34.5833L14.7865 34.2095C14.8038 34.1713 14.8577 34.1713 14.8765 34.2095Z" fill="white"/>
<path d="M16.8224 34.2094L17.0071 34.5833C17.0147 34.5985 17.0289 34.6087 17.0452 34.6113L17.4577 34.6713C17.4994 34.6774 17.5162 34.7287 17.4862 34.7583L17.1876 35.0492C17.1754 35.0609 17.1703 35.0777 17.1729 35.0945L17.2436 35.5055C17.2507 35.5472 17.207 35.5787 17.1698 35.5594L16.8011 35.3656C16.7863 35.3579 16.7685 35.3579 16.7538 35.3656L16.385 35.5594C16.3473 35.5792 16.3041 35.5472 16.3112 35.5055L16.3819 35.0945C16.385 35.0777 16.3794 35.0609 16.3672 35.0492L16.0686 34.7583C16.0386 34.7287 16.0549 34.6774 16.0971 34.6713L16.5096 34.6113C16.5264 34.6087 16.5406 34.5985 16.5478 34.5833L16.7324 34.2094C16.7497 34.1713 16.8036 34.1713 16.8224 34.2094Z" fill="white"/>
<path d="M6.49014 11.5538C6.64274 11.8925 7.45607 12.39 7.81772 12.8585C7.96472 13.0446 8.02118 13.2369 8.02118 13.4007C8.02118 13.8244 7.67682 13.8976 7.34366 13.9882C6.79025 14.1519 6.19157 14.2196 5.87519 14.1687C5.59289 14.124 5.16359 13.8808 5.20327 13.3157C4.85332 13.4683 4.66105 13.9256 4.73429 14.3381C4.8584 15.0105 5.53643 15.0329 6.10662 15.0105C6.71649 14.9877 7.43369 14.8524 7.93064 14.6657C8.72718 14.361 9.03796 13.6942 8.9754 13.1692C8.91894 12.7343 8.58018 12.4856 8.19005 12.1016C7.94742 11.8529 8.22413 11.7176 8.06034 11.5594C7.91894 11.4124 7.65342 11.215 7.46726 11.0904C7.32585 10.9887 7.13969 10.8986 6.95912 10.9098C6.79533 10.921 6.40011 11.3559 6.49014 11.5538Z" fill="white"/>
<path d="M22.4589 7.25583C24.7296 9.35146 26.1583 12.3449 26.1583 15.6658C26.1583 21.969 21.019 27.1094 14.7158 27.1094C8.41772 27.1089 3.27834 21.969 3.27834 15.6658C3.27834 12.3449 4.70154 9.35197 6.97774 7.25583C3.31801 9.74668 0.912109 13.9374 0.912109 18.6765C0.912109 26.2793 7.11354 32.4802 14.7158 32.4802C22.3175 32.4802 28.5251 26.2788 28.5251 18.6765C28.5256 13.9374 26.1136 9.74109 22.4589 7.25583ZM9.68323 30.7406C9.4518 30.7406 9.25953 30.5483 9.25953 30.3169C9.25953 30.0855 9.4518 29.8932 9.68323 29.8932C9.91467 29.8932 10.1069 30.0855 10.1069 30.3169C10.1069 30.5483 9.91467 30.7406 9.68323 30.7406ZM11.0952 27.674L10.7336 27.6628L7.80785 29.1033L7.92128 29.4029L7.68374 29.7243L6.26054 28.6455L6.47519 28.3688L6.80276 28.3067L6.98384 26.5839L5.31751 27.0982L5.3231 27.3749L5.05199 27.5895L3.87193 26.1775L4.10896 25.912L4.40296 26.0132L5.21069 23.7599L5.15983 23.2859L5.37956 23.0204L6.58252 24.3418L6.39076 24.5845L6.04081 24.59L5.53216 25.9797L7.63389 25.3184L8.27784 25.7477L8.0459 27.8886L9.70104 27.1033L9.65526 26.8657L9.80785 26.6002L11.2707 27.2889L11.0952 27.674ZM16.7321 31.9156L16.6415 31.6104L16.7997 31.413L15.9523 30.413L14.7438 31.0458L13.6141 30.3627L12.8745 31.266L13.0098 31.413L12.9304 31.7518L11.3323 31.3622L11.4391 30.972L11.7834 30.9665L14.0769 28.2386L13.8679 27.9904L13.8735 27.6567L15.8669 27.6623L15.8725 27.911L15.6975 28.1028L18.2046 31.0509H18.4925L18.5942 31.4354L16.7321 31.9156ZM19.9625 30.8083C19.7311 30.8083 19.5449 30.616 19.5449 30.3846C19.5449 30.1526 19.7311 29.9609 19.9625 29.9609C20.2 29.9609 20.3862 30.1531 20.3862 30.3846C20.3862 30.6165 20.2 30.8083 19.9625 30.8083ZM26.023 25.7304C25.6731 26.3917 25.1873 27.2615 24.6446 27.849C23.9442 28.5997 22.8089 29.204 21.7367 29.0575C21.1548 28.9782 20.7646 28.91 20.2341 29.0178C20.4091 28.6226 20.3694 27.9222 20.4147 27.4303C20.494 26.589 20.7931 26.0183 21.2733 25.499C22.0022 24.7136 22.6232 24.2843 23.5887 23.855L23.5037 23.561L23.6848 23.324L24.696 24.0916L24.4757 24.3347C23.9279 24.4817 22.9396 25.0351 22.5266 25.4135C21.9223 25.9725 21.4198 26.9212 21.934 27.4914C22.2163 27.8139 22.6171 27.7803 23.0352 27.6328C23.6512 27.4186 24.4986 26.6786 24.905 25.9726C25.1024 25.6226 25.2097 25.2665 25.1644 24.9385L25.3618 24.6511L26.4635 25.4303L26.2825 25.707L26.023 25.7304Z" fill="white"/>
<path d="M14.0871 29.7974L14.7595 30.2384L15.4656 29.8539L14.7367 29.0009L14.0871 29.7974Z" fill="white"/>
<path d="M14.7137 19.0194C14.5896 18.7086 14.3806 18.3983 14.2112 18.2345C13.9065 17.9349 13.4828 17.9405 13.1267 18.0875C12.3531 18.4039 11.5677 19.0311 10.9523 19.5845C10.7376 19.3754 10.41 18.9802 10.1898 18.76C9.82256 18.3759 9.59112 18.4268 9.32001 18.6298C8.98685 18.8897 8.71014 19.1043 8.38258 19.3922C8.13436 19.6125 7.85155 19.9344 7.7839 20.2335C7.73863 20.4482 7.80628 20.6908 8.28644 20.8607C9.36528 21.2391 9.28593 21.6628 8.9136 21.9507C8.67047 22.1425 7.67098 22.0692 7.03262 21.7757C6.496 21.527 6.09518 21.0809 6.20251 20.3922C6.34341 19.4716 6.46243 19.0143 6.5077 18.5509C6.03313 18.5168 5.75642 18.5621 5.53618 18.4151C5.23099 18.2116 5.14096 17.7315 5.20302 16.5794C5.15775 16.8958 4.97718 17.2178 4.8078 17.5341C4.68369 17.7712 4.60434 18.1272 4.71726 18.4716C4.97158 19.2284 5.5082 19.3129 5.90902 19.4487C5.86935 20.0474 5.67199 20.7534 5.75643 21.3973C5.82408 21.8943 6.18013 22.4594 6.75592 22.6852C7.65419 23.0469 8.78339 23.3119 9.3485 22.674C9.71574 22.2559 9.85104 21.906 9.83985 21.612C9.81747 20.9624 9.18471 20.6181 8.79509 20.2279C8.55195 19.9797 8.66538 19.6465 9.02652 19.4034C9.35409 19.1776 9.57993 19.1944 9.87953 19.4258C10.0718 19.5784 10.3032 19.8663 10.552 20.2167C10.4838 20.3917 10.4502 20.6231 10.4334 20.7646C10.6313 20.6176 10.7325 20.5499 10.8739 20.4878C11.1283 20.5952 11.467 20.612 11.8454 20.6064C12.4045 20.6008 13.0372 20.5214 13.4441 20.437C14.2 20.2732 15.0693 19.9451 14.7137 19.0194ZM11.4436 19.8154C11.8109 19.4258 13.3414 18.172 13.7987 18.6689C14.1262 19.0133 14.1715 19.2 14.081 19.3749C13.9965 19.5331 13.6857 19.6628 13.3973 19.7422C12.7198 19.9283 11.8221 19.906 11.4436 19.8154Z" fill="white"/>
<path d="M9.11676 10.6388L8.7724 10.9948C8.82327 11.1698 9.00943 11.39 9.25816 11.4353L9.61371 11.0513C9.42144 10.9775 9.1956 10.7746 9.11676 10.6388Z" fill="white"/>
<path d="M9.56344 17.4558C9.56344 17.998 9.85744 17.676 10.3091 17.3088L10.1738 12.3047C10.1738 11.8922 9.78979 12.1633 9.41695 12.412L9.56344 17.4558Z" fill="white"/>
<path d="M8.56954 15.8509C8.44543 15.7323 8.19111 15.6983 8.17992 15.6983C8.31522 16.2064 8.17432 16.9745 7.76181 17.534C8.1967 17.3305 8.83505 16.6759 8.56954 15.8509Z" fill="white"/>
<path d="M10.218 22.6243C10.2236 22.6411 10.3029 22.8843 10.4382 22.986C11.2175 22.8278 11.7994 22.2347 11.9576 21.9016C11.2292 22.4153 10.6188 22.6808 10.218 22.6243Z" fill="white"/>
<path d="M10.7601 14.9702C10.9803 16.1395 13.2621 15.665 13.9402 15.3766C14.6238 15.0831 15.166 14.5973 15.081 13.8913C15.0302 13.4564 14.8608 13.1512 14.5897 12.8689C14.3527 12.6146 14.6009 12.4061 14.4371 12.2474C14.2509 12.0556 13.7255 11.5246 13.46 11.609C13.3074 11.6599 12.929 12.1172 13.0251 12.2586C13.2174 12.5409 13.9061 12.9758 14.2789 13.4447C14.4198 13.6309 14.5048 13.8796 14.5048 14.049C14.5048 14.6136 13.166 14.8283 12.7087 14.8791C12.257 14.9356 11.7657 14.9127 11.4829 14.6589C11.3191 14.518 11.223 14.2525 11.2738 13.8288C10.9239 13.9875 10.6812 14.5577 10.7601 14.9702Z" fill="white"/>
<path d="M14.9629 9.6952C14.353 9.97191 13.0539 10.3107 13.0366 9.42409C12.5676 9.63315 12.3418 10.4129 12.7146 10.7964C13.059 11.1525 14.0305 10.9317 14.7874 10.6494C15.4201 10.4124 16.7696 9.73996 16.6684 8.91545C16.6175 8.48055 16.3408 8.32236 15.8947 7.92714C15.6012 7.66163 15.8891 7.59398 15.7253 7.43019C15.5615 7.26641 15.1719 7.02378 14.9405 7.04057C14.7823 7.04616 14.3642 7.63925 14.5168 7.75217C14.8667 7.9953 15.2172 8.19825 15.5559 8.45258C16.1658 8.90425 15.4766 9.46377 14.9629 9.6952Z" fill="white"/>
<path d="M16.4989 6.70199C16.5045 6.6908 16.7532 6.44766 16.7303 6.27828C16.2558 5.57788 15.4821 5.70249 15.1322 5.92833C15.7309 5.92782 16.1937 6.28947 16.4989 6.70199Z" fill="white"/>
<path d="M10.6532 10.9432C10.4553 10.8639 10.2295 10.6609 10.1506 10.5251L9.80628 10.8812C9.85155 11.0562 10.0433 11.282 10.2976 11.3273L10.6532 10.9432Z" fill="white"/>
<path d="M19.0004 9.95617C19.0401 10.12 19.2206 10.329 19.4521 10.3687L19.7852 10.0131C19.6047 9.93989 19.39 9.74763 19.3162 9.62352L19.0004 9.95617Z" fill="white"/>
<path d="M9.54627 10.1976C10.4501 10.1468 11.2406 9.76834 11.851 9.07912C12.0936 8.80801 12.263 8.50282 12.263 8.20933C12.263 8.02876 12.1388 7.85328 11.9751 7.77444C11.676 7.62744 11.2238 7.59946 11.1505 7.40719C11.0035 7.02316 11.6984 6.81411 11.9527 6.81971C12.5005 6.84209 12.7716 7.249 12.9751 7.23781C13.0483 7.23222 13.1444 7.19814 13.2747 7.01197C13.7207 6.34565 12.5687 6.01248 12.0941 6.03486C11.4161 6.06335 10.9929 6.33395 10.648 6.67881C10.2808 7.04605 9.7894 7.80852 10.4389 8.1249C10.6256 8.21544 11.1109 8.23782 11.1109 8.51452C11.1109 8.63303 11.0203 8.77444 10.8794 8.89295C10.6648 9.06233 10.0493 9.23171 9.5071 9.23171C8.99337 9.23731 8.54677 9.0959 8.55237 8.66711C8.56356 8.1193 8.74464 7.86498 9.10578 7.31157C8.49031 7.58827 7.55847 8.39601 7.84636 9.27139C8.03813 9.84769 8.74972 10.2485 9.54627 10.1976Z" fill="white"/>
<path d="M18.7301 12.5465C19.6172 12.6879 20.8649 12.3207 21.3059 11.3888C21.4809 11.016 21.4809 10.5246 21.4977 10.2703C21.5429 9.5531 20.7352 10.1915 20.724 10.3212C20.7016 10.6035 20.8089 10.9987 20.577 11.2871C20.3171 11.6147 19.7413 11.6599 19.2667 11.6487C18.8262 11.6431 18.1202 11.5923 17.9788 11.0445C17.9 10.7454 17.9676 10.344 17.9961 9.87558L18.1599 6.69602C18.1935 6.28351 17.7642 6.50376 17.369 6.724L17.1711 10.5648C17.0923 11.3156 17.3405 12.3318 18.7301 12.5465Z" fill="white"/>
<path d="M9.73829 24.4481C9.98143 24.7868 10.7551 25.3855 11.6472 25.4308C11.7775 25.2894 11.6869 24.9847 11.6869 24.9674C11.2464 25.0635 10.631 24.8321 9.73829 24.4481Z" fill="white"/>
<path d="M11.2854 17.5353C11.3363 17.7159 11.528 17.9361 11.7767 17.9814L12.1384 17.5973C11.9405 17.5236 11.7091 17.315 11.6303 17.1792L11.2854 17.5353Z" fill="white"/>
<path d="M23.5534 15.9705C23.3667 15.8973 23.1581 15.7106 23.0844 15.5809L22.7624 15.9141C22.8077 16.0779 22.9882 16.2869 23.2197 16.3266L23.5534 15.9705Z" fill="white"/>
<path d="M17.9965 21.9689C17.8098 21.9013 17.6013 21.709 17.5275 21.5849L17.2055 21.9124C17.2508 22.0762 17.4314 22.2853 17.6633 22.3244L17.9965 21.9689Z" fill="white"/>
<path d="M18.9558 21.8161C18.7692 21.7485 18.5606 21.5562 18.4869 21.4321L18.1649 21.7597C18.2102 21.9235 18.3851 22.1325 18.6222 22.1717L18.9558 21.8161Z" fill="white"/>
<path d="M19.1082 9.19841C19.4525 8.85405 20.006 8.62771 20.7348 8.40797C20.3788 8.31184 19.4246 8.3627 18.7974 8.85405C18.7918 9.02852 19.097 9.18671 19.1082 9.19841Z" fill="white"/>
<path d="M22.136 14.4969C21.6503 15.0335 20.6223 15.1012 19.8369 15.1124C19.8481 14.9654 19.8425 14.8245 19.809 14.6831C19.6452 13.9038 19.0465 13.3052 18.7469 13.3672C18.2103 13.4801 17.6457 14.2141 17.4142 14.7284C17.2337 15.1236 17.8095 15.6322 18.0409 15.7451C18.3008 15.8748 18.6228 15.9766 18.9727 16.0442C18.4539 16.9008 17.4148 17.2848 16.3903 17.3545L16.4758 11.503C16.5495 10.8138 15.9392 11.4013 15.5551 11.7289L15.6106 17.3469C14.9092 17.2894 14.2316 17.1104 13.7082 16.942C14.1035 17.4918 14.8329 17.9547 15.6177 18.089L15.6345 19.7716C15.6401 20.3026 15.753 21.1612 16.8939 21.1439C17.8654 21.1327 18.6843 20.8332 18.9895 20.2401C19.1813 19.8616 19.1645 19.3647 18.8369 18.7548C18.6843 18.4613 18.3115 18.8565 18.3736 18.9979C18.4641 19.2294 18.4809 19.382 18.4529 19.5966C18.3964 19.9527 18.2042 20.2238 17.3176 20.2238C16.3629 20.2238 16.369 19.8906 16.3629 19.2126L16.3791 18.1119C17.6172 17.9842 18.9056 17.117 19.5033 16.117C20.633 16.2187 21.9092 15.9817 22.5307 15.2528C22.8359 14.8972 23.0953 14.0157 23.045 13.0839C23.4743 13.7106 23.8639 14.4791 24.0221 15.2131C24.2255 16.1393 24.0841 17.1332 23.3502 17.7945C23.1777 17.9471 22.9794 18.1292 22.7301 18.3398C22.5994 17.9115 22.4478 17.4862 22.2825 17.0605C21.9661 16.2416 21.8476 16.2924 21.4071 16.5463C21.1813 16.6816 20.9438 16.885 20.6447 17.1393C20.3964 17.354 20.3792 17.7268 20.4076 18.1109C20.4453 18.7192 20.4875 19.3097 20.52 19.9145C20.0089 20.2492 19.8044 20.411 20.0124 20.4379C20.226 20.4644 20.3883 20.4827 20.547 20.4674C20.5521 20.5921 20.5567 20.7177 20.5607 20.8448C20.5775 21.5168 20.7301 22.3642 19.8888 22.5448C19.2678 22.6745 18.6182 22.7197 17.844 22.8159C17.2398 22.8947 16.7032 23.2619 16.2962 23.6068C15.2515 24.4766 14.5795 25.7589 13.7657 25.7869C13.2291 25.8093 12.6701 25.3011 12.6701 24.1434C12.0149 25.1094 12.4722 26.1317 13.1558 26.4705C14.3023 27.0239 15.2062 25.5102 15.9234 24.6404C16.6579 23.7482 17.7647 23.7986 19.2332 23.6124C20.2779 23.4766 20.5831 23.1719 20.871 22.737C21.1421 22.3362 21.221 21.6923 21.2383 21.0254C21.2449 20.7492 21.2378 20.4715 21.2261 20.1933C21.662 19.9308 22.0618 19.678 22.4234 19.4334C22.5119 19.735 22.5902 20.0458 22.6508 20.3418C22.8202 21.1999 22.7978 21.8438 22.2444 22.5498C21.5612 23.414 20.3522 23.9786 19.1096 24.5153C20.3975 24.7579 22.0862 23.911 22.8151 22.7248C23.1197 22.2335 23.2047 21.6236 23.1935 21.002C23.1772 20.3372 23.0816 19.6999 22.9321 19.0748C24.016 18.2782 24.6706 17.5503 24.8481 16.7828C25.2489 15.0259 24.1025 12.7502 23.5206 11.1119C23.2271 10.2874 23.0124 9.75632 22.7469 9.82957C22.5831 9.87484 22.3461 10.1627 21.9616 10.6826C21.8263 10.8631 21.8598 11.0951 21.9504 11.298C22.2378 11.9049 22.7118 13.8647 22.136 14.4969ZM18.284 14.4405C18.3969 14.2711 18.6004 14.1017 18.7474 14.1185C18.9905 14.1353 19.2728 14.6042 19.2672 15.1012C18.6848 15.0564 18.0409 14.8245 18.284 14.4405ZM21.1889 19.4827C21.1645 19.032 21.1431 18.5829 21.1589 18.1399C21.1701 17.914 21.2266 17.7614 21.4244 17.6485C21.634 17.5269 21.9366 18.0483 22.2027 18.766C21.9204 18.9822 21.5882 19.2212 21.1889 19.4827Z" fill="white"/>
<path d="M12.9321 34.2094L13.1167 34.5833C13.1244 34.5985 13.1386 34.6087 13.1549 34.6113L13.5674 34.6713C13.6091 34.6774 13.6259 34.7287 13.5959 34.7583L13.2973 35.0492C13.2851 35.0609 13.28 35.0777 13.2825 35.0945L13.3533 35.5055C13.3604 35.5472 13.3166 35.5787 13.2795 35.5594L12.9107 35.3656C12.896 35.3579 12.8782 35.3579 12.8634 35.3656L12.4947 35.5594C12.457 35.5792 12.4138 35.5472 12.4209 35.5055L12.4916 35.0945C12.4947 35.0777 12.4891 35.0609 12.4768 35.0492L12.1783 34.7583C12.1483 34.7287 12.1645 34.6774 12.2068 34.6713L12.6193 34.6113C12.6361 34.6087 12.6503 34.5985 12.6574 34.5833L12.8421 34.2094C12.8594 34.1713 12.9133 34.1713 12.9321 34.2094Z" fill="white"/>
</svg>
