<svg width="19" height="60" viewBox="0 0 19 60" fill="none" xmlns="http://www.w3.org/2000/svg">
<path d="M5.66425 2.66454V2.39017C5.89355 2.16153 6.07698 2.02435 6.21456 1.88716C6.67314 1.52134 6.99416 1.24697 7.68203 0.835417H8.41577C8.55335 0.835417 8.73678 0.835417 8.92022 0.881145C9.05779 0.881145 9.19537 0.972601 9.28709 1.01833C9.28709 1.01833 9.28709 1.01833 9.37881 1.01833V2.756C9.14951 2.756 8.92022 2.98464 8.73678 3.12182C8.59921 3.25901 8.50749 3.35046 8.36991 3.44192C8.2782 3.53338 8.18648 3.5791 8.09476 3.67056C8.09476 3.67056 8.09476 3.67056 8.00305 3.76202C8.00305 3.76202 8.00305 3.76202 7.91133 3.80775C7.77375 3.8992 7.59032 4.03639 7.54446 4.2193C7.36102 4.2193 7.22345 4.12784 7.08587 4.12784C6.9483 4.12784 6.9483 4.12784 6.90244 4.08211C6.44385 3.94493 6.21456 3.8992 5.75597 3.80775C5.75597 3.80775 5.75597 3.71629 5.75597 3.67056C5.75597 3.39619 5.75597 2.98464 5.75597 2.61881L5.66425 2.66454ZM5.29739 8.38056L5.20567 8.19765C4.79294 7.37454 4.6095 7.00871 4.42607 6.04842C4.28849 6.04842 3.96748 5.6826 3.92163 5.59114C3.92163 5.59114 3.92163 5.49969 3.92163 5.45396C3.82991 6.64289 4.0592 7.87755 4.74708 9.02075C4.88466 9.29512 5.06809 9.52376 5.25153 9.7524C5.25153 9.66094 5.25153 9.52376 5.25153 9.47803C5.25153 9.24939 5.15981 8.70065 5.25153 8.47201C5.25153 8.42629 5.25153 8.38056 5.34324 8.33483L5.29739 8.38056ZM11.259 0.423864C11.3507 0.51532 11.4424 0.606776 11.4424 0.698233C12.0845 1.01833 12.4055 1.24697 12.7723 1.61279C12.9558 1.79571 13.1851 1.97862 13.4602 2.20726C13.6437 2.1158 14.1022 2.39017 14.1481 2.39017C14.2398 2.39017 14.3315 2.52736 14.3774 2.57309C13.5519 1.47561 12.4055 0.743961 11.1673 0.378136C11.1673 0.423864 11.1673 0.423864 11.1673 0.423864H11.259ZM9.65396 2.93891C10.0208 3.0761 10.3877 3.39619 10.7546 3.67056C10.938 3.80774 11.1214 3.94493 11.3049 4.08211C11.3966 4.12784 11.4424 4.17357 11.4424 4.26503C11.6717 4.2193 11.8552 4.17357 11.9927 4.12784C12.5431 3.99066 12.8182 3.8992 13.2768 3.80775H13.3685C13.6437 3.35046 13.4602 2.48163 13.3685 2.20726C13.0934 1.97862 12.8641 1.79571 12.6806 1.61279C12.3138 1.2927 12.0386 1.01833 11.3507 0.698233H10.8463C10.4794 0.698233 10.1125 0.881145 9.79153 0.972601H9.51638V2.71027L9.6081 2.93891H9.65396ZM7.4986 9.34085C7.63618 9.56949 7.72789 9.79813 7.86547 9.98104C7.86547 9.98104 7.86547 10.0268 7.95719 10.0725C7.95719 10.0725 7.95719 10.1182 8.0489 10.164C8.0489 10.164 8.0489 10.2554 8.14062 10.2554C8.23234 10.3469 8.32406 10.4383 8.32406 10.5298C8.8285 10.6212 9.88325 10.6212 10.8004 10.5298C10.8004 10.5298 10.8004 10.4383 10.938 10.3469C10.938 10.3469 10.938 10.2554 11.0297 10.2554C11.1214 10.0725 11.259 9.93531 11.3507 9.7524C11.4424 9.61522 11.5342 9.47803 11.6259 9.34085C11.6259 9.24939 11.7176 9.15794 11.7635 9.06648V8.9293C11.7635 8.79211 11.8552 8.65493 11.901 8.6092C11.7176 8.38056 11.6259 8.24337 11.4883 8.10619C11.2132 7.78609 11.0297 7.55745 10.5711 6.73434H8.2782C8.18648 6.87153 8.09476 7.00871 8.0489 7.1459C7.81961 7.55745 7.63618 7.83182 7.40688 8.10619C7.40688 8.10619 7.40688 8.15192 7.40688 8.19765C7.31517 8.33483 7.22345 8.47201 7.08587 8.65493C7.08587 8.70065 7.08587 8.74638 7.08587 8.83784C7.17759 8.97502 7.26931 9.15794 7.36102 9.29512H7.4986V9.34085ZM4.74708 2.80173C4.8388 2.71027 4.93052 2.61881 5.06809 2.52736C5.06809 2.52736 5.3891 2.29872 5.57254 2.34445C5.80183 2.16153 5.98527 1.97862 6.1687 1.84144C6.62729 1.47561 6.9483 1.20124 7.63618 0.789689C7.72789 0.652504 7.81961 0.561048 7.91133 0.423864C7.54446 0.561048 7.17759 0.698232 6.85658 0.881145C6.85658 0.881145 6.76486 0.926873 6.719 0.972601C5.93941 1.42988 5.29739 2.07008 4.8388 2.80173H4.79294H4.74708ZM14.0564 8.88357V8.74638C14.0564 8.6092 14.0564 8.42629 13.9647 8.33483C13.9647 8.33483 13.9647 8.2891 13.873 8.2891C13.7812 8.2891 13.6895 8.33483 13.5519 8.38056C13.1392 8.51774 12.8182 8.6092 12.4972 8.65493H12.1762C12.1762 8.79211 12.0845 8.92929 11.9927 9.06648C11.9927 9.11221 11.9927 9.15794 11.9927 9.20366C11.9927 9.24939 11.9927 9.29512 11.901 9.34085C11.6717 9.79813 11.3507 10.2097 11.0756 10.5298C11.0756 10.5298 11.0756 10.5755 11.259 10.667C11.4424 10.8041 11.9927 11.2157 12.3138 11.17C12.4055 11.17 12.5889 11.1242 12.7265 11.0328C12.7265 11.0328 12.8182 10.9871 12.8641 10.9413C13.0475 10.8499 13.1851 10.7127 13.3685 10.6212C13.3685 10.5755 13.3685 10.5298 13.4602 10.4841C13.4602 10.4841 13.5519 10.3926 13.6437 10.3469C13.8271 10.2097 14.0105 10.0268 14.1022 9.84386V8.83784L14.0564 8.88357ZM15.478 5.08813C15.3863 5.3625 15.1111 5.54541 14.8818 5.6826C14.8818 5.6826 14.7901 5.72833 14.7443 5.77406C14.6067 6.68862 14.4233 7.10017 14.1022 7.74036C14.1022 7.87755 13.9647 8.01473 13.9188 8.15192C14.0105 8.2891 14.0105 8.51774 14.0105 8.70065V8.79211V9.84386C15.157 8.51774 15.6614 6.73434 15.3863 5.0424H15.4321L15.478 5.08813ZM5.15981 2.61881C5.06809 2.71027 4.93052 2.80173 4.8388 2.89318C4.8388 2.89318 4.70122 2.98464 4.65536 3.03037C4.38021 3.53338 4.15092 3.99066 4.01334 4.49367C4.01334 4.72231 3.92163 4.95095 3.87577 5.13386C3.87577 5.27105 3.87577 5.40823 3.96748 5.54541C4.0592 5.6826 4.33435 5.95697 4.42607 5.95697C4.42607 5.86551 4.42607 5.81978 4.51779 5.72833V5.63687C4.51779 5.63687 4.51779 5.54541 4.51779 5.49969C4.51779 5.40823 4.60951 5.31677 4.60951 5.27105C4.79294 4.90522 4.97637 4.49367 5.29739 4.2193H5.3891C5.3891 4.17357 5.3891 4.17357 5.48082 4.12784C5.48082 4.12784 5.48082 4.03639 5.48082 3.99066V3.8992C5.48082 3.62483 5.48082 3.25901 5.48082 2.93891V2.48163C5.48082 2.48163 5.15981 2.48163 5.02223 2.66454H5.15981V2.61881ZM12.222 11.3072C11.901 11.3072 11.4424 11.0328 11.1214 10.8041C11.0297 10.7584 10.9839 10.7127 10.938 10.667C10.4794 10.7584 9.97497 10.7584 9.56224 10.8041C9.14951 10.8499 8.69093 10.8041 8.41577 10.7127C8.41577 10.7584 8.41577 10.8041 8.32406 10.8499C8.14062 10.9871 7.77375 11.3072 7.45274 11.3986C8.96608 12.0388 10.7546 12.0845 12.3138 11.3529H12.222V11.3072ZM8.09476 0.378136C8.00305 0.469592 7.86547 0.606776 7.77375 0.74396C8.18648 0.74396 8.64507 0.743961 9.01194 0.881145C9.14951 0.881145 9.28709 0.972601 9.37881 1.01833C9.37881 1.01833 9.47052 1.06406 9.51638 1.10979C9.51638 1.10979 9.51638 1.10979 9.6081 1.06406C9.88325 0.926873 10.296 0.835417 10.6628 0.789689H11.2132C11.2132 0.789689 11.0756 0.652504 11.0297 0.606776C11.0297 0.606776 11.0297 0.561048 10.938 0.51532C10.938 0.51532 10.938 0.469592 10.8463 0.423864C10.296 0.286679 9.74567 0.240951 9.19537 0.286679C8.92022 0.286679 8.59921 0.286679 8.2782 0.378136C8.14062 0.378136 8.00305 0.423864 7.86547 0.469592L8.0489 0.378136H8.09476ZM8.09476 7.19163C8.18648 7.05444 8.23234 6.91726 8.32406 6.73434C8.18648 6.59716 8.14062 6.41425 8.09476 6.27706V6.09415C8.00305 6.0027 7.95719 5.86551 7.95719 5.77406C7.77375 5.31677 7.68203 4.99668 7.59032 4.58512C7.40688 4.5394 7.22345 4.49367 7.08587 4.44794C6.90244 4.44794 6.76486 4.40221 6.62729 4.35648C6.30628 4.31075 6.07698 4.26503 5.75597 4.12784C5.43496 4.31075 5.15981 4.67658 4.88466 5.27105C4.88466 5.3625 4.79294 5.45396 4.74708 5.54541C4.74708 5.63687 4.74708 5.6826 4.65536 5.77406C4.65536 5.86551 4.65537 5.95697 4.56365 6.0027C4.74708 7.00871 4.93052 7.37454 5.34324 8.19765L5.43496 8.38056C5.52668 8.38056 5.6184 8.42629 5.71011 8.47201C5.71011 8.47201 5.80183 8.51774 5.84769 8.51774C6.03112 8.51774 6.35213 8.6092 6.58143 8.65493H7.04001C7.13173 8.47201 7.26931 8.33483 7.36102 8.15192C7.4986 7.969 7.59032 7.83182 7.68203 7.64891C7.81961 7.46599 7.91133 7.28308 8.00305 7.1459H8.09476V7.19163ZM5.34324 9.93531C5.89355 10.5298 6.53557 10.9871 7.22345 11.3529C7.59032 11.3072 8.0489 10.9413 8.18648 10.8041C8.18648 10.7584 8.2782 10.7127 8.2782 10.667C8.14062 10.4841 8.0489 10.3469 7.91133 10.2097C7.68203 9.93531 7.40688 9.61522 7.17759 8.97502C7.17759 8.97502 7.17759 8.88357 7.08587 8.88357H6.58143C6.21456 8.88357 5.80183 8.79211 5.3891 8.6092C5.3891 8.6092 5.29739 8.6092 5.25153 8.70065C5.15981 8.9293 5.25153 9.47803 5.25153 9.61522C5.25153 9.7524 5.25153 9.88959 5.34324 10.0725V9.93531ZM12.1762 8.56347H12.4513C12.5431 8.56347 12.6348 8.51774 12.7723 8.47201C12.8641 8.47201 13.0016 8.42629 13.0934 8.38056C13.2309 8.38056 13.3685 8.33483 13.5061 8.2891C13.5061 8.2891 13.5978 8.2891 13.6437 8.24337C13.7354 8.24337 13.7812 8.19764 13.873 8.15192C13.9647 8.01473 14.0105 7.87755 14.0564 7.74036C14.3774 7.10017 14.5608 6.68862 14.6984 5.81978C14.6984 5.6826 14.6984 5.63687 14.6984 5.54541C14.6984 5.40823 14.6067 5.31677 14.5608 5.22532C14.4691 5.08813 14.3774 4.90522 14.2398 4.72231C14.2398 4.67658 14.1481 4.58512 14.1022 4.5394C14.0105 4.40221 13.9188 4.26503 13.8271 4.17357C13.7354 4.08211 13.6437 4.03639 13.5519 3.99066H13.4602C13.1851 4.08211 12.9558 4.12784 12.6348 4.2193C12.4972 4.2193 12.3596 4.26503 12.1762 4.31075C12.0386 4.31075 11.8552 4.40221 11.6259 4.49367V4.63085C11.6259 4.76804 11.6259 4.95095 11.4883 5.08813C11.3966 5.45396 11.259 5.86551 11.0756 6.32279C11.0756 6.36852 11.0756 6.45998 11.0756 6.5057C11.0756 6.55143 11.0756 6.59716 10.9839 6.64289V6.73434C11.3049 7.42027 11.6259 7.74036 11.901 8.06046C12.0386 8.24337 12.1762 8.38056 12.3138 8.6092H12.1762V8.56347ZM9.51638 3.03037C9.10365 3.25901 8.78264 3.48765 8.46163 3.71629L8.36991 3.80775C8.36991 3.85347 8.23234 3.8992 8.18648 3.99066C8.00305 4.17357 7.81961 4.35648 7.63618 4.5394V4.67658C7.72789 5.0424 7.86547 5.40823 7.95719 5.77406C8.0489 6.04842 8.18648 6.36852 8.36991 6.73434H8.50749C9.37881 6.73434 9.83739 6.73435 10.5711 6.64289C10.5711 6.64289 10.6628 6.59716 10.7087 6.55143C10.7087 6.45998 10.8004 6.32279 10.8463 6.23134C10.8463 6.09415 10.938 6.0027 10.9839 5.86551C11.0756 5.6826 11.1214 5.45396 11.2132 5.27105C11.2132 5.22532 11.2132 5.13386 11.3049 5.0424C11.3049 4.81376 11.3966 4.67658 11.4424 4.5394V4.35648C11.3507 4.26503 11.259 4.2193 11.2132 4.17357C10.8004 3.80775 10.4336 3.48765 9.69981 3.03037H9.6081H9.51638ZM14.8818 5.59114C15.1111 5.45396 15.3863 5.27105 15.4321 4.99668C15.4321 4.76804 15.4321 4.49367 15.2487 4.17357C15.2487 4.03639 15.157 3.94493 15.1111 3.80775C15.1111 3.71629 15.0194 3.5791 15.0194 3.48765C14.9277 3.30474 14.836 3.12182 14.7443 2.98464V2.89318C14.6067 2.71027 14.4233 2.57309 14.194 2.39017C13.9647 2.25299 13.6437 2.1158 13.5978 2.20726V2.29872C13.6895 2.66454 13.7354 3.35046 13.5978 3.71629C13.6895 3.71629 13.7354 3.80775 13.8271 3.8992C14.1022 4.12784 14.3315 4.49367 14.6067 5.0424C14.6067 5.13386 14.6984 5.27105 14.7443 5.3625C14.7443 5.40823 14.7443 5.45396 14.7443 5.49969C14.7443 5.49969 14.836 5.45396 14.836 5.40823V5.54541L14.8818 5.59114ZM15.7532 5.45396C15.6614 6.59716 15.7532 7.87755 14.6067 9.56949V9.88959H14.6984C15.799 11.9474 16.3952 14.5539 16.3952 17.389C16.3952 20.2241 15.9825 22.6477 15.1111 25.1171C13.9188 28.5467 12.0845 31.1074 10.2043 31.9763H10.1125C8.00305 30.9245 5.75597 27.6321 4.47193 23.6538C2.82102 18.5779 2.91274 13.5936 4.79294 9.93531H4.93052V9.61522C4.15092 8.56347 3.60062 7.28308 3.60062 5.54541C-2.77374 13.5936 2.63758 32.8908 8.32406 43.2254C9.97497 43.5455 10.3418 43.4998 11.9469 43.1339C12.5431 43.2711 23.7326 18.4865 15.7073 5.40823H15.7532V5.45396ZM11.0756 26.0316C10.3877 26.4889 9.6081 26.4889 8.92022 26.0316C7.77375 25.3914 6.76486 23.6995 6.03112 21.1387C5.25153 18.4407 4.8388 14.8282 4.79294 10.667C3.23375 14.188 3.23375 18.8066 4.79294 23.5166C6.07698 27.4035 8.18648 30.5587 10.2043 31.6104C11.9927 30.7416 13.7354 28.2723 14.8818 24.9341C15.7073 22.5105 16.1659 19.8583 16.12 17.2975C16.12 14.7825 15.6156 12.4504 14.7443 10.5298C14.8818 14.5081 14.5608 18.0292 13.873 20.7729C13.2309 23.3794 12.222 25.2085 11.0297 25.9402L11.0756 26.0316ZM12.4513 49.2615H12.0845V49.17H11.9927V48.9871V48.8042C11.9927 48.8042 11.901 48.8042 11.901 48.667C11.901 48.667 11.8093 48.5299 11.8093 48.4841C11.8093 48.4841 11.8093 48.4536 11.8093 48.3927V48.3012H11.4424C11.4424 48.3012 11.4424 48.3012 11.3507 48.3012C11.3507 48.3012 11.3507 48.3927 11.3507 48.4384H11.259C11.259 48.4384 11.1214 48.4384 11.1214 48.3469H10.9839C10.9839 48.3469 10.8921 48.3469 10.8921 48.2555V48.164H10.4336C10.4336 48.164 10.3418 48.164 10.296 48.164H10.1584C10.1584 48.164 10.1584 48.164 10.1584 48.2555C10.1584 48.2555 10.0208 48.3469 10.0208 48.3927C10.0208 48.4841 10.0208 48.5756 9.88325 48.6213H9.79153C9.79153 48.6213 9.79153 48.7128 9.69981 48.7128C9.69981 48.7128 9.69982 48.8042 9.6081 48.85V48.9414V49.0329V49.1243C9.6081 49.1243 9.6081 49.2158 9.6081 49.2615V49.353V49.4901L9.69981 49.5816C9.69981 49.5816 9.79153 49.6731 9.83739 49.6731H10.5711C10.5711 49.6731 10.5711 49.6731 10.5711 49.7645H10.7546C10.7546 49.7645 10.7546 49.7645 10.7546 49.9017V50.0389C10.7546 50.0389 10.7546 50.1303 10.8463 50.1761C10.8463 50.1761 10.8463 50.1761 10.8463 50.2675V50.4047V50.4962V50.6334C10.8463 50.7248 10.8463 50.7705 10.938 50.862C10.938 50.862 11.0297 50.9534 11.0297 50.9992C11.0297 51.0906 11.0297 51.1821 11.0297 51.2735C11.0297 51.2735 11.0297 51.304 11.0297 51.365C11.0297 51.365 11.0297 51.4565 11.1214 51.5022V51.5936V51.6851H11.4424C11.5342 51.6851 11.6259 51.5479 11.6717 51.4565V51.365C11.6717 51.365 11.7023 51.365 11.7635 51.365V51.2278L11.8552 51.1364C11.8552 51.1364 11.9927 50.9992 12.0845 50.9992L12.1762 50.9077V50.6791C12.1762 50.6791 12.1762 50.5876 12.1762 50.5419V50.4047V50.3133C12.1762 50.3133 12.1762 50.2218 12.2679 50.1761C12.2679 50.1761 12.2679 50.0389 12.3596 50.0389C12.4513 49.856 12.5431 49.7645 12.5889 49.6731C12.5889 49.6731 12.5889 49.5816 12.5889 49.5359C12.5889 49.5359 12.5889 49.4444 12.5889 49.3987H12.3138L12.4513 49.2615ZM12.4513 50.9534C12.4513 51.0449 12.3138 51.0906 12.2679 51.1364V51.2278C12.2679 51.3193 12.2679 51.4107 12.2679 51.5022V51.6394V51.5479V51.4107V51.3193V51.2278L12.4972 50.9534H12.4513ZM16.12 52.5082C16.12 53.6057 13.9188 55.7549 9.69981 55.4348C8.8285 55.4348 4.74708 54.6574 4.51779 52.5997C4.24264 49.9017 6.85658 45.0545 8.00305 44.1857C9.56224 44.4601 10.617 44.5058 12.4513 44.0485C14.4691 45.2832 16.1659 49.9932 16.0742 52.5082H16.12ZM12.5889 51.0449V50.8163H12.4972V50.9077C12.4972 50.9077 12.3596 50.9077 12.3138 50.9992C12.3138 50.9992 12.3138 50.9992 12.3138 51.0906C12.3138 51.1821 12.3138 51.2735 12.3138 51.3193V51.4107C12.3138 51.5022 12.3138 51.5936 12.4055 51.6394H12.5431V51.5479V51.4565V51.2735V51.1821L12.6806 50.9992L12.5889 51.0449ZM12.6348 49.2158V49.1243H12.2679L12.1762 49.0329C12.1762 49.0329 12.1762 49.0329 12.0845 49.0329V48.8957C12.0845 48.8957 12.0845 48.8957 11.9927 48.8957V48.7585C11.9927 48.7585 11.9927 48.7585 11.9927 48.667V48.5756C11.9927 48.5756 11.9927 48.5756 11.9927 48.4841C11.9927 48.4841 11.9927 48.4841 11.9927 48.3927V48.3012V48.0268L11.901 48.1183H11.3507V48.2098H11.0297V48.0726H10.617C10.617 48.0726 10.5253 48.0726 10.4794 48.0726H10.3418C10.3418 48.0726 10.2501 48.0726 10.2043 48.164C10.1125 48.164 10.0208 48.2555 9.97497 48.3469C9.97497 48.3469 9.97497 48.4384 9.88325 48.4841C9.88325 48.4841 9.79153 48.4841 9.74567 48.4841C9.74567 48.4841 9.74567 48.4841 9.65396 48.4841C9.65396 48.5756 9.56224 48.6213 9.51638 48.667V48.8042V48.8957V49.0329V49.17C9.51638 49.17 9.51638 49.1701 9.6081 49.2615C9.6081 49.2615 9.6081 49.3987 9.69981 49.4444C9.69981 49.4444 9.69982 49.4444 9.79153 49.5359C9.79153 49.5359 9.88325 49.6273 9.92911 49.6273H10.2043C10.2043 49.6273 10.296 49.6273 10.3418 49.6273H10.5253C10.5253 49.6273 10.5253 49.7188 10.617 49.7188H10.7546V49.8102V49.9017C10.7546 49.9932 10.7546 50.0389 10.7546 50.0846V50.2218V50.359V50.4962V50.7248C10.7546 50.8163 10.7546 50.862 10.8463 50.9534C10.8463 50.9534 10.8463 51.0449 10.938 51.0449C10.938 51.1364 10.938 51.2278 11.0297 51.3193C11.0297 51.3193 11.0297 51.4107 11.0297 51.4565C11.0297 51.4565 11.0297 51.4565 11.0297 51.5479V51.6394C11.0297 51.6394 11.0297 51.7308 11.1673 51.7308H11.4883C11.6259 51.7308 11.7176 51.5936 11.8093 51.4565C11.8093 51.4565 11.8093 51.4565 11.8093 51.365V51.1364C11.8093 51.1364 11.9469 51.1364 11.9469 50.9534V50.8163C11.9469 50.7248 12.0386 50.6791 12.1303 50.6791C12.1303 50.6791 12.2679 50.5419 12.2679 50.4504V50.2218V50.0389C12.2679 50.0389 12.2679 50.0389 12.3596 49.9474C12.3596 49.9474 12.3596 49.856 12.3596 49.8102C12.4513 49.6273 12.5889 49.4901 12.6348 49.353V49.2158C12.6348 49.2158 12.6348 49.0786 12.6348 48.9871L12.4972 49.2158H12.6348ZM12.4513 49.2615H12.0845V49.17H11.9927V48.9871V48.8042C11.9927 48.8042 11.901 48.8042 11.901 48.667C11.901 48.667 11.8093 48.5299 11.8093 48.4841C11.8093 48.4841 11.8093 48.4536 11.8093 48.3927V48.3012H11.4424C11.4424 48.3012 11.4424 48.3012 11.3507 48.3012C11.3507 48.3012 11.3507 48.3927 11.3507 48.4384H11.259C11.259 48.4384 11.1214 48.4384 11.1214 48.3469H10.9839C10.9839 48.3469 10.8921 48.3469 10.8921 48.2555V48.164H10.4336C10.4336 48.164 10.3418 48.164 10.296 48.164H10.1584C10.1584 48.164 10.1584 48.164 10.1584 48.2555C10.1584 48.2555 10.0208 48.3469 10.0208 48.3927C10.0208 48.4841 10.0208 48.5756 9.88325 48.6213H9.79153C9.79153 48.6213 9.79153 48.7128 9.69981 48.7128C9.69981 48.7128 9.69982 48.8042 9.6081 48.85V48.9414V49.0329V49.1243C9.6081 49.1243 9.6081 49.2158 9.6081 49.2615V49.353V49.4901L9.69981 49.5816C9.69981 49.5816 9.79153 49.6731 9.83739 49.6731H10.5711C10.5711 49.6731 10.5711 49.6731 10.5711 49.7645H10.7546C10.7546 49.7645 10.7546 49.7645 10.7546 49.9017V50.0389C10.7546 50.0389 10.7546 50.1303 10.8463 50.1761C10.8463 50.1761 10.8463 50.1761 10.8463 50.2675V50.4047V50.4962V50.6334C10.8463 50.7248 10.8463 50.7705 10.938 50.862C10.938 50.862 11.0297 50.9534 11.0297 50.9992C11.0297 51.0906 11.0297 51.1821 11.0297 51.2735C11.0297 51.2735 11.0297 51.304 11.0297 51.365C11.0297 51.365 11.0297 51.4565 11.1214 51.5022V51.5936V51.6851H11.4424C11.5342 51.6851 11.6259 51.5479 11.6717 51.4565V51.365C11.6717 51.365 11.7023 51.365 11.7635 51.365V51.2278L11.8552 51.1364C11.8552 51.1364 11.9927 50.9992 12.0845 50.9992L12.1762 50.9077V50.6791C12.1762 50.6791 12.1762 50.5876 12.1762 50.5419V50.4047V50.3133C12.1762 50.3133 12.1762 50.2218 12.2679 50.1761C12.2679 50.1761 12.2679 50.0389 12.3596 50.0389C12.4513 49.856 12.5431 49.7645 12.5889 49.6731C12.5889 49.6731 12.5889 49.5816 12.5889 49.5359C12.5889 49.5359 12.5889 49.4444 12.5889 49.3987H12.3138L12.4513 49.2615ZM12.4513 50.9534C12.4513 51.0449 12.3138 51.0906 12.2679 51.1364V51.2278C12.2679 51.3193 12.2679 51.4107 12.2679 51.5022V51.6394V51.5479V51.4107V51.3193V51.2278L12.4972 50.9534H12.4513ZM16.12 52.5082C16.12 53.6057 13.9188 55.7549 9.69981 55.4348C8.8285 55.4348 4.74708 54.6574 4.51779 52.5997C4.24264 49.9017 6.85658 45.0545 8.00305 44.1857C9.56224 44.4601 10.617 44.5058 12.4513 44.0485C14.4691 45.2832 16.1659 49.9932 16.0742 52.5082H16.12ZM12.5889 51.0449V50.8163H12.4972V50.9077C12.4972 50.9077 12.3596 50.9077 12.3138 50.9992C12.3138 50.9992 12.3138 50.9992 12.3138 51.0906C12.3138 51.1821 12.3138 51.2735 12.3138 51.3193V51.4107C12.3138 51.5022 12.3138 51.5936 12.4055 51.6394H12.5431V51.5479V51.4565V51.2735V51.1821L12.6806 50.9992L12.5889 51.0449ZM12.6348 49.2158V49.1243H12.2679L12.1762 49.0329C12.1762 49.0329 12.1762 49.0329 12.0845 49.0329V48.8957C12.0845 48.8957 12.0845 48.8957 11.9927 48.8957V48.7585C11.9927 48.7585 11.9927 48.7585 11.9927 48.667V48.5756C11.9927 48.5756 11.9927 48.5756 11.9927 48.4841C11.9927 48.4841 11.9927 48.4841 11.9927 48.3927V48.3012V48.0268L11.901 48.1183H11.3507V48.2098H11.0297V48.0726H10.617C10.617 48.0726 10.5253 48.0726 10.4794 48.0726H10.3418C10.3418 48.0726 10.2501 48.0726 10.2043 48.164C10.1125 48.164 10.0208 48.2555 9.97497 48.3469C9.97497 48.3469 9.97497 48.4384 9.88325 48.4841C9.88325 48.4841 9.79153 48.4841 9.74567 48.4841C9.74567 48.4841 9.74567 48.4841 9.65396 48.4841C9.65396 48.5756 9.56224 48.6213 9.51638 48.667V48.8042V48.8957V49.0329V49.17C9.51638 49.17 9.51638 49.1701 9.6081 49.2615C9.6081 49.2615 9.6081 49.3987 9.69981 49.4444C9.69981 49.4444 9.69982 49.4444 9.79153 49.5359C9.79153 49.5359 9.88325 49.6273 9.92911 49.6273H10.2043C10.2043 49.6273 10.296 49.6273 10.3418 49.6273H10.5253C10.5253 49.6273 10.5253 49.7188 10.617 49.7188H10.7546V49.8102V49.9017C10.7546 49.9932 10.7546 50.0389 10.7546 50.0846V50.2218V50.359V50.4962V50.7248C10.7546 50.8163 10.7546 50.862 10.8463 50.9534C10.8463 50.9534 10.8463 51.0449 10.938 51.0449C10.938 51.1364 10.938 51.2278 11.0297 51.3193C11.0297 51.3193 11.0297 51.4107 11.0297 51.4565C11.0297 51.4565 11.0297 51.4565 11.0297 51.5479V51.6394C11.0297 51.6394 11.0297 51.7308 11.1673 51.7308H11.4883C11.6259 51.7308 11.7176 51.5936 11.8093 51.4565C11.8093 51.4565 11.8093 51.4565 11.8093 51.365V51.1364C11.8093 51.1364 11.9469 51.1364 11.9469 50.9534V50.8163C11.9469 50.7248 12.0386 50.6791 12.1303 50.6791C12.1303 50.6791 12.2679 50.5419 12.2679 50.4504V50.2218V50.0389C12.2679 50.0389 12.2679 50.0389 12.3596 49.9474C12.3596 49.9474 12.3596 49.856 12.3596 49.8102C12.4513 49.6273 12.5889 49.4901 12.6348 49.353V49.2158C12.6348 49.2158 12.6348 49.0786 12.6348 48.9871L12.4972 49.2158H12.6348ZM12.4513 49.2615H12.0845V49.17H11.9927V48.9871V48.8042C11.9927 48.8042 11.901 48.8042 11.901 48.667C11.901 48.667 11.8093 48.5299 11.8093 48.4841C11.8093 48.4841 11.8093 48.4536 11.8093 48.3927V48.3012H11.4424C11.4424 48.3012 11.4424 48.3012 11.3507 48.3012C11.3507 48.3012 11.3507 48.3927 11.3507 48.4384H11.259C11.259 48.4384 11.1214 48.4384 11.1214 48.3469H10.9839C10.9839 48.3469 10.8921 48.3469 10.8921 48.2555V48.164H10.4336C10.4336 48.164 10.3418 48.164 10.296 48.164H10.1584C10.1584 48.164 10.1584 48.164 10.1584 48.2555C10.1584 48.2555 10.0208 48.3469 10.0208 48.3927C10.0208 48.4841 10.0208 48.5756 9.88325 48.6213H9.79153C9.79153 48.6213 9.79153 48.7128 9.69981 48.7128C9.69981 48.7128 9.69982 48.8042 9.6081 48.85V48.9414V49.0329V49.1243C9.6081 49.1243 9.6081 49.2158 9.6081 49.2615V49.353V49.4901L9.69981 49.5816C9.69981 49.5816 9.79153 49.6731 9.83739 49.6731H10.5711C10.5711 49.6731 10.5711 49.6731 10.5711 49.7645H10.7546C10.7546 49.7645 10.7546 49.7645 10.7546 49.9017V50.0389C10.7546 50.0389 10.7546 50.1303 10.8463 50.1761C10.8463 50.1761 10.8463 50.1761 10.8463 50.2675V50.4047V50.4962V50.6334C10.8463 50.7248 10.8463 50.7705 10.938 50.862C10.938 50.862 11.0297 50.9534 11.0297 50.9992C11.0297 51.0906 11.0297 51.1821 11.0297 51.2735C11.0297 51.2735 11.0297 51.304 11.0297 51.365C11.0297 51.365 11.0297 51.4565 11.1214 51.5022V51.5936V51.6851H11.4424C11.5342 51.6851 11.6259 51.5479 11.6717 51.4565V51.365C11.6717 51.365 11.7023 51.365 11.7635 51.365V51.2278L11.8552 51.1364C11.8552 51.1364 11.9927 50.9992 12.0845 50.9992L12.1762 50.9077V50.6791C12.1762 50.6791 12.1762 50.5876 12.1762 50.5419V50.4047V50.3133C12.1762 50.3133 12.1762 50.2218 12.2679 50.1761C12.2679 50.1761 12.2679 50.0389 12.3596 50.0389C12.4513 49.856 12.5431 49.7645 12.5889 49.6731C12.5889 49.6731 12.5889 49.5816 12.5889 49.5359C12.5889 49.5359 12.5889 49.4444 12.5889 49.3987H12.3138L12.4513 49.2615ZM12.4513 50.9534C12.4513 51.0449 12.3138 51.0906 12.2679 51.1364V51.2278C12.2679 51.3193 12.2679 51.4107 12.2679 51.5022V51.6394V51.5479V51.4107V51.3193V51.2278L12.4972 50.9534H12.4513ZM16.12 52.5082C16.12 53.6057 13.9188 55.7549 9.69981 55.4348C8.8285 55.4348 4.74708 54.6574 4.51779 52.5997C4.24264 49.9017 6.85658 45.0545 8.00305 44.1857C9.56224 44.4601 10.617 44.5058 12.4513 44.0485C14.4691 45.2832 16.1659 49.9932 16.0742 52.5082H16.12ZM12.5889 51.0449V50.8163H12.4972V50.9077C12.4972 50.9077 12.3596 50.9077 12.3138 50.9992C12.3138 50.9992 12.3138 50.9992 12.3138 51.0906C12.3138 51.1821 12.3138 51.2735 12.3138 51.3193V51.4107C12.3138 51.5022 12.3138 51.5936 12.4055 51.6394H12.5431V51.5479V51.4565V51.2735V51.1821L12.6806 50.9992L12.5889 51.0449ZM12.6348 49.2158V49.1243H12.2679L12.1762 49.0329C12.1762 49.0329 12.1762 49.0329 12.0845 49.0329V48.8957C12.0845 48.8957 12.0845 48.8957 11.9927 48.8957V48.7585C11.9927 48.7585 11.9927 48.7585 11.9927 48.667V48.5756C11.9927 48.5756 11.9927 48.5756 11.9927 48.4841C11.9927 48.4841 11.9927 48.4841 11.9927 48.3927V48.3012V48.0268L11.901 48.1183H11.3507V48.2098H11.0297V48.0726H10.617C10.617 48.0726 10.5253 48.0726 10.4794 48.0726H10.3418C10.3418 48.0726 10.2501 48.0726 10.2043 48.164C10.1125 48.164 10.0208 48.2555 9.97497 48.3469C9.97497 48.3469 9.97497 48.4384 9.88325 48.4841C9.88325 48.4841 9.79153 48.4841 9.74567 48.4841C9.74567 48.4841 9.74567 48.4841 9.65396 48.4841C9.65396 48.5756 9.56224 48.6213 9.51638 48.667V48.8042V48.8957V49.0329V49.17C9.51638 49.17 9.51638 49.1701 9.6081 49.2615C9.6081 49.2615 9.6081 49.3987 9.69981 49.4444C9.69981 49.4444 9.69982 49.4444 9.79153 49.5359C9.79153 49.5359 9.88325 49.6273 9.92911 49.6273H10.2043C10.2043 49.6273 10.296 49.6273 10.3418 49.6273H10.5253C10.5253 49.6273 10.5253 49.7188 10.617 49.7188H10.7546V49.8102V49.9017C10.7546 49.9932 10.7546 50.0389 10.7546 50.0846V50.2218V50.359V50.4962V50.7248C10.7546 50.8163 10.7546 50.862 10.8463 50.9534C10.8463 50.9534 10.8463 51.0449 10.938 51.0449C10.938 51.1364 10.938 51.2278 11.0297 51.3193C11.0297 51.3193 11.0297 51.4107 11.0297 51.4565C11.0297 51.4565 11.0297 51.4565 11.0297 51.5479V51.6394C11.0297 51.6394 11.0297 51.7308 11.1673 51.7308H11.4883C11.6259 51.7308 11.7176 51.5936 11.8093 51.4565C11.8093 51.4565 11.8093 51.4565 11.8093 51.365V51.1364C11.8093 51.1364 11.9469 51.1364 11.9469 50.9534V50.8163C11.9469 50.7248 12.0386 50.6791 12.1303 50.6791C12.1303 50.6791 12.2679 50.5419 12.2679 50.4504V50.2218V50.0389C12.2679 50.0389 12.2679 50.0389 12.3596 49.9474C12.3596 49.9474 12.3596 49.856 12.3596 49.8102C12.4513 49.6273 12.5889 49.4901 12.6348 49.353V49.2158C12.6348 49.2158 12.6348 49.0786 12.6348 48.9871L12.4972 49.2158H12.6348ZM3.32546 52.9198C3.32546 53.88 4.0592 54.7946 5.3891 55.4805C6.719 56.1665 8.50749 56.5323 10.3877 56.5323C12.2679 56.5323 14.0105 56.075 15.3404 55.2976C16.6245 54.566 17.3123 53.6057 17.2665 52.6454C17.2665 51.9595 16.8996 51.2735 16.1659 50.6791C16.3035 51.365 16.3493 51.9595 16.3493 52.5082C16.3493 53.0569 15.9824 53.6057 15.3863 54.1087C14.7901 54.6117 14.0564 55.0232 13.1851 55.2976C12.1303 55.6177 10.9839 55.7549 9.69981 55.6177C9.19537 55.6177 7.91133 55.3891 6.81072 54.9775C5.29738 54.3831 4.42607 53.5599 4.33435 52.5997C4.33435 52.0966 4.33435 51.5022 4.47193 50.8163C3.73819 51.4565 3.32546 52.1881 3.32546 52.9198ZM12.4513 49.2615H12.0845V49.17H11.9927V48.9871V48.8042C11.9927 48.8042 11.901 48.8042 11.901 48.667C11.901 48.667 11.8093 48.5299 11.8093 48.4841C11.8093 48.4841 11.8093 48.4536 11.8093 48.3927V48.3012H11.4424C11.4424 48.3012 11.4424 48.3012 11.3507 48.3012C11.3507 48.3012 11.3507 48.3927 11.3507 48.4384H11.259C11.259 48.4384 11.1214 48.4384 11.1214 48.3469H10.9839C10.9839 48.3469 10.8921 48.3469 10.8921 48.2555V48.164H10.4336C10.4336 48.164 10.3418 48.164 10.296 48.164H10.1584C10.1584 48.164 10.1584 48.164 10.1584 48.2555C10.1584 48.2555 10.0208 48.3469 10.0208 48.3927C10.0208 48.4841 10.0208 48.5756 9.88325 48.6213H9.79153C9.79153 48.6213 9.79153 48.7128 9.69981 48.7128C9.69981 48.7128 9.69982 48.8042 9.6081 48.85V48.9414V49.0329V49.1243C9.6081 49.1243 9.6081 49.2158 9.6081 49.2615V49.353V49.4901L9.69981 49.5816C9.69981 49.5816 9.79153 49.6731 9.83739 49.6731H10.5711C10.5711 49.6731 10.5711 49.6731 10.5711 49.7645H10.7546C10.7546 49.7645 10.7546 49.7645 10.7546 49.9017V50.0389C10.7546 50.0389 10.7546 50.1303 10.8463 50.1761C10.8463 50.1761 10.8463 50.1761 10.8463 50.2675V50.4047V50.4962V50.6334C10.8463 50.7248 10.8463 50.7705 10.938 50.862C10.938 50.862 11.0297 50.9534 11.0297 50.9992C11.0297 51.0906 11.0297 51.1821 11.0297 51.2735C11.0297 51.2735 11.0297 51.304 11.0297 51.365C11.0297 51.365 11.0297 51.4565 11.1214 51.5022V51.5936V51.6851H11.4424C11.5342 51.6851 11.6259 51.5479 11.6717 51.4565V51.365C11.6717 51.365 11.7023 51.365 11.7635 51.365V51.2278L11.8552 51.1364C11.8552 51.1364 11.9927 50.9992 12.0845 50.9992L12.1762 50.9077V50.6791C12.1762 50.6791 12.1762 50.5876 12.1762 50.5419V50.4047V50.3133C12.1762 50.3133 12.1762 50.2218 12.2679 50.1761C12.2679 50.1761 12.2679 50.0389 12.3596 50.0389C12.4513 49.856 12.5431 49.7645 12.5889 49.6731C12.5889 49.6731 12.5889 49.5816 12.5889 49.5359C12.5889 49.5359 12.5889 49.4444 12.5889 49.3987H12.3138L12.4513 49.2615ZM12.4513 50.9534C12.4513 51.0449 12.3138 51.0906 12.2679 51.1364V51.2278C12.2679 51.3193 12.2679 51.4107 12.2679 51.5022V51.6394V51.5479V51.4107V51.3193V51.2278L12.4972 50.9534H12.4513ZM16.12 52.5082C16.12 53.6057 13.9188 55.7549 9.69981 55.4348C8.8285 55.4348 4.74708 54.6574 4.51779 52.5997C4.24264 49.9017 6.85658 45.0545 8.00305 44.1857C9.56224 44.4601 10.617 44.5058 12.4513 44.0485C14.4691 45.2832 16.1659 49.9932 16.0742 52.5082H16.12ZM12.5889 51.0449V50.8163H12.4972V50.9077C12.4972 50.9077 12.3596 50.9077 12.3138 50.9992C12.3138 50.9992 12.3138 50.9992 12.3138 51.0906C12.3138 51.1821 12.3138 51.2735 12.3138 51.3193V51.4107C12.3138 51.5022 12.3138 51.5936 12.4055 51.6394H12.5431V51.5479V51.4565V51.2735V51.1821L12.6806 50.9992L12.5889 51.0449ZM12.6348 49.2158V49.1243H12.2679L12.1762 49.0329C12.1762 49.0329 12.1762 49.0329 12.0845 49.0329V48.8957C12.0845 48.8957 12.0845 48.8957 11.9927 48.8957V48.7585C11.9927 48.7585 11.9927 48.7585 11.9927 48.667V48.5756C11.9927 48.5756 11.9927 48.5756 11.9927 48.4841C11.9927 48.4841 11.9927 48.4841 11.9927 48.3927V48.3012V48.0268L11.901 48.1183H11.3507V48.2098H11.0297V48.0726H10.617C10.617 48.0726 10.5253 48.0726 10.4794 48.0726H10.3418C10.3418 48.0726 10.2501 48.0726 10.2043 48.164C10.1125 48.164 10.0208 48.2555 9.97497 48.3469C9.97497 48.3469 9.97497 48.4384 9.88325 48.4841C9.88325 48.4841 9.79153 48.4841 9.74567 48.4841C9.74567 48.4841 9.74567 48.4841 9.65396 48.4841C9.65396 48.5756 9.56224 48.6213 9.51638 48.667V48.8042V48.8957V49.0329V49.17C9.51638 49.17 9.51638 49.1701 9.6081 49.2615C9.6081 49.2615 9.6081 49.3987 9.69981 49.4444C9.69981 49.4444 9.69982 49.4444 9.79153 49.5359C9.79153 49.5359 9.88325 49.6273 9.92911 49.6273H10.2043C10.2043 49.6273 10.296 49.6273 10.3418 49.6273H10.5253C10.5253 49.6273 10.5253 49.7188 10.617 49.7188H10.7546V49.8102V49.9017C10.7546 49.9932 10.7546 50.0389 10.7546 50.0846V50.2218V50.359V50.4962V50.7248C10.7546 50.8163 10.7546 50.862 10.8463 50.9534C10.8463 50.9534 10.8463 51.0449 10.938 51.0449C10.938 51.1364 10.938 51.2278 11.0297 51.3193C11.0297 51.3193 11.0297 51.4107 11.0297 51.4565C11.0297 51.4565 11.0297 51.4565 11.0297 51.5479V51.6394C11.0297 51.6394 11.0297 51.7308 11.1673 51.7308H11.4883C11.6259 51.7308 11.7176 51.5936 11.8093 51.4565C11.8093 51.4565 11.8093 51.4565 11.8093 51.365V51.1364C11.8093 51.1364 11.9469 51.1364 11.9469 50.9534V50.8163C11.9469 50.7248 12.0386 50.6791 12.1303 50.6791C12.1303 50.6791 12.2679 50.5419 12.2679 50.4504V50.2218V50.0389C12.2679 50.0389 12.2679 50.0389 12.3596 49.9474C12.3596 49.9474 12.3596 49.856 12.3596 49.8102C12.4513 49.6273 12.5889 49.4901 12.6348 49.353V49.2158C12.6348 49.2158 12.6348 49.0786 12.6348 48.9871L12.4972 49.2158H12.6348ZM12.4513 49.2615H12.0845V49.17H11.9927V48.9871V48.8042C11.9927 48.8042 11.901 48.8042 11.901 48.667C11.901 48.667 11.8093 48.5299 11.8093 48.4841C11.8093 48.4841 11.8093 48.4536 11.8093 48.3927V48.3012H11.4424C11.4424 48.3012 11.4424 48.3012 11.3507 48.3012C11.3507 48.3012 11.3507 48.3927 11.3507 48.4384H11.259C11.259 48.4384 11.1214 48.4384 11.1214 48.3469H10.9839C10.9839 48.3469 10.8921 48.3469 10.8921 48.2555V48.164H10.4336C10.4336 48.164 10.3418 48.164 10.296 48.164H10.1584C10.1584 48.164 10.1584 48.164 10.1584 48.2555C10.1584 48.2555 10.0208 48.3469 10.0208 48.3927C10.0208 48.4841 10.0208 48.5756 9.88325 48.6213H9.79153C9.79153 48.6213 9.79153 48.7128 9.69981 48.7128C9.69981 48.7128 9.69982 48.8042 9.6081 48.85V48.9414V49.0329V49.1243C9.6081 49.1243 9.6081 49.2158 9.6081 49.2615V49.353V49.4901L9.69981 49.5816C9.69981 49.5816 9.79153 49.6731 9.83739 49.6731H10.5711C10.5711 49.6731 10.5711 49.6731 10.5711 49.7645H10.7546C10.7546 49.7645 10.7546 49.7645 10.7546 49.9017V50.0389C10.7546 50.0389 10.7546 50.1303 10.8463 50.1761C10.8463 50.1761 10.8463 50.1761 10.8463 50.2675V50.4047V50.4962V50.6334C10.8463 50.7248 10.8463 50.7705 10.938 50.862C10.938 50.862 11.0297 50.9534 11.0297 50.9992C11.0297 51.0906 11.0297 51.1821 11.0297 51.2735C11.0297 51.2735 11.0297 51.304 11.0297 51.365C11.0297 51.365 11.0297 51.4565 11.1214 51.5022V51.5936V51.6851H11.4424C11.5342 51.6851 11.6259 51.5479 11.6717 51.4565V51.365C11.6717 51.365 11.7023 51.365 11.7635 51.365V51.2278L11.8552 51.1364C11.8552 51.1364 11.9927 50.9992 12.0845 50.9992L12.1762 50.9077V50.6791C12.1762 50.6791 12.1762 50.5876 12.1762 50.5419V50.4047V50.3133C12.1762 50.3133 12.1762 50.2218 12.2679 50.1761C12.2679 50.1761 12.2679 50.0389 12.3596 50.0389C12.4513 49.856 12.5431 49.7645 12.5889 49.6731C12.5889 49.6731 12.5889 49.5816 12.5889 49.5359C12.5889 49.5359 12.5889 49.4444 12.5889 49.3987H12.3138L12.4513 49.2615ZM12.4513 50.9534C12.4513 51.0449 12.3138 51.0906 12.2679 51.1364V51.2278C12.2679 51.3193 12.2679 51.4107 12.2679 51.5022V51.6394V51.5479V51.4107V51.3193V51.2278L12.4972 50.9534H12.4513ZM16.12 52.5082C16.12 53.6057 13.9188 55.7549 9.69981 55.4348C8.8285 55.4348 4.74708 54.6574 4.51779 52.5997C4.24264 49.9017 6.85658 45.0545 8.00305 44.1857C9.56224 44.4601 10.617 44.5058 12.4513 44.0485C14.4691 45.2832 16.1659 49.9932 16.0742 52.5082H16.12ZM12.5889 51.0449V50.8163H12.4972V50.9077C12.4972 50.9077 12.3596 50.9077 12.3138 50.9992C12.3138 50.9992 12.3138 50.9992 12.3138 51.0906C12.3138 51.1821 12.3138 51.2735 12.3138 51.3193V51.4107C12.3138 51.5022 12.3138 51.5936 12.4055 51.6394H12.5431V51.5479V51.4565V51.2735V51.1821L12.6806 50.9992L12.5889 51.0449ZM12.6348 49.2158V49.1243H12.2679L12.1762 49.0329C12.1762 49.0329 12.1762 49.0329 12.0845 49.0329V48.8957C12.0845 48.8957 12.0845 48.8957 11.9927 48.8957V48.7585C11.9927 48.7585 11.9927 48.7585 11.9927 48.667V48.5756C11.9927 48.5756 11.9927 48.5756 11.9927 48.4841C11.9927 48.4841 11.9927 48.4841 11.9927 48.3927V48.3012V48.0268L11.901 48.1183H11.3507V48.2098H11.0297V48.0726H10.617C10.617 48.0726 10.5253 48.0726 10.4794 48.0726H10.3418C10.3418 48.0726 10.2501 48.0726 10.2043 48.164C10.1125 48.164 10.0208 48.2555 9.97497 48.3469C9.97497 48.3469 9.97497 48.4384 9.88325 48.4841C9.88325 48.4841 9.79153 48.4841 9.74567 48.4841C9.74567 48.4841 9.74567 48.4841 9.65396 48.4841C9.65396 48.5756 9.56224 48.6213 9.51638 48.667V48.8042V48.8957V49.0329V49.17C9.51638 49.17 9.51638 49.1701 9.6081 49.2615C9.6081 49.2615 9.6081 49.3987 9.69981 49.4444C9.69981 49.4444 9.69982 49.4444 9.79153 49.5359C9.79153 49.5359 9.88325 49.6273 9.92911 49.6273H10.2043C10.2043 49.6273 10.296 49.6273 10.3418 49.6273H10.5253C10.5253 49.6273 10.5253 49.7188 10.617 49.7188H10.7546V49.8102V49.9017C10.7546 49.9932 10.7546 50.0389 10.7546 50.0846V50.2218V50.359V50.4962V50.7248C10.7546 50.8163 10.7546 50.862 10.8463 50.9534C10.8463 50.9534 10.8463 51.0449 10.938 51.0449C10.938 51.1364 10.938 51.2278 11.0297 51.3193C11.0297 51.3193 11.0297 51.4107 11.0297 51.4565C11.0297 51.4565 11.0297 51.4565 11.0297 51.5479V51.6394C11.0297 51.6394 11.0297 51.7308 11.1673 51.7308H11.4883C11.6259 51.7308 11.7176 51.5936 11.8093 51.4565C11.8093 51.4565 11.8093 51.4565 11.8093 51.365V51.1364C11.8093 51.1364 11.9469 51.1364 11.9469 50.9534V50.8163C11.9469 50.7248 12.0386 50.6791 12.1303 50.6791C12.1303 50.6791 12.2679 50.5419 12.2679 50.4504V50.2218V50.0389C12.2679 50.0389 12.2679 50.0389 12.3596 49.9474C12.3596 49.9474 12.3596 49.856 12.3596 49.8102C12.4513 49.6273 12.5889 49.4901 12.6348 49.353V49.2158C12.6348 49.2158 12.6348 49.0786 12.6348 48.9871L12.4972 49.2158H12.6348ZM15.5239 55.6177C14.1481 56.3951 12.3138 56.8524 10.3877 56.8981C8.46163 56.9438 6.58143 56.5323 5.20567 55.8006C4.28849 55.2976 3.64647 54.7032 3.2796 54.063C3.2796 54.4745 3.27961 54.9775 3.41718 55.6634C3.41718 56.6695 4.19678 57.6755 5.48082 58.4071C6.85658 59.1845 8.59921 59.5961 10.4794 59.5503C12.3596 59.5046 14.1481 59.0473 15.478 58.2242C16.762 57.4468 17.4958 56.3951 17.4958 55.3891C17.4958 54.3831 17.4958 53.88 17.4041 53.7429C17.0831 54.4288 16.441 55.069 15.5239 55.6177ZM12.0386 43.4083C10.617 43.6369 9.88325 43.7741 8.36991 43.4998C8.2782 43.4998 8.18648 43.6369 8.18648 43.6827C8.18648 43.8199 8.18648 44.0028 8.18648 44.0485C9.92911 44.4601 10.6628 44.3229 12.3138 44.0485C12.3138 43.7741 12.3138 43.5912 12.1762 43.4998C12.1762 43.4998 12.0845 43.4998 12.0386 43.454V43.4083Z" fill="white"/>
</svg>
