<svg width="91" height="86" viewBox="0 0 91 86" fill="none" xmlns="http://www.w3.org/2000/svg">
<path d="M49.3677 32.5535C49.3677 32.5535 49.3677 32.5535 49.3677 32.4532C49.403 31.9854 49.0494 31.5844 48.5543 31.5176C45.3011 31.1834 42.6136 31.1166 40.5272 31.1834C40.1029 31.1834 39.7846 31.4842 39.7493 31.8852C38.6884 44.8502 44.1695 53.9391 46.1144 57.1469L46.3973 57.5479L45.9376 57.2472C43.7098 55.4762 41.4466 53.7052 39.2189 51.9342C38.5116 51.3661 37.4508 51.3996 36.7435 52.001C35.3291 53.2708 33.5256 55.0752 32.2172 56.8796C32.288 56.8462 35.4705 59.486 39.4664 61.7582C44.0988 64.398 48.9433 66.9376 53.3989 69.8781C55.4145 71.2147 57.0765 72.852 58.0666 75.024C58.6678 76.3272 58.8446 77.6972 58.2435 79.0672C57.218 81.4397 54.8841 83.6117 52.5149 84.7478C52.232 84.8814 51.5247 85.3158 51.6308 85.5163C51.5601 85.5163 54.1415 84.7478 56.44 84.1463C57.0765 83.9792 58.2435 83.5783 58.7739 83.2441C63.0526 80.4038 65.634 72.1503 60.4005 65.4673C48.6251 50.4974 49.2969 32.7874 49.3323 32.52L49.3677 32.5535Z" fill="#FAB923"/>
<path d="M38.0873 48.8266C38.936 48.1583 39.3957 46.9554 39.2896 46.521C38.6531 44.1485 38.158 41.208 37.9105 39.5706C24.0133 45.8861 21.2905 58.1828 20.5832 59.9872C20.5832 59.9204 20.5479 59.8536 20.5479 59.7867C20.5125 58.3165 20.4064 56.8128 20.4418 55.3425C20.4418 53.8054 20.5832 52.3018 20.6893 50.7647C20.6893 50.4639 20.5832 50.1632 20.3004 49.9627C16.941 47.5234 14.4303 46.2202 12.8037 45.5519C12.8037 45.5519 8.66636 67.7729 27.2666 80.7046C36.107 86.8529 43.144 85.2824 47.741 85.6166C40.8101 85.2824 36.9557 83.0102 35.1523 81.3395C18.603 66.2024 33.1366 52.7027 38.0873 48.86V48.8266Z" fill="#FAB923"/>
<path d="M12.839 16.3806C14.6778 14.8769 21.5026 10.8671 22.8818 9.69756C23.2354 9.39682 34.4097 0.207683 50.8175 1.67795C57.6069 2.27942 63.8306 4.88579 65.2451 7.45875C65.7048 9.69756 61.426 10.0317 61.9564 8.12705C62.2393 7.19143 54.389 3.41553 48.0239 5.21994C27.8324 10.9673 16.7995 26.8395 14.006 36.2625C15.5265 36.5299 17.9665 37.3318 21.6795 39.2031C22.1745 39.437 22.7403 39.2031 22.9171 38.7352C22.9878 38.4679 23.0939 38.2006 23.2 37.9667C25.0388 32.921 31.6868 18.0513 48.0946 8.92901C46.2912 11.7359 44.3109 14.8769 43.1794 17.4833C45.4425 17.5501 48.4129 17.7172 51.3833 18.1516C52.1966 15.211 53.3635 12.4042 54.1415 10.5664C55.2023 8.09364 58.4203 7.52558 61.0017 9.06267C63.5831 10.5998 65.1036 12.8386 69.3824 12.07C70.4079 11.8695 71.009 11.5354 71.2919 11.0676C71.787 10.4661 71.9284 9.43024 70.3371 7.72607C70.3018 7.69266 70.2664 7.62583 70.1957 7.59241C66.9778 4.28432 54.1061 -1.83064 37.8398 0.575248C21.5734 2.98113 12.5561 14.3423 11.8135 15.3113C11.4599 15.7791 10.3284 17.0155 9.26751 18.4523C7.49942 20.8248 5.58989 23.6316 5.58989 23.6316C5.58989 23.6316 9.40895 19.1874 12.839 16.3806Z" fill="#FAB923"/>
<path d="M9.37359 64.7656C4.1047 58.684 0.674615 46.3205 4.77657 43.6138C8.87853 40.9072 15.7033 45.2846 15.7033 45.2846C15.9509 45.4183 20.1589 48.0246 22.2452 49.3278C22.8464 49.6954 23.6951 49.5283 24.0841 48.9603C24.7913 47.891 25.9582 46.4207 27.797 44.5161C25.9229 43.4134 24.0487 42.3441 22.1392 41.375C18.8505 39.7711 16.057 38.7687 13.6877 38.1672C10.8234 37.3986 8.91389 37.4321 8.20665 37.4655C4.31687 37.5323 2.79632 39.036 2.79632 39.036C4.84729 36.9642 8.10057 35.3603 11.7782 34.0571C12.3086 33.8567 12.733 33.4891 12.9805 33.0213C16.7288 25.3024 19.0981 22.6292 19.6285 21.9609C19.6285 21.9609 19.5931 21.9609 19.5578 21.9609C19.487 21.9609 19.3809 22.0277 19.2749 22.0945C17.1532 22.9299 5.55453 27.9422 1.59402 38.2674C0.674615 40.5062 0.108828 42.9455 0.179551 45.6188C-0.209428 58.4835 9.30287 69.31 13.0866 72.852C15.1375 74.7901 17.2592 76.394 18.8505 77.5301C19.2041 77.764 19.5224 77.9979 19.876 78.2653C20.1943 78.4658 20.5125 78.6997 20.8661 78.9001C21.3612 79.2009 21.6441 79.368 21.6441 79.368H21.7148C22.0684 79.4014 23.2354 79.3345 20.0528 75.2913C16.4459 70.7135 14.6425 70.8137 9.33823 64.7322L9.37359 64.7656Z" fill="#FAB923"/>
<path d="M88.9728 31.3505C88.8667 30.983 88.7252 30.6154 88.6191 30.2478C86.2499 23.3643 81.4761 17.4833 75.2171 13.5403C79.8141 17.1157 82.5016 20.0896 84.5879 25.4695C85.4366 27.608 85.6488 30.4483 85.9317 32.8876C85.9317 34.0906 86.1085 35.2935 86.5682 36.3962C86.6035 36.5967 91.3066 52.3018 81.1225 65.2668C81.0871 65.3336 76.2779 69.9115 74.2269 67.8064C72.8125 66.3361 74.2623 63.6295 74.2623 63.6295C74.9342 61.7916 76.2779 59.2855 77.9399 55.4094C78.1521 54.975 78.3289 54.574 78.5057 54.2398C79.9555 51.3327 84.0221 40.1387 76.1718 31.4508C63.3002 17.1825 41.3406 18.6194 37.5569 18.9869C37.2032 18.9869 36.885 19.1874 36.6375 19.4548C33.8085 22.696 31.1564 26.7727 29.8834 28.8778C29.3529 29.7466 30.0955 30.0807 31.1564 29.9471C36.6375 29.3122 51.3479 28.2763 65.3865 33.5559C65.2804 33.5559 65.2097 33.5893 65.1036 33.5893C58.9507 33.4223 55.2377 34.124 51.8783 34.7254C51.3833 34.8257 51.0297 35.2267 51.065 35.6945C51.2065 38.234 51.5247 40.807 51.7723 42.2438C51.8783 42.979 52.4441 43.2463 52.7978 43.146C57.1472 41.9765 72.9893 38.6684 72.9186 47.8576C72.9186 52.3352 68.4276 60.0875 67.296 63.429C65.5987 68.3076 66.8717 72.5513 69.2409 74.3223C71.6102 76.0933 74.722 74.5228 74.722 74.5228C74.722 74.5228 74.722 74.5228 74.722 74.4894C76.9851 73.5203 84.0928 69.711 88.4777 55.7435C92.6857 42.4109 89.6446 33.1215 88.9374 31.2837L88.9728 31.3505Z" fill="#FAB923"/>
</svg>
