<svg width="67" height="105" viewBox="0 0 67 105" fill="none" xmlns="http://www.w3.org/2000/svg">
<path d="M59.815 26.181H59.655C58.8549 25.6209 59.0149 23.5407 58.1348 22.9006C57.1747 22.2605 54.9344 22.5806 53.4943 21.9405C52.1341 21.3004 51.9741 19.7802 51.174 19.3002C48.9337 17.94 41.0928 16.2598 38.9325 14.1796C37.2523 12.6594 38.6925 10.4991 38.6925 8.6589C38.6925 5.05847 36.2122 5.69854 35.4121 4.17836C34.452 2.25813 35.8922 0.737951 33.4919 0.817961C31.0116 0.817961 32.5318 2.25813 31.5716 4.17836C30.6115 6.09859 28.3713 5.05847 28.2912 8.6589C28.2912 10.4991 29.7314 12.6594 28.0512 14.1796C25.891 16.2598 18.05 17.94 15.8098 19.3002C15.0097 19.7802 14.8496 21.3804 13.4895 21.9405C12.0493 22.5806 9.80904 22.2605 8.84892 22.9006C7.96882 23.5407 8.12884 25.6209 7.32874 26.181C5.72855 27.2211 0.927978 25.4609 0.207892 30.3415C0.127883 31.1416 5.64854 41.7829 6.44864 44.5832C8.52889 52.1841 8.04883 67.2259 12.8494 72.5865C14.3696 74.2667 16.5298 75.1468 18.13 76.9071C19.2502 78.1872 24.5308 85.2281 24.7708 86.3482C25.7309 90.5087 16.4498 91.3088 15.4097 94.2691C14.8496 95.8693 14.7696 104.19 16.6099 104.83H50.5339C52.3741 104.19 52.2941 95.9493 51.7341 94.2691C50.6939 91.3088 41.4128 90.4287 42.3729 86.3482C42.613 85.3081 47.8936 78.1872 49.0137 76.9071C50.6139 75.1468 52.7742 74.1867 54.2944 72.5865C59.0949 67.3059 58.6149 52.1841 60.6951 44.5832C61.4952 41.7829 67.0159 31.0616 66.9359 30.3415C66.2158 25.4609 61.4152 27.3011 59.815 26.181ZM13.0094 66.8259C10.7692 59.545 10.9292 47.9436 9.40899 39.9426C8.76892 36.5822 5.3285 34.0219 9.24897 31.3816C9.96906 37.2223 13.3295 39.9426 15.0097 45.6233C17.49 54.0243 17.81 62.9854 20.0503 71.3864C16.4498 72.0265 14.1296 70.1863 13.0894 66.8259H13.0094ZM57.5747 39.8626H57.4947C55.9746 47.8636 56.1346 59.545 53.8943 66.7458C52.8542 70.1062 50.4539 71.9465 46.9335 71.3064C49.1737 62.9054 49.4938 53.9443 51.9741 45.5433C53.6543 39.8626 57.0147 37.1423 57.7348 31.3016C61.6552 33.9419 58.2148 36.5022 57.5747 39.8626Z" fill="#FAB923"/>
</svg>
