<svg width="55" height="53" viewBox="0 0 55 53" fill="none" xmlns="http://www.w3.org/2000/svg">
<path d="M29.7831 20.2738C29.7831 20.2738 29.7831 20.2738 29.7831 20.2136C29.8044 19.9327 29.592 19.6919 29.2947 19.6518C27.3411 19.4511 25.7272 19.411 24.4744 19.4511C24.2196 19.4511 24.0284 19.6317 24.0072 19.8725C23.3702 27.6581 26.6616 33.1161 27.8295 35.0424L27.9994 35.2832L27.7233 35.1026C26.3855 34.0391 25.0265 32.9756 23.6887 31.9121C23.264 31.571 22.6269 31.5911 22.2022 31.9522C21.3528 32.7148 20.2698 33.7983 19.4841 34.8819C19.5266 34.8618 21.4378 36.447 23.8373 37.8115C26.6191 39.3967 29.5283 40.9218 32.2039 42.6876C33.4143 43.4902 34.4124 44.4734 35.0069 45.7777C35.3679 46.5603 35.4741 47.383 35.1131 48.2057C34.4973 49.6304 33.0958 50.9347 31.673 51.617C31.5032 51.6972 31.0785 51.9581 31.1422 52.0785C31.0997 52.0785 32.6498 51.617 34.0301 51.2558C34.4124 51.1554 35.1131 50.9146 35.4316 50.714C38.0011 49.0084 39.5512 44.0521 36.4084 40.0389C29.3372 31.0493 29.7407 20.4143 29.7619 20.2537L29.7831 20.2738Z" fill="white"/>
<path d="M23.0092 30.046C23.5188 29.6447 23.7949 28.9223 23.7311 28.6614C23.3489 27.2367 23.0516 25.4709 22.903 24.4877C14.5576 28.2802 12.9225 35.6645 12.4978 36.748C12.4978 36.7079 12.4766 36.6678 12.4766 36.6276C12.4554 35.7447 12.3917 34.8418 12.4129 33.9589C12.4129 33.0358 12.4978 32.1328 12.5615 31.2098C12.5615 31.0292 12.4978 30.8486 12.328 30.7282C10.3106 29.2634 8.80294 28.4808 7.82613 28.0795C7.82613 28.0795 5.34164 41.4234 16.5112 49.189C21.82 52.8811 26.0458 51.938 28.8063 52.1387C24.6443 51.938 22.3296 50.5735 21.2467 49.5702C11.3087 40.4803 20.0363 32.3736 23.0092 30.066V30.046Z" fill="white"/>
<path d="M7.84737 10.5619C8.95159 9.65888 13.0499 7.25096 13.8781 6.54865C14.0905 6.36806 20.8007 0.849896 30.6538 1.7328C34.7309 2.09399 38.4682 3.65914 39.3176 5.20423C39.5937 6.54865 37.0243 6.74931 37.3428 5.60555C37.5127 5.0437 32.7985 2.77624 28.9762 3.8598C16.851 7.31116 10.2257 16.8425 8.54812 22.5011C9.46123 22.6617 10.9264 23.1433 13.1561 24.267C13.4534 24.4074 13.7932 24.267 13.8993 23.986C13.9418 23.8255 14.0055 23.665 14.0692 23.5245C15.1734 20.4945 19.1656 11.5652 29.0187 6.08713C27.9357 7.77268 26.7465 9.65889 26.067 11.224C27.426 11.2642 29.2098 11.3645 30.9935 11.6254C31.4819 9.85954 32.1827 8.174 32.6498 7.07037C33.2869 5.58548 35.2193 5.24436 36.7694 6.1674C38.3196 7.09043 39.2327 8.43486 41.8021 7.97334C42.4179 7.85294 42.7789 7.65228 42.9488 7.37136C43.2461 7.01017 43.3311 6.38812 42.3755 5.36475C42.3542 5.34469 42.333 5.30456 42.2905 5.28449C40.3582 3.29795 32.6286 -0.374132 22.8605 1.07062C13.0924 2.51538 7.67749 9.33783 7.23155 9.91974C7.0192 10.2007 6.33968 10.9431 5.70263 11.8059C4.64088 13.2306 3.49419 14.9162 3.49419 14.9162C3.49419 14.9162 5.78757 12.2474 7.84737 10.5619Z" fill="white"/>
<path d="M5.76634 39.6175C2.60232 35.9655 0.542527 28.541 3.00579 26.9157C5.46905 25.2903 9.5674 27.919 9.5674 27.919C9.71605 27.9992 12.243 29.5644 13.4959 30.347C13.8569 30.5677 14.3665 30.4674 14.6001 30.1262C15.0248 29.4841 15.7256 28.6012 16.8298 27.4575C15.7043 26.7953 14.5789 26.1532 13.4322 25.5712C11.4573 24.6081 9.77975 24.0061 8.35701 23.6449C6.63697 23.1834 5.49028 23.2035 5.06558 23.2235C2.72973 23.2637 1.81663 24.1666 1.81663 24.1666C3.04826 22.9225 5.00188 21.9594 7.21032 21.1768C7.52884 21.0564 7.78366 20.8357 7.93231 20.5547C10.1832 15.9195 11.606 14.3142 11.9245 13.9129C11.9245 13.9129 11.9033 13.9129 11.882 13.9129C11.8395 13.9129 11.7758 13.953 11.7121 13.9931C10.438 14.4948 3.47296 17.5047 1.09464 23.7051C0.542527 25.0495 0.202767 26.5144 0.245237 28.1196C0.0116515 35.8451 5.72387 42.3465 7.99601 44.4734C9.22764 45.6373 10.5017 46.6004 11.4573 47.2827C11.6697 47.4232 11.8608 47.5636 12.0731 47.7241C12.2642 47.8445 12.4554 47.985 12.6677 48.1054C12.965 48.286 13.1349 48.3863 13.1349 48.3863H13.1774C13.3897 48.4064 14.0905 48.3663 12.1793 45.9383C10.0133 43.1892 8.93035 43.2494 5.7451 39.5974L5.76634 39.6175Z" fill="white"/>
<path d="M53.5663 19.5514C53.5026 19.3307 53.4177 19.11 53.354 18.8893C51.9312 14.7557 49.0645 11.224 45.3059 8.85624C48.0665 11.0033 49.6803 12.7892 50.9332 16.0198C51.4428 17.304 51.5702 19.0097 51.7401 20.4745C51.7401 21.1969 51.8463 21.9192 52.1223 22.5814C52.1436 22.7018 54.9678 32.1328 48.8521 39.9185C48.8309 39.9586 45.943 42.7076 44.7113 41.4435C43.8619 40.5606 44.7326 38.9352 44.7326 38.9352C45.136 37.8316 45.943 36.3266 46.941 33.999C47.0684 33.7381 47.1746 33.4973 47.2808 33.2967C48.1514 31.5509 50.5934 24.8288 45.8793 19.6116C38.1497 11.0434 24.9628 11.9063 22.6906 12.127C22.4783 12.127 22.2872 12.2474 22.1385 12.4079C20.4397 14.3543 18.8471 16.8024 18.0826 18.0666C17.7641 18.5883 18.21 18.7889 18.8471 18.7087C22.1385 18.3274 30.9723 17.7054 39.4026 20.8758C39.3389 20.8758 39.2964 20.8959 39.2327 20.8959C35.5378 20.7955 33.3081 21.2169 31.2908 21.5781C30.9935 21.6383 30.7812 21.8791 30.8024 22.16C30.8873 23.685 31.0785 25.2301 31.2271 26.093C31.2908 26.5344 31.6306 26.6949 31.8429 26.6348C34.4548 25.9324 43.9681 23.9459 43.9256 29.4641C43.9256 32.1529 41.2288 36.8082 40.5493 38.8148C39.53 41.7445 40.2944 44.2929 41.7172 45.3564C43.1399 46.4199 45.0086 45.4768 45.0086 45.4768C45.0086 45.4768 45.0086 45.4768 45.0086 45.4567C46.3677 44.8748 50.6359 42.5872 53.269 34.1996C55.796 26.1933 53.9698 20.6149 53.5451 19.5113L53.5663 19.5514Z" fill="white"/>
</svg>
