<svg width="150" height="110" viewBox="0 0 150 110" fill="none" xmlns="http://www.w3.org/2000/svg">
<path d="M82.0032 28.1002C81.9357 27.9113 81.8124 27.7468 81.6492 27.6278C81.486 27.5088 81.2904 27.4408 81.0876 27.4327C80.3029 27.4327 79.6714 28.0891 79.322 29.2489C79.8152 29.3559 80.2973 29.4812 80.7738 29.6251C81.1418 28.4523 81.6351 28.1536 82.0032 28.1002ZM74.9778 20.8887C74.7077 20.889 74.4437 20.9684 74.2193 21.1168C73.9949 21.2653 73.8201 21.476 73.7171 21.7224C73.6141 21.9689 73.5874 22.2399 73.6405 22.5013C73.6935 22.7627 73.8239 23.0027 74.0152 23.191C74.2065 23.3792 74.45 23.5072 74.7151 23.5589C74.9801 23.6106 75.2547 23.5835 75.5041 23.4811C75.7535 23.3788 75.9666 23.2057 76.1164 22.9839C76.2661 22.762 76.3459 22.5013 76.3455 22.2347C76.3463 22.0574 76.3114 21.8818 76.2429 21.7179C76.1743 21.554 76.0736 21.4051 75.9464 21.28C75.8192 21.1548 75.6681 21.0557 75.5018 20.9886C75.3356 20.9214 75.1575 20.8874 74.9778 20.8887ZM77.1359 21.5377C77.1359 22.6625 78.0514 23.8795 79.52 23.8795C80.9905 23.8795 81.8406 23.0073 81.8406 22.0429C81.8406 21.5322 81.4072 21.1321 80.9793 21.1321C80.5215 21.1321 80.1105 21.5008 80.1105 21.9839C80.1105 22.1812 80.1777 22.3343 80.273 22.4781C79.4004 22.5445 78.7203 22.3122 78.2738 21.6391C78.4921 21.6218 78.6962 21.5251 78.8464 21.3676C78.9966 21.2102 79.0821 21.0034 79.0865 20.7872C79.0851 20.5597 78.9925 20.3419 78.8291 20.1813C78.6657 20.0207 78.4446 19.9303 78.214 19.9298C77.6646 19.9298 77.1303 20.3945 77.1303 21.5377M78.924 24.8383V25.0817C78.924 25.491 79.6041 25.9668 80.43 25.9668C82.7375 25.9668 83.4718 23.6453 85.4897 23.6453C86.9116 23.6453 88.0439 24.735 88.0439 26.4849C88.0439 28.0227 87.1358 29.3983 85.4467 30.0252C84.9796 30.1967 84.718 30.6318 84.6526 31.3712H84.7554C87.6515 31.3712 89.7554 29.1715 89.7554 26.4849C89.7554 23.8002 87.8757 21.96 85.4897 21.96C82.702 21.96 82.2573 24.842 79.3575 24.842H78.9296L78.924 24.8383ZM73.8997 26.1659C74.3706 26.7006 74.6471 27.1174 74.9479 27.7793C74.9539 27.7923 74.9621 27.8042 74.9722 27.8144C74.978 27.8007 74.9862 27.7882 74.9965 27.7775C75.2973 27.1118 75.5757 26.7006 76.0447 26.1641C75.8635 25.6994 75.3291 24.8549 74.9722 24.5082C74.6172 24.8549 74.0754 25.6994 73.8997 26.1641V26.1659ZM84.2976 29.3374C84.1669 28.9815 83.8586 28.6736 83.4718 28.6736C82.6889 28.6736 82.2741 29.4112 82.0574 30.0713C82.5095 30.2446 82.9542 30.429 83.3877 30.6245C83.6418 29.7744 83.9426 29.461 84.2976 29.3374ZM116.5 50.7967H114.146C112.556 52.2903 111.261 52.5706 107.814 52.5706H100.165C99.2976 53.3524 98.4642 53.8576 97.4235 54.1674V54.2559H107.814C112.579 54.2559 113.976 53.6142 116.502 50.7894M112.861 54.8939H110.506C108.914 56.3875 107.62 56.6696 104.174 56.6696H96.5248C95.656 57.4495 94.8245 57.9548 93.7838 58.2646V58.3549H104.174C108.939 58.3549 110.336 57.7095 112.863 54.8884M73.285 20.6674L74.9703 19.4596L76.6576 20.6729L76.0129 18.7147L77.7001 17.5051H75.615L74.9703 15.5469L74.3257 17.5051H72.2443L73.9296 18.7202L73.2869 20.6803L73.285 20.6674ZM118.421 46.045C116.493 48.0991 115.349 48.4568 111.457 48.4568H103.814C102.945 49.2368 102.113 49.742 101.073 50.0518V50.1422H111.463C116.715 50.1422 117.872 49.3677 120.97 45.7408L122.151 44.3523H91.6089C91.777 44.9 91.9228 45.466 92.0368 46.0376H118.419L118.421 46.045ZM73.9464 44.3578L73.3934 46.045H85.458L81.1568 49.1354L81.7117 50.8207L89.2528 45.407C90.0173 48.0561 90.0096 50.8643 89.2307 53.5093C88.4517 56.1543 86.933 58.529 84.8488 60.3611L85.4224 62.0943C88.0165 60.0112 89.9107 57.2019 90.8558 54.0361C91.801 50.8702 91.7528 47.4962 90.7176 44.3578H73.9464ZM109.228 58.9855H106.874C105.282 60.4791 103.987 60.7594 100.548 60.7594H88.0364C87.5002 61.3623 86.9228 61.921 86.3081 62.4465H100.548C105.312 62.4465 106.71 61.8012 109.236 58.98M68.8755 27.4271C68.6727 27.4353 68.4771 27.5032 68.3139 27.6222C68.1507 27.7412 68.0274 27.9058 67.9599 28.0946C68.3336 28.1481 68.8269 28.445 69.1875 29.6122C69.6639 29.4702 70.146 29.3448 70.6393 29.2378C70.2899 28.0817 69.6583 27.4216 68.8755 27.4216M71.964 28.9889C72.476 28.9096 73.001 28.8562 73.5316 28.8211C73.2121 27.3276 72.3508 26.295 71.5006 26.295C71.0559 26.295 70.7234 26.5992 70.544 26.992C71.0373 27.0823 71.6277 27.6834 71.964 28.9815M67.5003 62.0648L66.0074 63.1361C68.6762 64.8493 71.7922 65.7597 74.9759 65.7563C78.6026 65.7563 81.964 64.5947 84.6919 62.6235H84.6994L79.5182 46.8711H77.7244L81.452 58.2166L77.1452 55.1262L75.6934 56.168L83.2233 61.5762C80.7871 63.2037 77.9123 64.0727 74.9703 64.071C72.3397 64.074 69.7564 63.3813 67.4891 62.0648M66.5548 30.6023C66.9902 30.3995 67.4349 30.2151 67.8871 30.0418C67.6628 29.3872 67.248 28.6478 66.4652 28.6478C66.0728 28.6478 65.7738 28.9576 65.6393 29.3153C66.0018 29.4407 66.3026 29.7505 66.5492 30.6023M84.2061 33.8882V32.1549C81.6762 30.7203 78.2962 29.6601 74.9573 29.6601C71.6221 29.6601 68.2421 30.7203 65.7122 32.1567V33.89C68.5073 32.2391 71.7016 31.362 74.9591 31.351C78.2164 31.3622 81.4105 32.2386 84.2061 33.8882ZM74.9573 33.0381L69.7779 48.7961L71.2297 49.8379L74.9591 38.4924L76.6034 43.4949H78.3971L75.5253 34.74C78.3096 34.847 81.0073 35.7247 83.3101 37.2728C85.613 38.821 87.4282 40.9771 88.5484 43.4949H90.3925C87.9878 37.3842 81.9826 33.0381 74.9647 33.0381M78.4457 26.2894C77.5974 26.2894 76.736 27.3147 76.4165 28.8156C76.9472 28.8506 77.4647 28.9041 77.9823 28.9815C78.3186 27.6779 78.9109 27.0768 79.4042 26.992C79.2304 26.5937 78.8997 26.295 78.4457 26.295M52.5097 54.2393V54.149C51.4671 53.8392 50.63 53.334 49.7687 52.554H42.1193C38.6738 52.554 37.3771 52.2682 35.7871 50.7783H33.4328C35.9552 53.6013 37.3547 54.2448 42.1193 54.2448H52.5097V54.2393ZM56.1476 58.342V58.2535C55.1068 57.9382 54.2754 57.4366 53.4066 56.6567H45.7571C42.3117 56.6567 41.0169 56.3709 39.4268 54.8828H37.0707C39.5931 57.704 40.9926 58.3494 45.7571 58.3494H56.1476V58.342ZM61.908 60.7594H49.3931C45.9477 60.7594 44.6585 60.4735 43.0684 58.9855H40.7142C43.2366 61.8067 44.6342 62.4521 49.3987 62.4521H63.6401C63.0256 61.9299 62.4482 61.3668 61.9117 60.7667M70.4281 23.8702C71.9042 23.8702 72.8142 22.657 72.8142 21.5303C72.8142 20.4056 72.2835 19.9225 71.7361 19.9225C71.5051 19.9234 71.2838 20.0141 71.1201 20.175C70.9565 20.3358 70.8636 20.5538 70.8616 20.7817C70.8652 20.9982 70.9509 21.2055 71.1017 21.3629C71.2524 21.5202 71.4574 21.6161 71.6763 21.6318C71.2297 22.3048 70.5552 22.5371 69.677 22.4726C69.7801 22.3277 69.8361 22.1554 69.8377 21.9784C69.8372 21.7533 69.7466 21.5374 69.5857 21.3779C69.4247 21.2183 69.2064 21.128 68.9782 21.1265C68.5429 21.1265 68.115 21.5248 68.115 22.0374C68.115 23.0018 69.0249 23.8721 70.4356 23.8721M38.4851 50.1477H48.8756V50.0573C47.833 49.7476 47.0015 49.2423 46.1346 48.4624H38.4851C34.5931 48.4624 33.4478 48.1047 31.5214 46.0505H57.9039C58.0178 45.4814 58.1631 44.9187 58.3393 44.3652H27.7995L28.9803 45.7518C32.0763 49.3788 33.2329 50.1532 38.4795 50.1532M65.1965 31.3694H65.2918C65.2208 30.6318 64.9667 30.1967 64.4977 30.0233C62.8105 29.3983 61.9005 28.0227 61.9005 26.4867C61.9005 24.735 63.0328 23.6471 64.4547 23.6471C66.4726 23.6471 67.2088 25.9686 69.5145 25.9686C70.3459 25.9686 71.0204 25.4855 71.0204 25.0798V24.8383H70.587C67.6909 24.8383 67.2424 21.9563 64.4547 21.9563C62.0762 21.9563 60.1946 23.8186 60.1946 26.4831C60.1946 29.1438 62.2985 31.3657 65.1909 31.3657M74.2379 53.0611L64.4715 46.0505H69.791L70.3441 44.3652H61.0261C62.9525 39.1949 67.7357 35.3854 73.4775 34.8175L74.0492 33.0842C67.1042 33.4604 61.2914 38.0812 59.2193 44.3652L72.7787 54.101L74.2304 53.0592H74.236L74.2379 53.0611ZM65.2376 62.6438V62.6567L78.7988 52.9117L78.2439 51.2282L68.4793 58.2369L70.1236 53.2344L68.6718 52.1926L65.7981 60.9401C63.6055 59.2394 61.9422 56.9641 60.9985 54.3743C60.0548 51.7846 59.8688 48.985 60.4618 46.2958L58.9671 45.2245C58.1101 48.4134 58.2503 51.7835 59.3694 54.8923C60.4885 58.001 62.5341 60.7032 65.2376 62.6438ZM28.7486 92.5206H26.5046V87.4388H28.829V88.534C28.829 88.534 29.1429 87.4332 30.7628 87.5568V90C30.7628 90 29.027 89.7547 28.7505 90.5716V92.5187L28.7486 92.5206ZM76.9023 92.5206H74.6564V87.4388H76.9808V88.534C76.9808 88.534 77.2947 87.4332 78.9146 87.5568V90C78.9146 90 77.1751 89.7547 76.9023 90.5716V92.5206ZM38.1824 90.0018C38.061 92.8838 35.1462 92.6386 35.1462 92.6386C31.7905 92.8008 31.8334 89.8764 31.8334 89.8764C32.0315 87.2728 35.1088 87.3558 35.1088 87.3558C38.302 87.3558 38.188 89.9944 38.188 89.9944M35.1518 88.7332C35.1518 88.7332 34.2419 88.6557 34.1279 89.9133C34.1279 89.9133 34.1653 90.9293 35.0733 90.9643C35.0733 90.9643 35.9403 91.0491 36.0262 89.9483C36.0262 89.9483 36.0617 88.7682 35.1574 88.7258M115.775 90.0018C115.656 92.8838 112.734 92.6386 112.734 92.6386C109.385 92.8008 109.421 89.8764 109.421 89.8764C109.619 87.2728 112.691 87.3558 112.691 87.3558C115.886 87.3558 115.77 89.9944 115.77 89.9944M112.728 88.7332C112.728 88.7332 111.824 88.6557 111.704 89.9133C111.704 89.9133 111.745 90.9293 112.65 90.9643C112.65 90.9643 113.516 91.0491 113.595 89.9483C113.595 89.9483 113.632 88.7682 112.728 88.7258M38.6514 87.4388H41.4111L42.2837 89.9594L43.074 87.4406H45.5964L43.7429 91.5433C43.7429 91.5433 42.9956 93.4978 41.7717 93.295H39.1279V91.8291H40.7852L38.6514 87.4388ZM50.4824 87.4461H52.7732V92.5261H50.4899V91.5912C49.821 92.646 48.4346 92.5261 48.4346 92.5261C46.0318 92.2809 46.3083 89.8469 46.3083 89.8469C46.3868 87.1603 48.6345 87.2839 48.6345 87.2839C49.6211 87.2433 50.4899 88.1007 50.4899 88.1007V87.4517L50.4824 87.4461ZM49.6996 88.7867C49.6996 88.7867 48.6345 88.6244 48.5972 89.9668C48.5972 89.9668 48.5972 91.0602 49.5856 91.0602C49.5856 91.0602 50.4955 91.1026 50.574 90.0073C50.574 90.0073 50.6936 88.7867 49.7052 88.7867M66.8986 87.4461H69.1875V92.5261H66.9042V91.5912C66.2353 92.646 64.849 92.5261 64.849 92.5261C62.4461 92.2809 62.7245 89.8469 62.7245 89.8469C62.8011 87.1603 65.0489 87.2839 65.0489 87.2839C66.0373 87.2433 66.9042 88.1007 66.9042 88.1007V87.4517L66.8986 87.4461ZM66.1083 88.7867C66.1083 88.7867 65.0433 88.6244 65.0059 89.9668C65.0059 89.9668 65.0059 91.0602 65.9887 91.0602C65.9887 91.0602 66.8986 91.1026 66.9771 90.0073C66.9771 90.0073 67.0967 88.7867 66.1083 88.7867ZM106.306 92.5206H104.058V87.4388H106.385V88.534C106.385 88.534 106.697 87.4332 108.318 87.5568V90C108.318 90 106.583 89.7547 106.306 90.5716V92.5206ZM100.228 87.4461H102.517V92.5261H100.234V91.5912C99.5648 92.646 98.1784 92.5261 98.1784 92.5261C95.7755 92.2809 96.0539 89.8469 96.0539 89.8469C96.1324 87.1603 98.3783 87.2839 98.3783 87.2839C99.3667 87.2433 100.234 88.1007 100.234 88.1007V87.4517L100.228 87.4461ZM99.4396 88.7867C99.4396 88.7867 98.3727 88.6244 98.3372 89.9668C98.3372 89.9668 98.3372 91.0602 99.3237 91.0602C99.3237 91.0602 100.234 91.1026 100.312 90.0073C100.312 90.0073 100.434 88.7867 99.4452 88.7867M56.6054 86.5463H54.2362V92.5206H56.6035V86.5463H56.6054ZM73.0477 87.4461H70.686V92.5261H73.0477V87.4461ZM73.0477 86.4209H70.686V87.0884H73.0477V86.4209ZM84.9628 92.5206V87.4388H87.2517V88.5765C87.2517 88.5765 87.7711 87.354 89.2696 87.354C89.2696 87.354 90.415 87.2304 91.0054 88.3736C91.0054 88.3736 91.9583 87.1161 93.0177 87.354C93.0177 87.354 94.3611 87.271 94.6731 88.7369V92.4763H92.2273V89.8358C92.2273 89.8358 92.1078 89.0614 91.5584 89.1444C91.5584 89.1444 90.968 89.1444 90.8914 89.7529V92.515H88.4811V89.9557C88.4811 89.9557 88.6026 89.0614 87.9336 89.1813C87.9336 89.1813 87.3432 89.0983 87.2236 89.8303V92.5095H84.9684L84.9628 92.5224V92.5206ZM122.36 87.6066C122.36 87.6066 121.491 87.2378 119.636 87.2009C119.636 87.2009 117.035 87.1603 116.956 90.0073C116.956 90.0073 116.956 92.4062 119.871 92.5261C119.871 92.5261 121.769 92.5261 122.36 91.6742V90.4941C122.36 90.4941 121.769 90.8592 120.624 90.8592C120.624 90.8592 119.281 90.9422 119.281 89.8045C119.281 89.8045 119.359 88.8272 120.305 88.8696C120.305 88.8696 121.293 88.6668 122.352 89.1554V87.6121L122.36 87.6066ZM36.1832 76.6907C36.1832 76.6907 35.5554 77.762 35.5554 77.9888C35.5554 78.2156 35.7179 78.5235 35.5255 78.6083C35.333 78.6913 33.8271 79.0914 33.9653 77.679C32.4594 78.269 28.5506 79.9894 25.051 79.9894C22.9546 79.9894 21.9008 80.2402 21.0375 79.3348C20.6283 78.7632 19.5502 77.9353 18.8402 79.4547C18.0985 80.491 18.0742 81.4553 17.6052 81.3723C17.1101 81.282 16.8952 80.2752 16.755 79.0601C16.2375 80.7823 16.6654 83.0042 17.2726 82.9802C17.8705 82.9802 18.2367 81.9015 18.5506 81.2414C18.8571 80.585 18.9841 80.2936 19.4363 80.2752C21.1347 80.36 19.3522 82.1044 24.8268 81.8536C27.3678 81.6047 30.6526 81.0921 32.876 79.5432C33.2852 79.2039 33.3936 79.1191 33.502 79.77C33.6402 80.4725 33.941 80.7583 34.7071 80.6993C35.4732 80.644 36.8689 79.3164 36.1832 76.698M132.274 74.69C132.003 75.1713 131.401 76.2684 131.099 76.4417C131.099 77.2567 131.231 82.4731 131.044 82.8364C131.51 81.99 132.39 80.9482 132.328 80.1572C132.274 79.3699 132.412 75.0533 132.274 74.69ZM125.022 75.8148L123.655 76.7792L124.449 77.513L125.678 76.4104L125.022 75.8148Z" fill="#C20831"/>
<path d="M129.101 75.9581C129.101 75.9581 128.584 76.6071 128.414 76.8616C128.251 77.1197 128.36 77.2027 128.33 77.6489C128.306 78.1007 128.36 78.8051 127.782 79.5666C127.999 79.7934 130.602 80.2986 130.602 80.2986L129.257 81.877C129.066 81.7645 127.698 81.9323 127.095 81.9913C126.493 82.0503 123.457 82.4671 122.143 82.6404C120.83 82.8119 117.764 82.9188 115.331 82.8358C112.896 82.7529 111.964 82.2698 110.572 81.877C110.572 81.877 109.752 83.0018 109.229 83.1456C108.711 83.2894 106.927 83.4259 104.632 82.9483C105.342 82.8948 109.259 81.936 109.939 81.1745C108.324 81.2298 107.065 80.6084 106.957 80.271C106.85 79.9299 107.368 79.1978 107.639 78.6907C107.91 78.1855 108.627 76.8874 109.059 76.9169C109.855 76.9759 110.621 78.381 111.006 79.4246C111.361 79.9299 112.512 80.6914 113.416 80.4664C113.578 80.3521 114.402 79.9003 114.784 79.6735L114.728 77.5899C114.705 77.1972 114.429 77.0534 114.373 76.6901C114.318 76.3213 114.759 75.475 115.331 74.4922C115.193 74.9163 115.716 75.4215 115.824 75.9857C115.933 76.5537 115.469 76.7491 115.415 76.8874C115.359 77.0294 115.337 78.2095 115.391 79.3951C118.836 77.7559 119.524 77.9827 120.258 78.4953C121 79.0005 120.722 80.0128 119.462 81.003C120.282 81.1136 123.023 80.8592 124.445 80.5236C124.337 80.4425 121.957 79.9889 121.957 79.9889C122.125 79.9354 122.777 78.6907 122.777 78.6907L126.986 78.6373C127.536 78.6373 127.536 78.2445 127.536 78.2445L127.566 77.1732C127.566 76.8929 127.457 76.8321 127.373 76.183C127.287 75.534 128.468 74.6065 128.468 74.6065C128.197 75.5653 128.468 75.6188 129.101 75.9581ZM119.06 79.9889C118.102 79.4541 115.174 80.5236 114.302 81.003C115.559 81.145 119.038 81.003 119.06 79.9889ZM109.318 79.4541C109.397 78.9766 108.795 78.298 108.113 78.4713C108.113 79.0061 108.278 79.4892 108.554 79.5426C108.825 79.598 109.234 79.6256 109.32 79.4597M100.645 76.1425C100.832 76.1849 101.095 76.4043 101.174 76.4578C101.258 76.4578 101.114 76.9225 100.619 77.1953C100.74 79.1204 100.516 80.3226 100.516 80.3226C103.926 77.8278 105.608 78.0417 105.811 79.1794C106.017 80.3226 103.681 82.6459 101.71 82.8119C99.7407 82.9852 98.7579 82.515 96.7829 81.6281C97.1566 81.7111 98.1375 81.5857 99.2455 81.7516C99.3296 81.5027 99.7818 81.038 100.15 80.7393L99.9032 77.8628C99.8603 77.5236 99.5706 77.483 99.6547 76.762C99.7407 76.0411 100.09 75.1357 100.703 75.0288C100.619 75.1947 100.559 75.9157 100.643 76.1296M103.926 80.7209C103.902 80.365 103.62 79.8708 102.65 79.9188C101.686 79.9594 100.619 80.9717 100.21 81.5267C100.602 81.5506 103.059 81.4197 103.928 80.7227L103.926 80.7209ZM94.367 74.8739C94.0316 75.4825 93.6902 76.0879 93.3431 76.6901C93.4272 78.0601 93.6084 81.8715 93.2235 82.7584C94.083 81.6152 94.4941 80.6674 94.4941 80.2396C94.4941 80.2396 94.4698 75.1007 94.367 74.8739ZM90.3611 75.6114C90.3611 75.7368 90.9347 75.8696 90.9776 76.207C91.0187 76.5463 90.873 76.7971 90.5236 77.2212L90.4638 78.2556C90.4638 78.2556 90.4451 78.7442 90.5853 78.888C90.916 79.0595 91.2224 78.5949 91.753 78.7866C92.62 79.0964 92.1024 80.5015 91.9212 81.1985C91.7344 81.8955 91.0785 83.0571 90.6451 83.0387C89.9706 83.0018 89.722 82.491 89.5371 81.4953C89.0419 81.9194 86.4168 82.8893 85.163 82.8709C83.9112 82.8469 83.5188 81.7277 83.2292 80.7393C83.0853 81.1819 81.9343 82.9557 79.8435 82.9373C77.7528 82.9133 76.314 81.6502 75.3929 80.8647L75.1631 80.9292C75.0005 82.1573 74.0364 82.4486 73.3993 82.515C72.7659 82.5795 72.0857 81.6262 71.755 80.6988C71.4654 80.8887 67.8985 82.3952 65.0847 82.432C59.9763 82.491 60.918 80.4185 59.8343 80.4406C59.3803 80.4591 59.2607 80.59 58.9543 81.2464C58.6404 81.9065 58.177 82.9557 57.5791 82.9557C56.103 82.9557 56.3683 80.2267 57.1699 78.9175C57.4165 78.475 57.5193 78.7258 57.3941 78.9821C57.2727 79.2402 56.9831 80.9477 57.4782 81.0307C57.8201 81.0915 58.3564 80.6914 59.0981 79.6551C59.754 78.5949 61.0264 78.77 61.4412 79.3343C62.2185 80.4775 63.4105 80.5199 65.5013 80.5605C67.5921 80.6029 68.9281 80.2212 72.2296 78.8272C72.1455 79.1019 72.1866 79.8229 72.7005 80.2046C73.2124 80.5844 74.0738 80.7762 74.3821 79.928L73.0069 78.7037C72.536 78.3035 72.2221 78.3035 72.3324 77.0958C72.3324 74.8315 79.0009 75.1707 79.0009 75.1707C79.7165 75.1707 80.4209 75.0693 80.477 75.6778C80.5965 77.0718 79.2251 78.0067 77.9359 78.3884C78.3264 78.1726 79.3073 77.4572 79.3933 77.1179C79.4829 76.7436 79.3503 76.5887 78.9822 76.6127C78.6141 76.6311 73.7487 77.0773 73.7487 77.0773C73.4833 77.1179 73.6459 77.3502 73.6459 77.3502L78.0181 80.3761C79.9893 81.3902 81.5494 80.7154 82.4351 80.3761C83.3133 80.0368 83.2946 79.4892 83.3133 79.0853L83.3973 76.2734C83.6216 76.148 84.1746 75.1302 84.1746 75.1302L84.0905 79.6551C84.1148 80.1862 84.1746 81.0731 84.8136 81.156C86.2299 81.3884 89.0176 80.0128 89.6996 79.5076C89.7407 79.2329 89.6567 77.601 89.6567 77.601C89.6567 77.3097 89.1877 77.2027 89.1877 76.845C89.1877 76.4873 90.1088 74.9642 90.32 74.73C90.2172 74.9624 90.3611 75.4934 90.3611 75.617M90.4339 80.389C90.3741 80.7522 90.3031 81.6687 91.3495 81.4548C91.6559 81.239 91.2523 80.2562 90.4339 80.389ZM58.8627 76.2255L57.5062 77.2857L58.4106 77.7504C58.4106 77.7504 59.27 77.0312 59.6381 77.0773C60.0062 77.1197 60.5425 77.5826 60.5425 77.5826C60.5425 77.5826 61.7289 76.5703 61.8971 76.5223C61.6093 76.1425 61.1198 75.9323 61.1198 75.9323C61.1198 75.9323 60.0959 76.6551 59.8493 76.6551C59.6026 76.6551 58.8627 76.231 58.8627 76.231" fill="#C20831"/>
<path d="M69.3966 81.8767C69.2042 82.0427 68.1635 82.6327 67.9448 82.6936L68.8193 83.2283C68.8193 83.2283 69.8301 82.6383 70.0469 82.7231C70.2636 82.806 70.8129 83.1748 70.8129 83.1748L72.2105 82.4428L71.5528 81.8472C71.5528 81.8472 70.4878 82.4133 70.2393 82.382C69.9927 82.3525 69.391 81.8767 69.391 81.8767M53.8138 75.1299C53.711 75.3382 52.7842 76.9461 52.7842 76.9461C53.072 78.637 53.5428 82.2695 53.1505 83.1638C54.0118 82.0205 54.3444 80.8404 54.3444 80.4164C54.3444 80.4164 53.9147 75.3678 53.8082 75.1354M38.5597 81.401C37.164 81.5135 34.8677 83.7944 33.6644 83.2873C32.9581 82.996 33.6083 81.484 34.1035 81.0912C33.6924 82.5553 33.6924 82.3893 33.9951 82.6401C34.2941 82.8946 36.2111 81.2572 37.1397 80.6671C38.0739 80.0771 40.26 79.5423 41.766 79.5128C41.6332 79.2816 41.4334 79.0948 41.1924 78.9763C40.9756 78.8933 40.2582 78.8103 40.2582 78.8103L40.9999 77.3149C42.6386 76.9756 46.1139 77.5417 47.0163 77.7667L46.6613 79.5184C46.1083 79.6414 45.5928 79.8923 45.1572 80.2504C46.084 81.2922 48.6382 80.2504 49.3201 79.7452C49.3612 79.4704 49.3201 77.94 49.3201 77.94C49.3201 77.6431 48.7951 77.6431 48.7951 77.2854C48.7951 76.9277 49.7219 75.4046 49.9274 75.1705C49.8246 75.4028 49.9704 75.9338 49.9704 76.0574C49.9704 76.1828 50.4562 76.2731 50.4991 76.6105C50.5421 76.9517 50.4804 77.2375 50.1385 77.6616L50.1086 78.4821C50.1086 78.4821 50.0899 78.9707 50.2357 79.1201C50.5608 79.286 50.8672 78.8214 51.4035 79.0113C52.2704 79.3211 51.5903 80.8589 51.4035 81.5559C51.2166 82.251 50.9924 83.1214 50.4225 83.0384C49.5481 82.9075 49.6453 82.251 49.464 81.2627C48.9763 81.0543 47.6703 82.6032 45.2114 82.1496C44.2118 81.9652 43.4887 81.5596 42.4648 80.6321C42.2163 80.929 39.862 80.8718 38.5784 81.4065M50.2357 80.4717C50.174 80.8294 50.0955 81.7753 50.9999 81.602C51.3306 81.2941 51.0559 80.3408 50.2357 80.4717ZM43.4214 79.2086L44.8433 78.589C44.6266 78.4471 43.0664 78.4231 42.788 78.4471L43.4214 79.2086Z" fill="#C20831"/>
<path d="M44.6104 75.3398L43.1343 76.1548L43.9527 76.6896L45.1578 75.8746L44.6085 75.3398H44.6104ZM20.8586 75.9059C20.9427 75.9354 21.7854 76.2692 21.7854 76.2692C21.7854 76.2692 20.6344 77.1985 20.5578 77.228C20.4719 77.2575 19.7077 76.8334 19.4367 76.9182C19.1658 77.0012 18.5025 77.7111 18.5025 77.7111C18.5025 77.7111 17.63 77.3995 17.4375 77.346C17.9009 77.0897 18.5866 76.3337 18.7267 76.1917C19.2742 76.4167 19.8216 76.7265 19.9842 76.6674C20.1468 76.6121 20.5335 75.9114 20.8642 75.9114M30.8997 81.9908C31.0622 81.9908 31.9423 81.2588 32.159 81.2901C32.3758 81.3178 33.0932 81.8839 33.0932 81.8839C33.0932 81.8839 31.804 82.8722 31.6714 82.8427C31.5312 82.8132 30.9053 82.3079 30.767 82.3375C30.6362 82.367 29.5619 83.099 29.5619 83.099L28.4128 82.5938C28.4128 82.5938 29.646 81.5501 29.8328 81.5206C30.0252 81.4911 30.7072 81.9447 30.8997 81.9982M38.1231 82.0221L37.0319 82.5882L37.5738 83.2612L38.7248 82.5274L38.1231 82.0221Z" fill="#C20831"/>
</svg>
