<svg width="24" height="24" viewBox="0 0 24 24" fill="none" xmlns="http://www.w3.org/2000/svg">
<path d="M4.73438 8.61319L14.914 3.74468C15.0294 3.68944 15.1547 3.65778 15.2824 3.65154C15.4102 3.64529 15.538 3.6646 15.6582 3.70832C15.7784 3.75204 15.8887 3.8193 15.9827 3.90616C16.0766 3.99303 16.1522 4.09775 16.2052 4.21421L18.2046 8.61319" stroke="black" stroke-width="1.92431" stroke-linecap="round" stroke-linejoin="round"/>
<path d="M6.17773 10.5381V8.61377" stroke="black" stroke-width="1.92431" stroke-linecap="round" stroke-linejoin="round"/>
<path d="M6.17773 14.3867V15.3489" stroke="black" stroke-width="1.92431" stroke-linecap="round" stroke-linejoin="round"/>
<path d="M6.17773 19.1973V21.1216" stroke="black" stroke-width="1.92431" stroke-linecap="round" stroke-linejoin="round"/>
<path d="M19.647 8.61377H4.25244C3.18967 8.61377 2.32812 9.47531 2.32812 10.5381V19.1975C2.32812 20.2603 3.18967 21.1218 4.25244 21.1218H19.647C20.7097 21.1218 21.5713 20.2603 21.5713 19.1975V10.5381C21.5713 9.47531 20.7097 8.61377 19.647 8.61377Z" stroke="black" stroke-width="1.92431" stroke-linecap="round" stroke-linejoin="round"/>
</svg>
